<svg width="28" height="28" viewBox="0 0 28 28" fill="none" xmlns="http://www.w3.org/2000/svg">
<path d="M14 6L15.43 7.393L9.85 13H22V15H9.85L15.43 20.573L14 22L6 14L14 6Z" fill="#FF2D30"/>
<path d="M14 28C16.7689 28 19.4757 27.1789 21.778 25.6406C24.0803 24.1022 25.8747 21.9157 26.9343 19.3576C27.9939 16.7994 28.2712 13.9845 27.731 11.2687C27.1908 8.55301 25.8574 6.05845 23.8995 4.10051C21.9416 2.14258 19.447 0.809205 16.7313 0.269012C14.0155 -0.271181 11.2006 0.00606596 8.64243 1.06569C6.08426 2.12532 3.89776 3.91973 2.35942 6.22202C0.821079 8.52431 -5.72205e-06 11.2311 -5.72205e-06 14C0.00422859 17.7117 1.48059 21.2702 4.10518 23.8948C6.72977 26.5194 10.2883 27.9958 14 28ZM14 2.00001C16.3734 2.00001 18.6934 2.70379 20.6668 4.02237C22.6402 5.34095 24.1783 7.21509 25.0865 9.40781C25.9948 11.6005 26.2324 14.0133 25.7694 16.3411C25.3064 18.6689 24.1635 20.8071 22.4853 22.4853C20.807 24.1635 18.6688 25.3064 16.3411 25.7694C14.0133 26.2325 11.6005 25.9948 9.40779 25.0866C7.21508 24.1783 5.34094 22.6402 4.02236 20.6668C2.70378 18.6935 1.99999 16.3734 1.99999 14C2.0037 10.8185 3.26917 7.76845 5.5188 5.51882C7.76844 3.26918 10.8185 2.00371 14 2.00001Z" fill="#FF2D30"/>
</svg>
