<svg width="908" height="144" viewBox="0 0 908 144" fill="none" xmlns="http://www.w3.org/2000/svg">
<path d="M35.2349 59.327C34.9224 59.3787 34.5954 59.3089 34.3288 59.1277L33.0189 58.2236L39.7209 54.2024L39.9036 55.7831C39.9606 56.2637 39.7235 56.7366 39.3084 56.9856L35.6708 59.1703C35.5319 59.2497 35.3829 59.3025 35.2349 59.327ZM34.9154 58.2815C34.9848 58.3263 35.0688 58.3237 35.1356 58.2845L38.7731 56.0997C38.8399 56.0605 38.8829 55.9802 38.8757 55.9025L34.9154 58.2815Z" fill="white" fill-opacity="0.25"/>
<path d="M33.3578 58.9824C32.9082 59.0568 32.4405 59.0215 31.9939 58.8757L29.4077 58.0195C28.7584 57.8059 28.2062 57.3622 27.856 56.778L24.5269 51.2289L37.5414 43.4199L40.8705 48.9691C41.2207 49.5532 41.3523 50.2468 41.2383 50.919L40.7757 53.6035C40.635 54.421 40.1454 55.1385 39.4333 55.5661L34.3613 58.6135C34.0486 58.8004 33.7087 58.9243 33.3578 58.9824ZM25.9371 51.5813L28.7373 56.2492C28.9625 56.6231 29.313 56.903 29.7304 57.0424L32.3166 57.8986C32.8235 58.0682 33.3762 58.0049 33.8324 57.7322L38.9044 54.6849C39.3606 54.4122 39.6735 53.9549 39.7664 53.4269L40.229 50.7425C40.3044 50.3132 40.2199 49.8709 39.9947 49.497L37.1945 44.8291L25.9371 51.5813Z" fill="white" fill-opacity="0.25"/>
<path d="M25.0895 51.9477C24.4261 52.0575 23.7284 51.7899 23.3189 51.2212L23.297 51.1911C20.9546 47.9288 19.2817 47.3495 16.7603 46.4769C15.5174 46.0461 14.1074 45.5585 12.3279 44.6758L12.2302 44.63C12.1379 44.5833 12.0457 44.5366 11.9471 44.4853L11.8668 44.4423C11.78 44.3947 11.6942 44.3526 11.613 44.304L11.5071 44.2427C11.4194 44.1896 11.3272 44.1429 11.2396 44.0898L11.183 44.0541C11.0771 43.9928 10.9766 43.9306 10.8698 43.8638L10.7694 43.8015C10.6881 43.753 10.6124 43.7036 10.5357 43.6487L10.4472 43.5901C10.3458 43.5224 10.2445 43.4547 10.1432 43.387L10.0729 43.3366C9.99071 43.2826 9.91312 43.2223 9.83006 43.1628L9.73421 43.0942C9.64475 43.0301 9.5553 42.9661 9.47042 42.8956L9.43208 42.8682C9.33442 42.7886 9.23219 42.7154 9.13453 42.6358L9.04964 42.5653C8.97206 42.5049 8.89995 42.4437 8.82146 42.3778L8.74936 42.3165C8.65169 42.2369 8.5586 42.1509 8.46643 42.0704L8.40711 42.0183C8.32862 41.9524 8.25471 41.8802 8.18079 41.8079L8.10047 41.7311C8.01377 41.6497 7.92709 41.5683 7.84588 41.4859L7.82489 41.4613C7.73728 41.3744 7.64329 41.2829 7.55478 41.1905L7.47995 41.1128C7.41152 41.0396 7.33761 40.9674 7.26827 40.8887L7.20621 40.8201C7.12319 40.7269 7.03377 40.629 6.95074 40.5357L6.89599 40.4772C6.82665 40.3986 6.75641 40.3144 6.69255 40.2349L6.6223 40.1507C6.54475 40.0566 6.46081 39.9578 6.38235 39.8581C6.2957 39.7429 6.21177 39.6442 6.13789 39.5381L6.07313 39.4531C6.00836 39.368 5.94907 39.2821 5.8843 39.197L5.83323 39.1266C5.75935 39.0206 5.68456 38.909 5.60978 38.7975L5.56417 38.7262C5.50398 38.6348 5.4447 38.5488 5.38999 38.4565L5.32981 38.3651C5.2605 38.2526 5.18481 38.1356 5.1155 38.0231C5.038 37.8952 4.96688 37.7717 4.89485 37.6428C4.87935 37.6172 4.86385 37.5916 4.85383 37.5651L4.82102 37.503C4.77361 37.4207 4.73166 37.3375 4.68425 37.2553C4.66784 37.2242 4.65054 37.1876 4.63413 37.1565L4.5858 37.0688C4.55208 37.0011 4.51926 36.939 4.48554 36.8713C4.46822 36.8348 4.45 36.7927 4.4272 36.7571L4.38618 36.6794C4.35246 36.6117 4.31963 36.5496 4.29139 36.481C4.27407 36.4444 4.25586 36.4024 4.23763 36.3604L4.1948 36.2717C4.16746 36.2086 4.14103 36.151 4.11369 36.088C4.09456 36.0404 4.06995 35.9938 4.05082 35.9463L4.0253 35.8942C3.99705 35.8256 3.96972 35.7626 3.94148 35.694C3.92235 35.6465 3.90231 35.5935 3.88318 35.546L3.87226 35.514C3.84311 35.4399 3.81486 35.3714 3.78571 35.2974C3.76658 35.2498 3.74745 35.2023 3.73289 35.1484L3.71195 35.0899C3.6901 35.0259 3.66185 34.9574 3.64 34.8934C3.61815 34.8294 3.5972 34.7709 3.57535 34.707C3.55259 34.6375 3.52344 34.5635 3.50068 34.494C3.47883 34.43 3.46336 34.3706 3.44151 34.3067C3.41784 34.2317 3.39508 34.1623 3.37232 34.0928C3.35046 34.0288 3.3341 33.9639 3.31864 33.9045C3.29588 33.8351 3.27769 33.7592 3.25493 33.6898C3.23856 33.6249 3.2222 33.56 3.20125 33.5015C3.18397 33.4312 3.16578 33.3553 3.14302 33.2859C3.12665 33.221 3.11028 33.1561 3.09391 33.0912C3.07663 33.0208 3.05845 32.945 3.04118 32.8746C3.02481 32.8098 3.01391 32.744 2.99845 32.6846C2.98117 32.6142 2.96847 32.5374 2.95119 32.4671C2.9403 32.4013 2.92394 32.3364 2.91305 32.2706C2.90126 32.1993 2.88946 32.1281 2.87127 32.0522C2.86038 31.9864 2.8495 31.9207 2.83952 31.8603C2.82772 31.7891 2.81502 31.7123 2.80322 31.641C2.79234 31.5753 2.78145 31.5095 2.77695 31.4483C2.76516 31.377 2.75793 31.2993 2.74614 31.228C2.73525 31.1623 2.73075 31.101 2.72534 31.0343C2.71903 30.9622 2.71182 30.8845 2.70003 30.8132L2.69549 30.7858C2.6919 30.7301 2.68282 30.6753 2.67923 30.6195C2.67292 30.5474 2.6657 30.4697 2.65939 30.3975L2.6567 30.3473C2.65492 30.3025 2.64675 30.2532 2.64498 30.2084C2.63776 30.1307 2.63693 30.0576 2.63062 29.9855L2.62884 29.9407C2.62615 29.8904 2.62438 29.8457 2.6217 29.7954C2.62177 29.7278 2.61637 29.6611 2.61554 29.588L2.61471 29.515C2.61293 29.4702 2.61116 29.4254 2.60938 29.3806C2.60946 29.313 2.61045 29.2509 2.61052 29.1833L2.61155 29.0874C2.61068 29.0481 2.6098 29.0088 2.60803 28.9641C2.6081 28.8965 2.60909 28.8343 2.60917 28.7667L2.60838 28.6598C2.60751 28.6206 2.60754 28.5868 2.61216 28.5466C2.615 28.4616 2.61784 28.3766 2.62068 28.2917L2.62075 28.2241C2.6217 28.1958 2.62265 28.1674 2.62269 28.1336C2.62832 27.9975 2.63944 27.8605 2.65056 27.7235L2.65706 27.6266C2.66814 27.5234 2.67375 27.4211 2.68483 27.3179C2.69035 27.2832 2.69038 27.2494 2.69591 27.2147L2.70699 27.1114C2.71255 27.0429 2.72449 26.979 2.73005 26.9105C2.73467 26.8703 2.73928 26.8301 2.74847 26.7835L2.75951 26.7141C2.77055 26.6447 2.78069 26.5698 2.78625 26.5013C2.78995 26.4556 2.80005 26.4145 2.80466 26.3743L2.82032 26.2647C2.8277 26.2072 2.83598 26.1551 2.84883 26.0966C2.85802 26.0501 2.8663 25.998 2.87549 25.9514L2.88743 25.8875C2.89938 25.8235 2.91134 25.7596 2.92329 25.6957C2.93157 25.6436 2.94442 25.5851 2.95818 25.5322L2.97014 25.4682C2.983 25.4098 2.99585 25.3513 3.00871 25.2929C3.01699 25.2408 3.03165 25.1933 3.04542 25.1404L3.05552 25.0993C3.07204 25.0289 3.08856 24.9586 3.10509 24.8883C3.11885 24.8353 3.13171 24.7769 3.14547 24.7239L3.15282 24.7001C3.16934 24.6298 3.18677 24.565 3.20877 24.4937C3.22254 24.4408 3.24179 24.3869 3.25464 24.3284L3.26107 24.2992C3.27759 24.2289 3.3005 24.1631 3.32251 24.0919C3.33994 24.027 3.35829 23.9677 3.3812 23.9019C3.40321 23.8307 3.42612 23.765 3.44355 23.7001C3.46189 23.6407 3.48481 23.575 3.50224 23.5101C3.52516 23.4444 3.54807 23.3786 3.57008 23.3074C3.59299 23.2417 3.61681 23.1814 3.63515 23.122C3.65807 23.0563 3.68098 22.9905 3.70937 22.9239C3.73319 22.8636 3.75611 22.7979 3.77993 22.7376C3.80285 22.6718 3.83124 22.6052 3.85964 22.5385C3.88346 22.4783 3.90728 22.418 3.93567 22.3513C3.96407 22.2847 3.99247 22.218 4.01629 22.1577C4.04011 22.0975 4.06942 22.0363 4.09324 21.976C4.12164 21.9094 4.15094 21.8482 4.17933 21.7815C4.20864 21.7204 4.23246 21.6601 4.26176 21.5989C4.29107 21.5377 4.32496 21.4702 4.35426 21.409C4.38357 21.3478 4.41286 21.2866 4.44307 21.231C4.47238 21.1698 4.50259 21.1141 4.5319 21.0529L4.54928 21.0219C4.57401 20.9671 4.60514 20.9169 4.62987 20.8621C4.66008 20.8064 4.68572 20.7571 4.71593 20.7014L4.7507 20.6393C4.77634 20.59 4.80289 20.5462 4.82943 20.5024C4.85964 20.4467 4.89076 20.3965 4.92188 20.3462L4.96582 20.2714C4.98688 20.2285 5.01432 20.1901 5.03539 20.1472C5.0665 20.097 5.09763 20.0468 5.12875 19.9966L5.17726 19.9153C5.20471 19.877 5.22577 19.8341 5.25322 19.7957C5.28434 19.7455 5.31545 19.6953 5.34657 19.6451L5.40058 19.5629C5.42803 19.5246 5.44999 19.4872 5.47744 19.4488C5.50856 19.3986 5.54059 19.3539 5.57719 19.3028L5.63667 19.2197C5.66412 19.1814 5.68608 19.1439 5.71353 19.1056C5.74465 19.0554 5.78216 19.0098 5.81418 18.965L5.88281 18.8692C5.90569 18.8372 5.92766 18.7998 5.95602 18.7669C5.99719 18.7094 6.03837 18.6519 6.08045 18.5999L6.14084 18.5223C6.16462 18.4959 6.18201 18.4648 6.20579 18.4383C6.28905 18.3288 6.37231 18.2193 6.46196 18.1143C6.48574 18.0879 6.50862 18.0559 6.5324 18.0294L6.60285 17.9446C6.64493 17.8925 6.68701 17.8405 6.72909 17.7885C6.75745 17.7556 6.78124 17.7292 6.8096 17.6963L6.8901 17.6041C6.92761 17.5585 6.96512 17.5129 7.00901 17.4718C7.04286 17.438 7.07121 17.4052 7.10415 17.3659L7.1755 17.2865C7.213 17.2409 7.2569 17.1998 7.29441 17.1542C7.32825 17.1204 7.36118 17.0812 7.39502 17.0474L7.4618 16.9744C7.5057 16.9334 7.5432 16.8877 7.5871 16.8467C7.62094 16.8129 7.65936 16.7727 7.6932 16.739L7.7563 16.6778C7.8002 16.6368 7.8432 16.5902 7.8871 16.5492C7.92551 16.509 7.96484 16.4743 8.00873 16.4333L8.06268 16.3849C8.10658 16.3439 8.15048 16.3028 8.19986 16.2608C8.24376 16.2198 8.28766 16.1787 8.33155 16.1377L8.3663 16.1094C8.41477 16.0619 8.46416 16.02 8.51902 15.9771C8.5684 15.9351 8.61688 15.8877 8.67174 15.8448C8.73576 15.7891 8.78971 15.7408 8.84458 15.6979C8.89944 15.655 8.95338 15.6067 9.00825 15.5638C9.06311 15.5209 9.12256 15.4717 9.17742 15.4288C9.23228 15.3859 9.28714 15.343 9.34749 15.2992C9.40783 15.2555 9.46269 15.2126 9.52304 15.1688C9.5779 15.1259 9.63826 15.0822 9.69312 15.0393C9.75347 14.9955 9.80833 14.9526 9.86867 14.9088C9.92902 14.8651 9.98479 14.8277 10.0451 14.7839L10.2115 14.6662C10.2874 14.6142 10.3688 14.5613 10.4447 14.5093C10.5004 14.472 10.5507 14.4355 10.6074 14.4036C10.6842 14.3571 10.7601 14.3051 10.8369 14.2586L10.8671 14.2367C10.9128 14.2066 10.9585 14.1765 11.0051 14.1519L11.0664 14.1136C11.1075 14.0899 11.1486 14.0662 11.1898 14.0424L11.2976 13.9795C11.3333 13.9567 11.3699 13.9394 11.4055 13.9166C11.5134 13.8537 11.6222 13.7963 11.731 13.7388L11.8032 13.6987C19.5934 9.51433 29.2764 11.8321 34.3348 19.0834L34.3859 19.1538C34.4525 19.2498 34.52 19.3513 34.5865 19.4473C34.6166 19.493 34.6467 19.5387 34.6759 19.579C34.7288 19.6603 34.7817 19.7417 34.8291 19.824C34.8665 19.8797 34.8984 19.9364 34.9358 19.9922L34.9969 20.0891C35.0124 20.1147 35.0279 20.1403 35.0443 20.1714L35.0753 20.2226C35.1081 20.2847 35.1455 20.3405 35.1784 20.4027C35.2249 20.4795 35.2668 20.5626 35.3133 20.6394L35.3224 20.6605C35.347 20.7071 35.378 20.7583 35.4035 20.8104C35.4519 20.8981 35.5011 20.9914 35.5439 21.08L35.6688 21.3241C35.7199 21.4283 35.7709 21.5325 35.821 21.6312L35.8456 21.6779C35.8985 21.793 35.9504 21.9027 36.0033 22.0179L36.0416 22.1129C36.0889 22.229 36.1409 22.3387 36.1873 22.4493L36.2165 22.5233C36.2557 22.6239 36.2948 22.7244 36.334 22.825L36.3641 22.9045C36.405 23.016 36.4469 23.133 36.4879 23.2445L36.5207 23.3404C36.5626 23.4574 36.5981 23.5698 36.64 23.6868L36.6536 23.7352C36.6882 23.8422 36.7228 23.9491 36.7519 24.0569L36.7792 24.1538C36.8147 24.2662 36.8456 24.385 36.8757 24.4983L36.9021 24.5897C36.9303 24.6921 36.9585 24.7944 36.9812 24.8977L36.9985 24.968C37.0294 25.0868 37.0539 25.2011 37.0785 25.3153L37.1003 25.4131C37.1257 25.5328 37.1503 25.647 37.1693 25.7621L37.1811 25.8334C37.1974 25.9321 37.2202 26.0353 37.2365 26.134L37.2528 26.2327C37.2719 26.3478 37.29 26.4575 37.3036 26.5735L37.3208 26.6777C37.3326 26.7828 37.3498 26.8869 37.3616 26.992L37.3679 27.0642C37.3806 27.1747 37.3932 27.2853 37.4004 27.3968L37.4131 27.5073C37.4212 27.6243 37.4338 27.7348 37.4419 27.8518L37.4464 27.9468C37.4508 28.0418 37.4562 28.1423 37.4607 28.2373L37.4651 28.3323C37.4677 28.4502 37.4749 28.5616 37.4766 28.674L37.4783 28.7864C37.48 28.8988 37.4817 29.0111 37.4834 29.1235L37.4842 29.2304C37.4814 29.2815 37.485 29.3373 37.4822 29.3884L37.4792 29.5748C37.4276 31.5773 37.1838 33.0652 36.9731 34.3787C36.5444 37.0294 36.2601 38.7831 38.0447 42.3855C38.4522 43.2137 38.1641 44.2302 37.3889 44.719C33.8401 47.5762 29.8999 49.9406 25.6707 51.7501C25.4952 51.8468 25.2923 51.9141 25.0895 51.9477ZM24.1555 50.6265C24.389 50.9484 24.8438 51.0421 25.1867 50.8333L25.2488 50.8005C29.4094 49.0192 33.2883 46.6931 36.7768 43.8796L36.8326 43.8422C37.1754 43.6334 37.3102 43.1886 37.1325 42.8294C35.2029 38.9299 35.5222 36.9451 35.9693 34.2012C36.1791 32.9161 36.4119 31.4638 36.4643 29.5344L36.4682 29.3535C36.471 29.3023 36.4692 29.2576 36.472 29.2064L36.4721 29.105C36.4713 28.9981 36.4714 28.8967 36.4706 28.7898L36.4698 28.6829C36.469 28.576 36.4628 28.47 36.462 28.3632L36.4584 28.2736C36.4549 28.1841 36.4513 28.0946 36.4414 28.0004L36.4378 27.9109C36.4307 27.7995 36.4244 27.6935 36.4126 27.5884L36.4009 27.4833C36.3891 27.3783 36.3773 27.2732 36.3665 27.1736L36.3611 27.1069C36.3503 27.0073 36.3339 26.9086 36.3231 26.809L36.3067 26.7103C36.2895 26.6062 36.2768 26.4956 36.2587 26.386L36.2433 26.2928C36.2278 26.1996 36.2115 26.1009 36.1906 26.0086L36.1788 25.9373C36.1552 25.8286 36.137 25.7189 36.1134 25.6102L36.0925 25.5179C36.0689 25.4091 36.0452 25.3004 36.0152 25.1871L35.9988 25.1222C35.977 25.0244 35.9497 24.9276 35.9224 24.8307L35.897 24.7448C35.8678 24.6369 35.8387 24.5291 35.8041 24.4222L35.7786 24.3363C35.7504 24.2339 35.7168 24.1325 35.6831 24.031L35.6703 23.9881C35.6357 23.8812 35.6011 23.7742 35.5602 23.6627L35.5283 23.5722C35.4882 23.4662 35.4536 23.3593 35.4126 23.2478L35.3835 23.1738C35.3452 23.0787 35.307 22.9837 35.2687 22.8886L35.2405 22.82C35.1949 22.7149 35.1494 22.6098 35.1029 22.4992L35.0655 22.4097C35.02 22.3045 34.968 22.1949 34.9225 22.0897L34.8978 22.0431C34.8541 21.949 34.804 21.8503 34.7593 21.7506L34.6426 21.5221C34.6007 21.4389 34.5524 21.3512 34.5105 21.268C34.4858 21.2214 34.4612 21.1747 34.4375 21.1336L34.4229 21.1135C34.3819 21.0358 34.3418 20.9636 34.2953 20.8868C34.2634 20.8301 34.2315 20.7734 34.1941 20.7176L34.0692 20.5074C34.0373 20.4507 34.0008 20.4004 33.9698 20.3492C33.9233 20.2724 33.8713 20.1965 33.8248 20.1197C33.7956 20.0795 33.771 20.0329 33.7418 19.9927C33.6816 19.9012 33.615 19.8052 33.5548 19.7138L33.5101 19.648C28.7536 12.8255 19.6396 10.6445 12.3101 14.5836L12.2434 14.6229C12.1456 14.6785 12.0422 14.735 11.939 14.7915C11.9079 14.8079 11.8777 14.8298 11.8411 14.8471L11.7278 14.911C11.6921 14.9338 11.6556 14.9511 11.6199 14.9739L11.5641 15.0113C11.523 15.035 11.4773 15.0651 11.4361 15.0888L11.406 15.1107C11.3347 15.1563 11.2634 15.2019 11.1921 15.2475C11.1409 15.2785 11.0906 15.3149 11.0394 15.3459C10.9626 15.3924 10.8922 15.4435 10.8218 15.4946L10.6599 15.6059C10.6042 15.6433 10.5493 15.6861 10.4935 15.7235C10.4378 15.7609 10.3829 15.8038 10.328 15.8467C10.2732 15.8896 10.2174 15.927 10.168 15.9689C10.1132 16.0118 10.0583 16.0547 10.008 16.0912C9.95315 16.134 9.90376 16.176 9.84799 16.2134C9.79313 16.2563 9.74375 16.2982 9.68889 16.3411C9.63951 16.3831 9.58465 16.426 9.53527 16.4679C9.48041 16.5108 9.43193 16.5582 9.38255 16.6002C9.32859 16.6486 9.27921 16.6905 9.22983 16.7325C9.18044 16.7745 9.13655 16.8155 9.08717 16.8575L9.05243 16.8858C9.00762 16.9214 8.96921 16.9615 8.92988 16.9962C8.88598 17.0372 8.84666 17.0719 8.80276 17.113L8.74972 17.1668C8.71039 17.2015 8.67655 17.2353 8.63813 17.2754C8.59972 17.3156 8.55582 17.3566 8.51741 17.3968L8.4543 17.4579C8.42046 17.4917 8.38662 17.5254 8.35735 17.5528C8.31893 17.593 8.28052 17.6331 8.24211 17.6733L8.16985 17.7472C8.14149 17.78 8.10674 17.8083 8.07838 17.8412C8.03996 17.8813 8.00703 17.9206 7.96861 17.9607L7.89726 18.0401C7.8689 18.073 7.83965 18.1004 7.81129 18.1332C7.77288 18.1734 7.73994 18.2126 7.70243 18.2583L7.62194 18.3504C7.59815 18.3769 7.57437 18.4034 7.55059 18.4298C7.51308 18.4755 7.47009 18.522 7.43349 18.5731L7.35846 18.6644C7.34016 18.69 7.32096 18.71 7.30266 18.7356C7.22397 18.8387 7.1389 18.9373 7.06022 19.0404C7.04192 19.066 7.0227 19.0861 7.0044 19.1117L6.93944 19.1956C6.89736 19.2476 6.86076 19.2988 6.82416 19.3499C6.80128 19.3818 6.78299 19.4074 6.76011 19.4393L6.6869 19.5416C6.65488 19.5863 6.62285 19.631 6.5954 19.6694C6.57252 19.7013 6.55056 19.7388 6.52768 19.7707L6.46911 19.8593C6.43708 19.904 6.41054 19.9478 6.37851 19.9925C6.35564 20.0245 6.33367 20.0619 6.31079 20.0939L6.25771 20.1815C6.22568 20.2262 6.20005 20.2755 6.16802 20.3203C6.14605 20.3577 6.12408 20.3951 6.10212 20.4326L6.0536 20.5138C6.02705 20.5576 5.99594 20.6078 5.9694 20.6517C5.94743 20.6891 5.92546 20.7265 5.90349 20.764L5.85956 20.8388C5.83392 20.8881 5.80281 20.9383 5.77717 20.9876C5.75611 21.0305 5.72956 21.0744 5.7085 21.1173L5.67371 21.1794C5.64807 21.2287 5.61696 21.2789 5.59132 21.3282C5.56569 21.3775 5.54005 21.4268 5.51441 21.4761L5.50617 21.4944C5.47229 21.5619 5.44208 21.6176 5.41735 21.6724C5.38714 21.7281 5.36241 21.7829 5.3331 21.8441C5.3038 21.9052 5.2745 21.9664 5.24429 22.0221C5.21956 22.0769 5.19025 22.1381 5.16552 22.1929C5.13622 22.254 5.1124 22.3143 5.08309 22.3755C5.05836 22.4303 5.03454 22.4905 5.00981 22.5453C4.98051 22.6065 4.95669 22.6668 4.93287 22.727C4.90905 22.7873 4.88432 22.8421 4.8605 22.9024C4.83667 22.9626 4.81285 23.0229 4.78994 23.0886C4.76611 23.1489 4.74778 23.2083 4.72305 23.2631C4.69923 23.3233 4.67631 23.3891 4.65249 23.4493C4.62867 23.5096 4.61034 23.569 4.592 23.6283C4.56818 23.6886 4.55075 23.7534 4.52783 23.8192C4.50949 23.8786 4.49115 23.9379 4.46733 23.9982C4.44441 24.0639 4.42698 24.1288 4.40864 24.1881C4.3903 24.2475 4.37196 24.3069 4.35362 24.3662C4.33619 24.4311 4.31876 24.4959 4.30132 24.5608L4.2949 24.59C4.28113 24.643 4.26647 24.6904 4.2527 24.7434C4.23527 24.8083 4.21784 24.8731 4.20041 24.9379L4.19398 24.9672C4.18022 25.0201 4.16554 25.0676 4.15726 25.1197C4.13983 25.1845 4.12788 25.2485 4.11136 25.3188L4.10126 25.3599C4.09207 25.4065 4.0774 25.454 4.06821 25.5006C4.05445 25.5535 4.04616 25.6056 4.0333 25.664L4.02136 25.728C4.01308 25.78 3.99841 25.8275 3.99012 25.8796C3.97727 25.938 3.96531 26.002 3.95794 26.0595L3.9469 26.129C3.93771 26.1755 3.9331 26.2157 3.92391 26.2623C3.91563 26.3144 3.90735 26.3664 3.89907 26.4185L3.88341 26.5281C3.8788 26.5683 3.87328 26.603 3.86318 26.6441C3.85123 26.708 3.84567 26.7766 3.83372 26.8405L3.82359 26.9154C3.81807 26.9501 3.81345 26.9903 3.80793 27.025C3.80146 27.088 3.795 27.1511 3.78762 27.2086L3.77745 27.3173C3.77651 27.3456 3.77008 27.3749 3.76914 27.4032C3.75715 27.5009 3.75064 27.5977 3.74413 27.6946L3.73671 27.7859C3.72378 27.912 3.71724 28.0426 3.7107 28.1733L3.70688 28.3203C3.70313 28.3998 3.69938 28.4793 3.69564 28.5588C3.6956 28.5926 3.69466 28.6209 3.69462 28.6547L3.69083 28.768C3.68985 28.8301 3.68796 28.8867 3.68698 28.9488C3.68694 28.9826 3.68781 29.0219 3.68777 29.0557L3.68765 29.1571C3.68667 29.2193 3.69116 29.2805 3.68927 29.3371C3.69014 29.3764 3.69101 29.4157 3.69278 29.4605L3.69362 29.5335C3.69263 29.5957 3.69804 29.6624 3.69705 29.7245C3.69883 29.7692 3.6997 29.8085 3.70147 29.8533L3.70326 29.8981C3.70957 29.9702 3.70948 30.0378 3.7158 30.11C3.71757 30.1548 3.72393 30.1932 3.7257 30.2379L3.72838 30.2882C3.73469 30.3604 3.74011 30.4271 3.74642 30.4992C3.7491 30.5495 3.75726 30.5988 3.76085 30.6546L3.76539 30.682C3.7717 30.7542 3.77711 30.8209 3.7889 30.8921C3.7934 30.9533 3.80339 31.0137 3.81337 31.074C3.81968 31.1461 3.83057 31.2119 3.84236 31.2832C3.85234 31.3435 3.85683 31.4047 3.86681 31.465C3.87861 31.5363 3.8895 31.6021 3.90129 31.6734C3.91127 31.7337 3.92125 31.794 3.93123 31.8543C3.94212 31.9201 3.95392 31.9913 3.96571 32.0626C3.97569 32.1229 3.99116 32.1823 4.00114 32.2426C4.01203 32.3084 4.02931 32.3788 4.04111 32.4501C4.05109 32.5104 4.06655 32.5698 4.08201 32.6292C4.09929 32.6995 4.11017 32.7653 4.12745 32.8357C4.14291 32.8951 4.15838 32.9545 4.17384 33.0139C4.19021 33.0788 4.20749 33.1491 4.22477 33.2195C4.24023 33.2789 4.25569 33.3383 4.27115 33.3977C4.28843 33.4681 4.31029 33.532 4.32757 33.6024C4.34303 33.6618 4.36397 33.7203 4.37943 33.7797C4.40219 33.8491 4.41856 33.914 4.44132 33.9835C4.46227 34.042 4.47773 34.1014 4.49868 34.1599C4.52144 34.2293 4.54329 34.2933 4.56605 34.3628C4.587 34.4212 4.60794 34.4797 4.62888 34.5382C4.64983 34.5967 4.67169 34.6607 4.69903 34.7238L4.71997 34.7823C4.7391 34.8298 4.75184 34.8727 4.77097 34.9203C4.79921 34.9888 4.82198 35.0583 4.84931 35.1213L4.86114 35.1588C4.88027 35.2063 4.8985 35.2484 4.91763 35.2959C4.94496 35.359 4.97139 35.4166 4.99325 35.4805L5.01966 35.5381C5.03789 35.5802 5.05702 35.6277 5.07525 35.6697C5.10168 35.7273 5.1281 35.7849 5.15453 35.8425L5.19827 35.9366C5.21559 35.9732 5.232 36.0043 5.24932 36.0408C5.27665 36.1039 5.30856 36.1606 5.3359 36.2237L5.37783 36.3068C5.39514 36.3434 5.41156 36.3745 5.42796 36.4056C5.46078 36.4677 5.49359 36.5299 5.52093 36.593L5.57016 36.6862C5.58657 36.7173 5.60207 36.7429 5.613 36.7749C5.65402 36.8526 5.70052 36.9294 5.74154 37.0071L5.81357 37.136C5.88378 37.2539 5.94941 37.3782 6.02511 37.4952C6.08802 37.6031 6.15642 37.7101 6.22482 37.817L6.27862 37.9039C6.33242 37.9907 6.3917 38.0767 6.44459 38.158L6.48929 38.2239C6.55678 38.3253 6.63065 38.4314 6.70362 38.532L6.7547 38.6024C6.81307 38.6828 6.87146 38.7633 6.92984 38.8438L6.9882 38.9242C7.06117 39.0248 7.13872 39.119 7.2117 39.2196L7.22538 39.2342C7.29654 39.3238 7.3677 39.4134 7.44524 39.5076L7.5091 39.5872C7.57205 39.6612 7.63591 39.7408 7.70435 39.814L7.75361 39.8734C7.83664 39.9667 7.91328 40.0554 7.9954 40.1432L8.05654 40.2063C8.12498 40.2794 8.18702 40.348 8.25454 40.4157L8.32298 40.4889C8.4051 40.5767 8.4927 40.6636 8.5794 40.745L8.59948 40.7642C8.67979 40.841 8.76008 40.9178 8.84039 40.9947L8.91979 41.066C8.9928 41.1328 9.05943 41.195 9.13244 41.2618L9.18627 41.3148C9.27296 41.3962 9.36424 41.4712 9.45551 41.5463L9.52762 41.6075C9.59972 41.6688 9.67091 41.7246 9.74301 41.7859L9.82151 41.8518C9.91278 41.9268 10.0031 41.9964 10.0999 42.0705L10.1327 42.0988C10.2167 42.1638 10.2998 42.2233 10.3838 42.2882L10.4732 42.3523C10.5499 42.4072 10.6266 42.4621 10.7024 42.5115L10.7662 42.5572C10.8612 42.6204 10.957 42.689 11.052 42.7522L11.1341 42.8062C11.2099 42.8556 11.2793 42.9004 11.3551 42.9498L11.4491 43.0075C11.544 43.0706 11.6435 43.1274 11.7431 43.1842L11.7987 43.2144C11.88 43.2629 11.9667 43.3105 12.048 43.359L12.1475 43.4157C12.2278 43.4588 12.3082 43.5018 12.3885 43.5448L12.4625 43.5833C12.5492 43.6309 12.6405 43.6721 12.7273 43.7197L12.8195 43.7664C14.5379 44.6198 15.9177 45.0955 17.1314 45.5199C19.7486 46.4273 21.6426 47.0827 24.1856 50.6385L24.1555 50.6265Z" fill="white" fill-opacity="0.25"/>
<path d="M29.3503 49.4686C29.3411 49.4476 28.1987 47.4794 21.875 38.6069C21.2803 37.7703 20.7028 37.1055 20.1616 36.5924C17.3916 37.4507 15.9168 36.9794 15.4445 36.1C15.1118 35.4848 15.3492 34.7415 16.0084 34.3338C16.7791 33.8514 18.3898 33.7482 20.3968 35.4269C20.8922 35.2548 21.4305 35.0362 22.0219 34.7637C23.7285 33.98 24.9901 33.1966 25.8926 32.4558C25.4885 31.1033 25.3181 29.9712 25.5181 29.2397C25.8392 28.0487 26.629 27.6477 27.2575 27.6676C28.0111 27.6949 28.6299 28.2684 28.7952 29.0972C28.8987 29.6208 28.941 31.0332 27.0589 32.7979C28.5239 37.0897 32.25 43.7786 33.9862 46.6793L33.1049 47.2082C32.452 46.1221 28.058 38.6989 26.2285 33.4986C25.3142 34.2019 24.0846 34.9405 22.4466 35.696C22.0225 35.8901 21.6176 36.0641 21.2309 36.2126C21.7064 36.7028 22.199 37.2972 22.7052 38.0076C29.0946 46.9707 30.1942 48.884 30.2352 48.9617L29.3503 49.4686ZM16.9622 35.0603C16.8032 35.0866 16.6652 35.1376 16.5528 35.2069C16.4047 35.299 16.2675 35.4569 16.3495 35.6123C16.5209 35.9332 17.4086 36.2256 19.1841 35.791C18.2621 35.155 17.4886 34.9732 16.9622 35.0603ZM27.1521 28.6989C26.8835 28.7433 26.6456 29.0418 26.5199 29.5076C26.386 29.9916 26.4783 30.7536 26.7294 31.6921C27.6304 30.7376 27.9191 29.8956 27.7983 29.3016C27.7138 28.8932 27.4573 28.7047 27.2362 28.6962C27.2079 28.6953 27.1796 28.6943 27.1521 28.6989Z" fill="white" fill-opacity="0.25"/>
<path d="M38.8641 46.503L25.8215 52.2676L26.2371 53.2079L39.2797 47.4433L38.8641 46.503Z" fill="white" fill-opacity="0.25"/>
<path d="M39.6134 47.752L26.5708 53.5166L26.9864 54.4569L40.029 48.6923L39.6134 47.752Z" fill="white" fill-opacity="0.25"/>
<path d="M40.3608 48.9996L27.3182 54.7642L27.7338 55.7045L40.7764 49.9399L40.3608 48.9996Z" fill="white" fill-opacity="0.25"/>
<path d="M40.5083 50.5208L28.0757 56.0157L28.4913 56.9561L40.9239 51.4611L40.5083 50.5208Z" fill="white" fill-opacity="0.25"/>
<path d="M138.541 88.1764L116.451 50.913C116.24 50.5712 115.903 50.3001 115.524 50.1677L74.3822 36.6081C73.7249 36.3899 73.0006 36.6005 72.563 37.1449C72.1254 37.6893 72.0755 38.442 72.4299 39.0371L81.1332 53.7187L71.2872 65.9685C64.7065 74.1559 75.6323 87.1083 80.3536 90.9031L84.2528 94.0372C85.5807 95.1045 89.0663 97.2857 93.318 98.9452C94.1819 99.2949 95.1503 98.8669 95.495 98.0065C95.8396 97.1461 95.4049 96.1762 94.541 95.8266C90.9087 94.3891 87.5791 92.4023 86.3777 91.4367L82.4785 88.3026C79.1694 85.6429 68.9947 74.2593 73.9429 68.103L82.9978 56.8375L94.5404 76.3174C94.6374 76.4988 94.7892 76.6552 94.9367 76.7738C95.0843 76.8924 95.2697 77.007 95.4677 77.0628L114.943 83.479L106.848 93.551C104.475 92.5748 101.632 93.2196 99.9492 95.3136C98.2662 97.4076 98.2477 100.322 99.7113 102.429L98.4154 104.042C97.8263 104.775 97.962 105.814 98.6786 106.39C99.4163 106.983 100.457 106.854 101.029 106.143L102.325 104.53C104.697 105.506 107.54 104.862 109.223 102.768C110.906 100.674 110.925 97.7587 109.461 95.6517L118.348 84.5955L136.588 90.6054C137.246 90.8236 137.97 90.613 138.408 90.0686C138.845 89.5241 138.895 88.7715 138.541 88.1764ZM106.61 100.667C105.718 101.777 104.088 101.949 102.97 101.051C101.853 100.153 101.671 98.5241 102.563 97.4143C103.455 96.3045 105.085 96.1325 106.202 97.0304C107.298 97.9113 107.502 99.5571 106.61 100.667ZM118.854 81.2458L109.531 65.6522C109.636 65.5644 109.741 65.4766 109.826 65.3719C110.936 63.9899 110.252 61.8199 108.229 60.1936C106.205 58.5672 103.922 58.3865 102.828 59.7475C102.239 60.4804 102.375 61.5202 103.091 62.0961C103.681 62.5705 104.469 62.5832 105.059 62.1953C105.278 62.268 105.678 62.4174 106.121 62.7731C106.563 63.1289 106.812 63.4668 106.913 63.6861C106.884 63.7658 106.859 63.8835 106.829 63.9632C106.758 64.0091 106.682 64.0171 106.61 64.063C105.819 64.5298 105.55 65.5546 106.044 66.365L113.971 79.5954L97.0447 74.0218L77.5582 41.1599L113.842 53.1239L133.328 85.9858L118.854 81.2458Z" fill="white" fill-opacity="0.25"/>
<path d="M363.014 46.4536L272.494 62.9036C271.086 63.1595 270.202 64.4706 270.448 65.8228L282.229 130.651C282.482 132.043 283.804 132.912 285.172 132.664L319.972 126.34L321.742 136.084L308.547 138.482C307.139 138.738 306.255 140.049 306.5 141.401C306.746 142.753 308.075 143.662 309.443 143.414L325.173 140.555C326.581 140.299 327.465 138.988 327.219 137.636L324.545 122.92C324.292 121.528 322.971 120.659 321.603 120.908L286.803 127.232L275.925 67.3748L361.416 51.8386L372.294 111.696L337.695 117.983C336.287 118.239 335.403 119.55 335.649 120.902L338.323 135.618C338.576 137.01 339.898 137.879 341.266 137.631L356.996 134.772C358.404 134.516 359.288 133.205 359.042 131.853C358.796 130.5 357.468 129.592 356.1 129.84L342.864 132.245L341.093 122.501L375.692 116.214C377.1 115.958 377.984 114.647 377.738 113.295L365.957 48.4662C365.751 47.1066 364.422 46.1977 363.014 46.4536ZM331.523 109.861L324.482 111.14C323.074 111.396 322.19 112.707 322.436 114.059C322.682 115.411 324.011 116.32 325.379 116.072L332.419 114.792C333.827 114.536 334.711 113.225 334.465 111.873C334.22 110.521 332.891 109.612 331.523 109.861ZM327.028 81.4657C328.365 81.9622 329.821 81.2867 330.336 80.0017C330.843 78.677 330.166 77.2387 328.869 76.7349L316.558 72.1108C315.707 71.7724 314.742 71.9479 314.017 72.5316C313.292 73.1153 312.961 74.0383 313.12 74.9133L315.772 89.5096C315.938 90.4244 316.62 91.2043 317.497 91.4558C317.895 91.5889 318.312 91.5953 318.715 91.5222C319.197 91.4345 319.691 91.1803 320.043 90.8288L322.97 87.955L326.31 92.155C326.905 92.9098 327.876 93.2262 328.762 93.0654C329.164 92.9923 329.552 92.8396 329.878 92.575C331.009 91.712 331.177 90.1202 330.317 89.044L325.296 82.6843C325.289 82.6445 325.241 82.6121 325.194 82.5796C325.139 82.5074 325.084 82.4352 325.03 82.3629C324.023 81.3955 322.436 81.3551 321.414 82.3626L319.934 83.8231L318.943 78.3743L327.028 81.4657ZM290.6 110.847C290.852 112.239 292.174 113.108 293.542 112.86L360.808 100.635C362.216 100.38 363.1 99.0686 362.855 97.7163C362.609 96.3641 361.28 95.4551 359.912 95.7037L292.686 107.921C291.278 108.176 290.354 109.495 290.6 110.847Z" fill="white" fill-opacity="0.35"/>
<path d="M862.881 54.4587C863.519 54.1194 863.74 53.3478 863.41 52.7288L849.712 26.9857C849.053 25.7477 849.541 24.2035 850.78 23.5442L854.333 21.6535C854.971 21.3141 855.191 20.5426 854.862 19.9236L854.785 19.7779L860.652 16.6559L867.792 30.0736L864.587 29.2794C863.946 29.1297 863.29 29.4788 863.074 30.0841L861.943 33.1859L857.031 23.9556C856.692 23.3184 855.92 23.0983 855.301 23.4279C854.663 23.7673 854.442 24.5389 854.772 25.1579L861.039 36.937C861.282 37.3922 861.75 37.657 862.266 37.616C862.764 37.5848 863.217 37.2502 863.39 36.7844L865.137 32.0704L870.042 33.2915C870.367 33.3754 870.689 33.321 870.962 33.1756C871.126 33.0883 871.252 32.9743 871.369 32.8421C871.691 32.4371 871.733 31.9008 871.491 31.4457L862.385 14.3322C862.046 13.695 861.274 13.4749 860.654 13.8045L852.509 18.1386C851.872 18.4779 851.651 19.2495 851.98 19.8685L852.058 20.0141L849.634 21.3036C847.138 22.632 846.173 25.7387 847.5 28.2329L861.198 53.976C861.48 54.5501 862.262 54.7884 862.881 54.4587ZM874.878 7.80098L865.166 12.9688C864.528 13.3082 864.308 14.0797 864.637 14.6987C864.967 15.3177 865.748 15.556 866.367 15.2264L874.95 10.6597L891.109 41.027L866.947 53.8836C864.506 55.1828 863.527 58.1331 864.706 60.6126C864.716 60.6309 864.716 60.6308 864.726 60.6491C864.755 60.7037 864.784 60.7583 864.813 60.8129L864.958 61.086C866.286 63.5802 869.402 64.5151 871.898 63.1868L896.97 49.8454C897.608 49.506 897.829 48.7345 897.499 48.1155C897.17 47.4965 896.388 47.2582 895.769 47.5879L870.697 60.9293C869.458 61.5886 867.904 61.1302 867.246 59.8922L867.071 59.5645C867.062 59.5463 867.062 59.5463 867.052 59.5281C866.467 58.2974 866.947 56.8271 868.168 56.1775L893.459 42.7198C894.097 42.3804 894.317 41.6089 893.988 40.9899L876.618 8.3468C876.297 7.6999 875.516 7.46163 874.878 7.80098ZM885.13 0.967538C884.651 1.0352 884.175 1.19508 883.756 1.41809C881.624 2.55249 880.823 5.22134 881.967 7.36963L899.753 40.7956C899.86 40.9958 900.011 41.1488 900.199 41.2824L905.462 44.6258C905.856 44.8833 906.355 44.8982 906.756 44.6849C907.157 44.4716 907.423 44.0495 907.44 43.5969L907.643 37.3447C907.647 37.1324 907.595 36.903 907.489 36.7028L889.702 3.27684C888.829 1.5922 886.987 0.679875 885.13 0.967538ZM904.925 41.244L902.383 39.6299L905.007 38.2337L904.925 41.244ZM904.105 35.7932L900.917 37.4899L886.947 11.2371L890.136 9.54033L904.105 35.7932ZM888.925 7.2646L885.736 8.96136L884.244 6.15765C883.77 5.26557 884.093 4.15921 884.985 3.68412C885.168 3.58716 885.351 3.53631 885.544 3.50367C886.316 3.37309 887.065 3.76907 887.433 4.46089L888.925 7.2646Z" fill="white" fill-opacity="0.25"/>
</svg>
