<svg width="1272" height="240" viewBox="0 0 1272 240" fill="none" xmlns="http://www.w3.org/2000/svg">
<path d="M1272 0H0V240H1272V0Z" fill="#101336"/>
<mask id="mask0_0_1" style="mask-type:luminance" maskUnits="userSpaceOnUse" x="0" y="0" width="1272" height="240">
<path d="M1272 0H0V240H1272V0Z" fill="white"/>
</mask>
<g mask="url(#mask0_0_1)">
<path d="M433.1 251L-29.9394 -14L-32.8867 251.923L351.971 246.769L433.1 251Z" fill="#232F43"/>
<path d="M1289.69 255.461L889.16 -39.3081L1318.85 -39.4619L1289.69 255.461Z" fill="#232F43"/>
<path d="M350.885 240.603L-32.8867 73.4697V248.615C-32.8867 248.615 347.938 240.603 350.885 240.603Z" fill="#FF2D30"/>
<path d="M3.56694 169.153L-32.8867 248.615L317.844 231.538L3.56694 169.153Z" fill="#FF2D30"/>
<path d="M1278.36 71.6149L1094.7 -8.1543H1279.6C1279.6 -8.1543 1278.36 72.6149 1278.36 71.6149Z" fill="#FF2D30"/>
</g>
<path d="M270.8 90.6216C271.868 90.4868 272.584 89.5292 272.453 88.4929L267.011 45.3915C266.749 43.3187 268.246 41.4265 270.32 41.1646L276.269 40.4134C277.337 40.2786 278.053 39.321 277.922 38.2847L277.891 38.0408L287.715 36.8004L290.551 59.2655L286.509 56.4624C285.696 55.9147 284.598 56.0534 283.977 56.7821L280.758 60.5021L278.807 45.0478C278.672 43.9809 277.714 43.2658 276.677 43.3967C275.609 43.5316 274.893 44.4891 275.024 45.5255L277.514 65.2472C277.611 66.0093 278.122 66.626 278.863 66.8422C279.572 67.0622 280.381 66.8363 280.868 66.2793L285.797 60.6401L291.98 64.938C292.389 65.2271 292.866 65.3217 293.323 65.2639C293.598 65.2292 293.834 65.1374 294.067 65.0152C294.73 64.6218 295.072 63.8972 294.976 63.1352L291.358 34.4823C291.223 33.4154 290.265 32.7002 289.228 32.8312L275.591 34.5532C274.523 34.688 273.807 35.6455 273.938 36.6819L273.969 36.9257L269.912 37.4381C265.732 37.9658 262.743 41.7808 263.27 45.9568L268.712 89.0581C268.801 90.0069 269.763 90.7526 270.8 90.6216ZM312.214 32.0036L295.953 34.0568C294.886 34.1917 294.17 35.1491 294.301 36.1855C294.431 37.2219 295.393 37.9676 296.431 37.8366L310.8 36.0222L317.22 86.8659L276.767 91.974C272.679 92.4902 269.754 96.0802 270.083 100.157C270.087 100.188 270.087 100.188 270.091 100.218C270.102 100.31 270.114 100.401 270.125 100.493L270.183 100.95C270.71 105.126 274.554 108.078 278.734 107.55L320.712 102.249C321.78 102.115 322.496 101.157 322.365 100.121C322.234 99.0844 321.272 98.3388 320.235 98.4698L278.257 103.77C276.182 104.032 274.262 102.572 274 100.499L273.931 99.9502C273.927 99.9197 273.927 99.9197 273.923 99.8892C273.761 97.8659 275.208 96.0728 277.252 95.8147L319.596 90.4677C320.664 90.3329 321.38 89.3754 321.249 88.339L314.348 33.6851C314.244 32.6143 313.282 31.8687 312.214 32.0036ZM330.108 27.9169C329.406 27.7578 328.659 27.7283 327.957 27.8169C324.388 28.2676 321.859 31.5598 322.313 35.1567L329.38 91.1214C329.422 91.4567 329.552 91.75 329.743 92.0355L335.301 99.4782C335.714 100.046 336.401 100.33 337.072 100.246C337.743 100.161 338.337 99.7142 338.6 99.0927L342.194 90.4943C342.312 90.2007 342.361 89.8538 342.319 89.5185L335.252 33.5539C334.928 30.7457 332.847 28.5001 330.108 27.9169ZM336.344 94.4846L333.659 90.8908L338.052 90.336L336.344 94.4846ZM338.089 86.4603L332.751 87.1345L327.2 43.1796L332.539 42.5055L338.089 86.4603ZM332.058 38.6952L326.719 39.3694L326.126 34.6752C325.938 33.1816 326.974 31.8121 328.469 31.6233C328.774 31.5848 329.056 31.6111 329.342 31.6679C330.486 31.895 331.319 32.8427 331.465 34.001L332.058 38.6952Z" fill="white" fill-opacity="0.2"/>
<path d="M882.596 167.08C883.607 167.451 884.683 166.93 885.043 165.949L900.021 125.169C900.741 123.208 902.94 122.215 904.903 122.936L910.531 125.003C911.541 125.374 912.617 124.853 912.977 123.873L913.062 123.642L922.356 127.055L914.55 148.311L912.248 143.963C911.778 143.103 910.739 142.722 909.853 143.083L905.284 144.908L910.655 130.286C911.025 129.276 910.503 128.201 909.522 127.84C908.512 127.469 907.436 127.991 907.076 128.971L900.222 147.631C899.957 148.352 900.128 149.135 900.686 149.667C901.216 150.189 902.037 150.359 902.726 150.089L909.696 147.346L913.212 154.005C913.442 154.45 913.822 154.753 914.255 154.912C914.514 155.007 914.766 155.035 915.029 155.033C915.799 154.988 916.436 154.502 916.701 153.781L926.658 126.671C927.029 125.662 926.506 124.586 925.525 124.226L912.623 119.487C911.612 119.116 910.536 119.637 910.176 120.618L910.092 120.849L906.253 119.439C902.298 117.986 897.89 120 896.438 123.951L881.461 164.732C881.103 165.615 881.615 166.719 882.596 167.08ZM946.319 134.056L930.934 128.406C929.924 128.035 928.848 128.556 928.488 129.537C928.128 130.517 928.64 131.622 929.621 131.982L943.216 136.975L925.548 185.081L887.274 171.023C883.406 169.603 879.158 171.447 877.576 175.219C877.566 175.248 877.566 175.248 877.555 175.276C877.523 175.363 877.491 175.449 877.46 175.536L877.301 175.969C875.85 179.92 877.907 184.308 881.861 185.761L921.578 200.348C922.589 200.719 923.665 200.198 924.025 199.217C924.385 198.237 923.873 197.132 922.892 196.772L883.174 182.185C881.212 181.464 880.178 179.284 880.898 177.323L881.089 176.803C881.099 176.775 881.099 176.775 881.11 176.746C881.896 174.874 884.005 173.947 885.939 174.657L926.003 189.372C927.013 189.743 928.089 189.222 928.449 188.241L947.441 136.531C947.841 135.532 947.329 134.427 946.319 134.056ZM964.09 138.652C963.539 138.188 962.889 137.818 962.225 137.574C958.848 136.334 955.089 138.096 953.839 141.499L934.391 194.449C934.275 194.767 934.255 195.087 934.294 195.428L935.809 204.593C935.914 205.286 936.393 205.855 937.028 206.088C937.663 206.321 938.397 206.198 938.915 205.767L946.06 199.782C946.299 199.576 946.503 199.29 946.619 198.973L966.067 146.023C967.07 143.38 966.254 140.429 964.09 138.652ZM939.03 200.637L938.297 196.211L942.454 197.738L939.03 200.637ZM944.269 194.313L939.217 192.458L954.492 150.87L959.543 152.726L944.269 194.313ZM960.867 149.121L955.816 147.265L957.447 142.824C957.966 141.411 959.516 140.671 960.93 141.19C961.218 141.296 961.457 141.449 961.685 141.631C962.597 142.359 962.901 143.583 962.498 144.679L960.867 149.121Z" fill="white" fill-opacity="0.2"/>
</svg>
