<svg width="217" height="190" viewBox="0 0 217 190" fill="none" xmlns="http://www.w3.org/2000/svg">
<g filter="url(#filter0_f_0_1)">
<ellipse cx="119" cy="95" rx="38" ry="35" fill="white"/>
</g>
<path d="M83.8798 93.0516C82.0868 95.0077 79.6417 96.6377 78.3377 98.5938C79.9677 96.6377 82.5758 95.0077 83.8798 93.0516Z" fill="#FFECCF"/>
<path d="M37.5865 98.5939C40.8466 99.8979 44.2697 100.876 47.5298 102.343C49.1599 102.995 50.4639 104.136 52.0939 104.951C53.887 105.929 55.8431 106.581 57.6361 107.396C59.4291 108.211 61.2222 109.189 63.1782 109.841C67.0904 105.44 71.6545 101.691 76.0556 97.7789C78.1747 95.8228 80.2937 93.5407 82.4128 91.7477C84.6949 89.7916 86.6509 87.6726 88.77 85.5535C90.889 83.5975 93.1711 81.6414 95.1271 79.5224C97.2462 77.4033 99.8543 75.7732 101.973 73.8172C104.092 71.8611 106.048 69.5791 108.167 67.46C110.287 65.341 112.732 63.7109 114.362 61.1028C111.754 59.1468 108.657 58.0057 105.722 56.3757C103.603 55.2347 101.321 53.9306 99.3653 52.7896C98.5502 52.3006 97.7352 52.1376 96.9202 51.8116C95.2901 50.9966 93.8231 49.8555 92.1931 49.0405C90.889 48.3885 89.259 48.0625 87.9549 47.4105C86.6509 46.7584 85.3469 46.1064 83.8798 45.6174C79.6417 43.8244 75.8926 41.7053 71.3285 40.4013C72.3065 42.6833 73.9365 44.8024 75.2406 47.0844C75.5666 47.7365 75.8926 48.5515 76.2186 49.2035C76.5446 49.8555 77.5227 50.5075 76.8706 51.3226C76.0556 51.6486 75.8926 50.8335 75.7296 50.3445C73.6105 46.9214 71.6545 43.3353 69.8614 39.9122C69.2094 39.7492 68.3944 39.2602 67.7424 39.4232C69.5354 42.3573 70.1874 46.4324 71.8175 49.5295C72.3065 50.3445 73.2845 50.6705 73.1215 51.8116C71.8175 51.8116 71.1655 50.3445 70.6765 49.3665C69.0464 45.9434 68.2314 41.5423 66.2753 38.6082C65.4603 38.6082 64.4823 37.7932 63.8303 38.4452C65.4603 40.5643 66.2753 43.4983 67.4164 46.1064C68.2314 48.0625 69.2094 50.1815 70.0244 51.9746C70.3505 52.4636 70.8395 53.2786 70.5135 53.9306C69.0464 53.7676 68.7204 51.8116 68.2314 50.6705C67.0904 47.8995 65.9493 45.2914 64.9713 42.8463C64.3193 41.5423 63.5043 40.2383 63.3413 38.7712C60.7332 40.4013 58.6141 43.0093 56.0061 44.8024C49.9749 49.0405 44.1067 53.9306 38.0756 58.6578C33.6744 62.2439 29.9253 66.645 25.1982 69.5791C23.5682 70.5571 22.1011 71.8611 20.4711 72.8392C17.863 74.4692 15.2549 76.4253 12.9729 78.5443C10.6908 80.6634 7.91972 82.2934 5.80066 84.4125C14.4399 86.8576 22.2641 90.9327 29.7623 94.5188C32.3704 96.1488 34.9785 97.6158 37.5865 98.5939ZM96.7572 53.1156C97.2462 52.9526 97.8982 54.7457 98.0612 55.2347C98.8762 56.7017 99.8543 57.8427 100.669 59.3098C100.995 59.9618 101.647 60.7768 101.321 61.4288C100.18 61.5919 100.017 60.4508 99.6913 59.7988C98.8762 58.4948 98.0612 57.3537 97.2462 55.8867C97.0832 55.3977 95.4531 53.2786 96.7572 53.1156ZM94.1491 53.1156C94.9641 53.1156 95.6161 55.0717 95.9422 56.0497C96.9202 58.3318 97.8982 60.2878 98.8762 62.4069C99.3653 63.3849 100.506 64.3629 100.017 65.504C98.8762 65.341 98.5502 63.8739 98.0612 62.8959C97.0832 60.9398 96.1052 58.9838 95.1271 56.8647C94.6381 55.7237 93.9861 54.7457 93.8231 53.6046C93.8231 53.2786 93.9861 53.1156 94.1491 53.1156ZM91.541 52.7896C92.1931 52.6266 93.1711 55.3977 93.4971 56.0497C94.6381 58.4948 95.7792 60.6138 96.9202 63.0589C97.4092 64.1999 98.3872 65.341 98.0612 66.645C97.2462 66.808 97.0832 65.83 96.7572 65.341C95.4531 62.7329 94.1491 59.6358 92.6821 56.8647C92.3561 56.0497 90.4 53.1156 91.541 52.7896ZM89.096 51.9746C89.748 51.8116 91.052 54.4197 91.378 55.0717C92.0301 56.2127 92.6821 57.5167 93.1711 58.4948C93.8231 59.7988 94.1491 61.1028 94.8011 62.4069C95.2901 63.5479 96.1052 65.178 95.4531 66.319C94.3121 66.156 94.6381 65.1779 94.4751 64.5259C93.6601 61.7549 91.704 58.1688 90.237 55.3977C89.748 54.5827 87.9549 52.3006 89.096 51.9746ZM55.517 101.691C54.539 101.528 54.539 100.061 54.213 98.9199C53.887 98.1049 52.746 95.6598 53.724 95.4968C54.376 95.3338 55.028 97.7789 55.191 98.4309C55.517 99.5719 56.1691 100.713 55.517 101.691ZM60.8962 105.929C59.5922 105.766 59.5922 104.136 59.2662 103.158C57.4731 97.4528 56.3321 91.9107 54.376 86.2055C53.724 84.2495 52.583 81.3154 52.42 79.6854C52.42 79.5223 52.583 79.3593 52.746 79.3593C53.561 79.1963 53.887 81.4784 54.213 82.4564C56.0061 87.8356 57.7991 93.3777 59.2662 99.0829C59.5922 100.224 59.9182 101.365 60.2442 102.506C60.4072 103.81 61.2222 104.951 60.8962 105.929ZM63.5043 104.788C62.5262 104.625 62.6892 103.484 62.5262 102.995C61.5482 99.4089 60.4072 95.8228 59.2662 92.0737C58.7771 90.4436 58.1251 88.9766 58.2881 87.5096C58.2881 87.3466 58.4511 87.1836 58.6141 87.1836C59.4292 87.0206 59.4291 88.4876 59.5922 89.3026C60.0812 91.4217 61.0592 93.8667 61.7112 95.9858C62.3632 98.2679 63.1782 100.387 63.8303 102.669C63.6673 103.158 64.1563 104.299 63.5043 104.788ZM66.4383 102.017C65.2973 101.854 65.2973 100.387 64.8083 99.4089C63.8303 96.4748 62.3632 92.5627 62.0372 88.9766C62.0372 88.8136 62.2002 88.6506 62.3632 88.6506C63.3413 88.6506 63.3413 90.9327 63.6673 91.9107C64.3193 94.3558 64.9713 96.4748 65.7863 98.7569C66.1123 99.8979 67.0904 101.039 66.4383 102.017ZM68.2314 100.387C67.2534 100.061 67.4164 98.7569 67.2534 97.9419C66.7643 95.4968 65.2973 92.2367 65.4603 89.6286C65.4603 89.4656 65.6233 89.3026 65.7863 89.3026C66.7643 89.1396 66.6014 91.0957 66.7644 92.0737C67.2534 94.1928 67.9054 95.4968 68.3944 97.6158C68.5574 98.4309 69.0464 99.7349 68.2314 100.387ZM70.3504 97.4528C69.5354 97.2898 69.8614 96.6378 69.6984 95.9858C69.3724 94.3558 68.2314 92.2367 68.7204 90.9327C69.6984 90.7697 69.5354 91.7477 69.6984 92.7257C69.8614 93.7037 70.5135 95.0078 70.6765 95.6598C70.8395 96.3118 71.0025 97.2898 70.3504 97.4528ZM78.1747 43.6614C78.5007 44.3134 79.4787 45.7804 78.6637 46.4324C77.6857 46.4324 76.7076 43.8244 78.1747 43.6614ZM75.2406 45.4544C74.7516 44.1504 73.7735 43.1723 73.4475 42.0313C74.4256 40.7273 75.5666 43.6614 76.2186 44.8024C76.8706 46.2694 77.6857 47.7365 77.3596 48.7145C75.7296 48.3885 75.7296 46.5954 75.2406 45.4544ZM62.3632 40.8903C62.8522 41.8683 63.1783 43.0093 63.6673 44.1504C64.6453 46.2694 65.4603 48.2255 66.4383 50.5075C66.7643 51.4856 67.7424 52.6266 67.0904 53.7676C65.9493 53.2786 65.7863 51.8116 65.4603 50.8336C64.9713 49.6925 64.4823 48.7145 64.1563 47.5735C63.3413 45.4544 61.7112 43.4983 61.7112 41.2163C61.8742 40.8903 62.0372 40.7273 62.3632 40.8903ZM62.3632 60.7768C64.1563 61.5919 66.7643 61.9179 68.2314 63.0589C69.6984 63.0589 70.1874 64.1999 71.1655 64.8519C71.8175 65.1779 72.6325 65.341 73.2845 65.667C74.2626 66.156 74.7516 67.297 75.7296 67.623C76.3816 67.949 79.1527 68.438 79.3157 69.0901C79.3157 70.2311 77.6857 69.4161 77.5227 69.2531C76.7076 68.9271 75.8926 68.764 75.4036 68.601C74.4256 68.112 74.0996 67.297 73.2845 66.808C72.6325 66.319 71.6545 66.156 71.0025 65.83C70.3505 65.341 69.8614 64.6889 69.2094 64.3629C68.8834 64.1999 68.5574 64.3629 68.2314 64.1999C67.9054 64.0369 67.5794 63.7109 67.2534 63.5479C64.8083 62.4069 62.0372 62.4069 60.7332 60.7768C60.8962 59.6358 61.7112 60.4508 62.3632 60.7768ZM58.1251 64.6889C59.4291 64.8519 60.7332 65.504 62.2002 65.993C63.5043 66.482 65.1343 66.645 66.2753 67.134C66.7644 67.297 67.0904 67.786 67.5794 68.112C68.3944 68.438 69.2094 68.601 70.0244 68.9271C71.3285 69.5791 72.6325 71.2091 74.0996 71.8611C74.7516 72.0241 75.2406 72.6762 76.0556 73.0022C76.7076 73.3282 77.6857 73.1652 77.6857 73.9802C77.6857 74.6322 76.8706 74.7952 76.2186 74.6322C75.7296 74.4692 75.4036 73.8172 74.9146 73.4912C74.5886 73.3282 73.9365 73.1652 73.6105 73.0022C73.2845 72.8392 72.9585 72.3502 72.6325 72.0241C72.1435 71.6981 71.4915 71.5351 71.0025 71.2091C70.5135 70.8831 70.1874 70.2311 69.3724 69.9051C68.8834 69.5791 68.0684 69.4161 67.5794 69.2531C66.9274 68.9271 66.4383 68.438 65.9493 68.275C63.0153 66.971 59.9182 66.971 57.4731 65.504C57.6361 65.0149 57.7991 64.6889 58.1251 64.6889ZM54.376 68.9271C55.354 68.601 57.1471 69.4161 58.7771 69.9051C60.0812 70.2311 61.5482 70.8831 62.5262 71.5351C63.3413 72.0241 63.8303 72.6762 64.6453 73.1652C66.2753 73.9802 67.9054 74.3062 68.7204 75.7732C69.3724 75.7732 69.5354 76.4253 70.3504 76.7513C71.6545 77.4033 74.2626 77.0773 74.0996 78.8703C73.2845 79.3593 72.9585 78.5443 72.3065 78.3813C70.6765 77.7293 69.2094 77.5663 67.9054 76.5883C67.4164 76.2623 67.0904 75.4472 66.2753 75.1212C65.7863 74.9582 65.2973 74.9582 64.8083 74.6322C63.5043 74.1432 63.0153 73.3282 61.8742 72.5132C60.4072 71.3721 57.9621 71.0461 55.843 70.3941C55.354 70.0681 53.724 69.9051 54.376 68.9271ZM49.8119 73.9802C51.2789 74.4692 52.583 76.0993 54.376 76.9143C55.191 77.2403 56.3321 77.4033 57.3101 77.8923C58.1251 78.2183 59.1031 78.8703 59.9182 79.0333C61.0592 79.1963 62.3632 79.0333 63.1782 79.5224C63.8303 79.8484 64.3193 80.6634 64.9713 81.1524C65.9493 81.9674 67.9054 81.9674 67.9054 83.2715C66.7644 83.4345 65.7863 82.7824 64.6453 82.2934C63.8303 81.8044 63.3413 80.8264 62.5262 80.5004C61.8742 80.1744 60.5702 80.3374 59.7552 80.1744C58.7771 80.0114 57.9621 79.3593 56.8211 78.8703C54.539 78.0553 53.398 77.7293 51.2789 76.2623C50.6269 75.7732 48.9969 74.7952 49.1599 74.4692C49.1599 73.6542 49.8119 73.9802 49.8119 73.9802Z" fill="#F3632C"/>
<path d="M60.0809 111.145C61.0589 111.797 62.1999 112.286 63.341 112.775C63.341 112.449 63.178 112.449 63.178 112.123C61.8739 112.286 61.2219 110.982 60.0809 111.145Z" fill="#FFECCF"/>
<path d="M82.9016 105.929C84.6947 103.973 86.3248 101.691 87.9548 99.572C90.3999 96.3119 93.1709 93.3778 95.779 90.2807C98.3871 87.1836 101.158 84.2495 103.766 81.1525C107.189 77.0773 111.101 73.3282 114.525 69.0901C113.873 68.1121 114.688 65.83 113.383 65.504C113.383 66.156 113.22 66.4821 112.894 66.8081C112.242 67.6231 111.264 68.2751 110.449 69.0901C108.819 70.7202 107.189 72.1872 105.722 73.9803C104.907 74.7953 104.255 75.7733 103.44 76.5883C101.973 78.2184 100.18 79.6854 98.7131 81.4785C94.312 86.6946 90.2369 92.3998 85.1837 96.9639C83.5537 98.4309 82.0866 100.224 80.4566 101.854C78.8265 103.484 77.0335 104.951 75.5664 106.581C73.1214 109.189 70.8393 112.286 68.5573 114.894C68.2312 115.22 68.0682 116.035 67.4162 116.035C66.4382 114.894 68.0682 114.079 68.5573 113.264C70.6763 110.656 72.6324 107.885 74.9144 105.603C77.8485 102.343 81.1086 99.083 84.2057 96.1489C90.7259 89.9547 95.779 82.6195 101.973 76.5883C99.6911 78.2184 97.7351 80.5004 95.616 82.4565C94.475 83.5975 93.3339 84.7386 92.1929 86.0426C91.0519 87.1836 89.7478 88.1617 88.6068 89.3027C87.6288 90.2807 86.9768 91.5847 85.9987 92.5628C85.0207 93.5408 84.0427 94.5188 83.0647 95.4969C76.7075 100.876 71.0023 107.396 65.9492 113.916C67.2532 113.916 66.4382 115.872 67.2532 116.361C67.7422 116.524 68.8833 116.035 69.3723 116.524C69.5353 117.176 69.2093 117.502 69.2093 118.154C69.6983 118.48 70.1873 118.317 71.0023 118.643C71.6543 118.97 72.6324 119.948 72.7954 119.948C73.1214 119.948 74.5884 118.154 75.2404 117.502C76.2185 116.524 76.8705 115.546 77.5225 114.731C79.3156 112.612 80.6196 110.982 82.0866 109.352C84.8577 106.092 87.3028 102.832 89.7478 99.572C90.0739 99.083 90.5629 98.7569 91.0519 98.2679C91.3779 97.9419 91.5409 97.2899 91.7039 97.1269C92.5189 96.1489 93.66 95.1708 94.638 94.1928C96.268 92.5628 97.5721 91.0957 99.0391 89.4657C99.5281 88.9767 100.017 88.4877 100.506 87.8356C103.44 84.7386 106.211 81.3155 108.982 78.3814C110.938 76.2623 113.057 74.4693 114.525 72.1872C114.362 72.1872 114.362 71.6982 114.362 71.2092C112.405 72.8392 110.775 74.9583 108.982 76.9143C105.396 80.8265 102.136 84.9016 98.3871 88.6507C96.594 90.6067 95.127 92.7258 93.3339 94.6818C89.9108 98.5939 86.8138 103.158 83.2277 106.907C82.2496 107.885 81.2716 108.7 80.2936 109.678C78.3375 111.471 76.7075 113.427 74.9144 115.546C74.2624 116.361 73.1214 118.154 71.9804 117.665C72.4694 116.361 73.4474 115.383 74.4254 114.405C77.1965 111.471 80.1306 108.863 82.9016 105.929ZM72.3064 114.731C71.9803 113.264 73.4474 112.449 74.0994 111.471C76.5445 108.374 78.8265 105.44 81.2716 102.506C84.5317 98.5939 87.7918 94.3558 91.5409 90.9327C99.2021 84.0865 105.233 75.6103 112.731 68.7641C112.894 68.9271 113.057 68.9271 113.22 68.9271C113.384 68.9271 113.383 68.9271 113.547 68.9271C113.873 70.5572 112.079 70.7202 111.427 71.6982C109.471 73.3282 108.004 75.1213 106.374 76.9143C101.647 82.2935 96.757 87.6726 91.5409 92.8888C89.7478 94.6818 88.1178 96.3119 86.4878 98.1049C84.8577 99.898 83.5537 102.017 81.9236 103.81C79.4786 106.581 77.3595 109.352 74.9144 112.286C74.0994 113.101 73.4474 114.405 72.3064 114.731Z" fill="#FFECCF"/>
<path d="M68.0682 117.502C67.7422 117.502 67.5792 117.502 67.5792 117.665C67.9052 117.828 68.0682 117.828 68.0682 117.502Z" fill="#FFECCF"/>
<path d="M64.3192 112.123C64.9712 112.123 65.1342 112.286 65.4602 112.612C69.0463 108.048 73.1214 103.484 77.0335 99.4086C74.7514 101.365 72.6324 103.484 70.3503 105.44C68.0683 107.396 65.9492 109.678 64.3192 112.123Z" fill="#FFECCF"/>
<path d="M6.45253 93.5407C7.59357 93.3777 9.38662 94.3558 10.8537 94.6818C12.3207 95.1708 13.7877 95.8228 14.9288 95.9858C18.1889 96.6378 21.1229 97.1268 24.057 97.9419C26.8281 98.7569 29.5992 99.7349 32.3703 100.713C38.0754 102.669 43.4546 104.788 48.6707 106.418C45.0846 105.114 41.9875 102.832 38.2384 101.365C35.3043 100.224 32.0442 99.5719 28.9472 98.5939C24.546 97.2898 20.4709 95.8228 16.2328 94.3557C12.8097 93.0517 9.38662 91.7477 5.80052 90.7697C6.77854 91.9107 5.63751 93.2147 5.63751 93.8667C5.63751 93.5407 5.96352 93.5407 6.45253 93.5407Z" fill="#FFECCF"/>
<path d="M29.4363 106.092C34.0004 108.211 39.2166 110.33 44.9217 110.982C39.8686 109.026 34.1634 108.048 29.4363 106.092C29.2733 105.929 29.1103 106.092 29.4363 106.092Z" fill="#FFECCF"/>
<path d="M13.6246 98.4305C20.9598 100.55 27.6429 101.691 34.1631 104.299C36.9342 105.44 39.8683 106.092 42.1504 106.907C42.6394 107.07 42.9654 107.396 43.4544 107.559C44.9214 108.048 46.7145 108.374 48.1815 108.863C49.8116 109.352 51.1156 110.167 52.4196 110.656C53.7237 111.145 54.3757 111.308 55.3537 111.797C56.0057 112.123 56.6578 112.123 57.1468 112.449C58.2878 112.938 60.0808 114.079 60.8959 114.568C62.0369 115.057 65.134 115.546 64.971 116.361C64.808 117.339 63.1779 116.524 63.1779 116.524C61.0589 115.872 58.7768 115.057 56.9838 114.731C54.0497 113.916 51.4416 112.775 48.6705 112.449C54.7017 114.079 60.0808 116.361 66.438 117.665C66.275 117.176 64.971 116.524 65.134 115.22C64.482 115.057 64.156 114.568 63.83 114.242C59.1028 112.123 53.8867 110.656 49.4856 108.374C47.8555 107.559 46.0625 107.07 44.2694 106.255C40.5203 104.788 36.6082 103.484 32.6961 102.18C29.11 101.039 25.6869 99.4086 21.7748 98.5935C16.0696 97.4525 11.0165 95.8225 5.63734 94.5184C5.63734 94.5184 5.47433 94.5184 5.47433 94.6814C5.96335 95.1705 6.45236 95.6595 6.77837 96.3115C6.77837 96.9635 6.94137 97.4525 7.43039 97.6155C7.9194 97.9415 8.08241 97.4525 9.06043 97.4525C10.3645 97.4525 12.1575 97.9415 13.6246 98.4305Z" fill="#FFECCF"/>
<path d="M54.7017 112.775C55.0277 112.612 53.7237 112.286 53.3977 111.96C52.9087 111.96 52.4197 111.634 51.9306 111.634C49.1596 110.004 45.8995 109.515 42.9654 108.374C34.1632 105.114 24.8719 102.017 14.9286 100.061C13.1356 99.5717 11.3425 98.7567 9.54947 98.7567C11.1795 98.9197 12.3205 99.8977 13.7876 100.387C15.9066 101.039 18.3517 101.202 20.7968 101.854C22.2638 102.343 23.8939 102.995 25.3609 103.647C26.991 104.299 28.621 104.625 30.251 105.277C31.8811 105.766 33.3481 106.418 34.9782 106.907C38.4013 107.885 41.8244 108.863 44.9215 110.004C48.3445 111.145 51.6046 111.797 54.7017 112.775Z" fill="#FFECCF"/>
<path d="M3.84442 92.0736C2.54038 91.4216 2.21437 88.8136 2.54038 87.0205C0.258318 91.2586 2.37738 97.2898 5.63747 98.9198C5.47446 96.6378 2.21437 95.0077 3.84442 92.0736Z" fill="#FFECCF"/>
<path d="M45.7368 104.136C46.3888 104.299 47.0408 104.788 47.5298 104.788C46.8778 104.625 46.3888 103.973 45.7368 104.136Z" fill="#FFECCF"/>
<path d="M32.0444 98.2679C30.9033 98.1049 30.0883 97.1269 29.1103 96.6379C28.7843 96.4748 28.2953 96.4749 27.8063 96.3118C26.5022 95.8228 25.3612 95.0078 24.0572 94.5188C20.7971 93.0517 16.722 92.2367 13.4619 90.9327C12.8098 90.6067 12.1578 90.2807 11.5058 89.9547C10.3648 89.6287 8.89774 89.4657 7.5937 89.1396C7.10469 88.9766 6.12666 88.6506 6.12666 87.8356C7.26769 87.6726 8.57173 88.3246 9.87576 88.4876C11.8318 88.9766 13.4619 89.7917 15.2549 90.4437C15.4179 90.2807 14.7659 90.1177 14.6029 89.9547C11.9948 88.6506 8.40872 87.5096 5.14863 86.6946C4.98563 87.6726 4.33361 87.9986 4.49661 89.3026C13.7879 92.0737 22.4271 96.1488 32.0444 98.2679Z" fill="#FFECCF"/>
<path d="M52.0937 108.048C51.4417 107.885 50.3007 107.233 49.9747 107.396C50.6267 107.559 51.2787 108.211 52.0937 108.048Z" fill="#FFECCF"/>
<path d="M25.198 104.788C25.524 104.951 27.806 105.766 26.828 105.277C24.546 104.136 22.2639 103.158 19.6558 102.506C15.5807 101.528 11.8316 100.713 8.40851 99.2458C8.73452 99.5719 8.57151 100.387 8.73452 100.876C12.9726 101.691 16.0697 102.669 19.8188 103.647C21.6119 104.299 23.0789 104.299 25.198 104.788Z" fill="#FFECCF"/>
<path d="M114.851 73.817C114.525 73.817 114.036 74.795 113.547 75.4471C113.058 76.0991 112.406 76.4251 112.08 76.7511C108.168 80.6632 105.07 84.9013 101.484 88.4874C98.7132 91.4215 96.1052 94.3556 93.3341 97.1267C91.5411 98.9197 90.074 101.202 88.444 103.321C86.8139 105.277 85.1839 107.559 83.3908 109.678C81.7608 111.471 80.1307 113.427 78.1747 115.709C77.5227 116.524 76.5446 117.665 75.5666 118.643C74.7516 119.458 73.2845 121.251 72.6325 121.414C71.6545 121.577 70.5135 120.11 69.8615 119.621C68.0684 118.643 66.1124 118.643 63.8303 117.991C60.4072 117.176 56.9841 115.546 53.561 114.731C51.2789 114.079 48.9969 113.264 46.7148 112.612C44.2697 111.96 41.8247 111.471 39.3796 110.819C34.8155 109.678 30.5774 107.396 26.0132 106.092C22.4271 105.114 18.841 104.299 15.0919 103.321C13.2989 103.158 11.6688 102.18 9.87579 102.343C12.6469 102.995 15.4179 103.81 18.189 104.788C20.7971 105.603 23.2422 106.907 26.0132 107.722C28.6213 108.537 31.2294 109.515 34.0005 110.493C38.0756 111.797 41.8247 112.775 45.7368 114.242C46.8778 114.568 48.0189 115.22 49.1599 115.546C51.6049 116.361 53.887 117.176 56.1691 117.991C60.8962 119.784 65.6233 121.251 70.0245 123.207C71.0025 123.696 71.9805 124.511 72.9585 124.674C77.0337 121.088 79.8047 116.524 83.5538 112.612C87.3029 108.7 90.237 104.136 93.8231 100.061C95.6162 98.1047 97.2462 95.9856 99.0393 94.0296C104.581 88.1614 109.798 81.9672 115.666 76.5881C116.644 75.9361 117.296 75.2841 118.111 74.469C118.274 74.143 119.089 73.98 118.437 73.817C117.459 73.491 116.97 74.469 116.318 74.469C115.666 74.469 115.014 73.817 114.851 73.817Z" fill="#FFECCF"/>
<path d="M111.917 124.511C113.221 124.185 114.688 124.674 115.992 124.348C117.459 124.022 118.763 123.044 120.067 122.881C118.926 119.458 117.459 116.361 114.525 114.731C111.917 116.361 110.776 120.762 111.917 124.511Z" fill="#FFECCF"/>
<path d="M119.577 125.163C117.458 125.816 115.828 126.794 113.057 126.468C113.709 128.098 114.85 129.402 115.828 130.869C116.643 130.543 116.48 128.913 117.458 128.913C118.762 129.076 117.132 131.195 116.643 131.847C116.969 132.173 117.295 132.662 117.784 132.825C118.599 131.684 118.925 129.728 120.23 129.076C121.045 129.891 119.904 130.706 119.577 131.358C119.088 132.173 118.762 132.988 118.436 133.803C118.925 134.129 119.251 134.618 119.741 134.944C120.23 133.966 120.556 133.314 121.208 132.173C121.371 131.847 122.186 129.565 122.838 129.728C123.816 129.728 122.675 132.01 122.349 132.499C121.697 133.64 120.882 134.781 120.23 135.596C120.719 135.922 121.045 136.411 121.534 136.9C122.186 135.596 123.327 133.803 123.653 132.499C123.816 132.01 123.653 131.195 124.305 131.195C124.957 131.195 124.794 132.01 124.794 132.662C124.468 133.966 123.001 136.411 122.186 137.389C122.838 137.715 123.49 138.041 123.979 138.53C124.142 137.389 124.631 136.248 125.283 135.27C125.772 134.292 125.935 132.825 127.076 132.499C127.239 132.499 127.402 132.662 127.402 132.825C126.587 134.944 125.772 137.063 124.631 139.019C125.12 139.345 125.609 139.508 126.098 139.671C126.424 138.693 127.565 137.226 127.891 136.085C128.054 135.596 127.728 134.618 128.543 134.618C129.195 134.618 129.032 135.922 129.032 136.411C128.706 137.389 127.565 138.693 127.402 139.671C128.054 139.997 128.869 139.997 129.847 139.997C130.01 139.671 130.01 139.345 130.01 139.019C130.825 138.693 130.825 135.27 131.803 135.27C132.781 135.27 131.966 136.9 131.803 137.552C131.477 138.53 130.988 139.019 130.825 139.997C131.314 139.997 131.64 139.834 132.129 139.671C132.292 138.53 133.107 137.878 133.433 136.9C133.596 134.292 135.226 136.574 134.411 137.552C135.063 136.248 136.367 135.107 136.367 133.314C136.367 132.01 135.552 130.38 135.063 128.913C133.596 125 130.662 120.762 127.728 119.132C127.402 121.251 124.631 122.718 122.838 123.859C121.697 124.511 120.719 124.674 119.577 125.163Z" fill="#FFECCF"/>
<path d="M125.772 117.991C123.327 117.176 122.186 114.242 118.763 115.057C118.274 114.894 118.111 114.079 117.622 114.405C119.415 116.524 121.045 118.806 122.023 121.903C123.49 120.762 125.609 120.436 125.772 117.991Z" fill="#FFECCF"/>
<path d="M129.847 123.044C127.239 119.621 123.816 116.361 119.741 114.731C116.644 113.59 113.383 113.753 111.59 116.85C109.797 120.11 112.079 123.37 114.198 125.652C114.687 126.141 115.991 127.445 117.948 128.749C118.437 130.053 119.089 131.358 119.904 132.173C121.371 133.966 124.794 136.574 127.402 136.248C130.01 137.063 132.292 136.574 133.433 133.151C134.737 130.054 131.803 125.652 129.847 123.044ZM118.6 124.674C118.763 123.859 119.089 123.207 119.741 122.718C119.252 123.859 119.578 125.815 119.904 127.282C119.415 126.467 118.926 125.489 118.6 124.674ZM124.468 131.521C124.631 131.195 124.468 130.706 123.979 130.543C123.653 130.38 123.327 130.38 122.838 130.217C121.697 128.749 119.252 122.066 122.838 123.859C122.675 127.282 123.653 130.869 126.913 132.499C127.076 132.662 127.402 132.662 127.565 132.499C127.402 132.662 127.239 132.662 127.076 132.825C126.261 132.499 125.283 131.847 124.468 131.521ZM122.512 120.762C122.186 120.599 122.023 120.599 121.697 120.436C120.393 119.947 119.252 119.947 118.274 120.436C118.6 119.784 118.926 119.132 119.578 118.969C121.208 118.317 123.49 120.599 124.468 121.577C124.794 121.903 124.957 122.066 125.283 122.392C124.468 121.414 123.49 120.925 122.512 120.762ZM113.383 122.066C112.242 120.11 112.405 118.154 114.035 116.687C115.666 115.057 118.437 116.035 120.23 116.85C120.719 117.013 121.208 117.339 121.534 117.665C118.926 117.013 116.97 118.969 116.481 122.555C116.318 123.207 116.481 124.022 116.807 125C116.807 125.652 117.133 126.304 117.296 126.956C115.666 125.326 114.361 123.696 113.383 122.066ZM131.966 131.847C131.966 130.217 131.151 128.423 130.01 126.956C129.847 126.304 129.521 125.652 129.195 125C129.684 125.815 130.173 126.467 130.662 127.282C131.314 128.586 131.966 130.217 131.966 131.847Z" fill="white"/>
<path d="M114.198 72.5131C113.057 73.9802 111.753 75.2842 110.449 76.5882C112.242 73.8172 113.709 71.0461 114.687 67.949C115.013 66.971 113.709 66.645 113.22 67.297C112.242 68.601 111.264 69.742 110.286 71.0461C110.612 70.3941 110.938 69.742 111.264 69.09C111.264 69.09 111.264 69.09 111.264 68.927C111.264 68.927 111.264 68.764 111.427 68.764C111.753 67.949 110.286 67.297 109.96 68.112C109.308 69.253 108.656 70.5571 108.004 71.6981C106.537 73.9802 104.581 76.0992 102.462 78.0553C103.44 76.9142 104.418 75.7732 105.396 74.6322L105.559 74.4692L105.722 74.3062C106.211 73.4912 105.07 72.6761 104.418 73.3282C102.788 75.1212 101.158 76.9142 99.6909 78.8703C97.4089 81.3154 95.1268 83.5974 93.0077 86.0425C89.4216 89.4656 85.8355 93.0517 82.4125 96.8008C76.2183 100.387 70.5131 105.603 67.579 112.286C67.253 112.938 68.0681 113.753 68.7201 113.427C68.5571 114.079 69.6981 114.731 70.1871 113.916C72.7952 110.33 76.3813 107.559 79.4784 104.299C79.3154 104.462 79.1524 104.625 78.9894 104.788C77.1963 106.581 75.4033 108.537 73.7732 110.493C71.9802 112.449 70.3501 114.568 68.8831 116.687C68.2311 117.665 69.6981 118.317 70.3501 117.502C71.9802 115.383 73.6102 113.264 75.2403 111.145C76.8703 109.352 78.3373 107.722 79.9674 105.929C80.4564 105.44 80.9454 104.951 81.4344 104.462C80.2934 105.929 79.3154 107.396 78.3373 108.863C75.5663 111.96 73.2842 115.546 70.8391 118.969C70.1871 119.784 71.6541 120.599 72.3062 119.784C74.5882 116.361 77.6853 113.264 80.2934 110.004C81.4344 109.026 82.5754 108.048 83.7165 107.07C80.9454 110.982 77.5223 114.568 74.5882 118.317C73.9362 119.132 75.0773 120.273 75.7293 119.458C80.9454 112.938 87.4656 107.233 91.3777 99.7349C91.7037 98.9199 90.7257 98.1048 90.0737 98.7569C89.4216 99.4089 88.7696 100.061 88.1176 100.713C89.4216 99.2459 90.7257 97.6158 92.0297 96.1488C92.3557 96.3118 92.5187 96.1488 92.8447 95.9858C95.4528 93.2147 98.2239 90.4436 100.995 87.6725C102.951 85.8795 104.907 84.0864 106.863 82.2934C105.559 83.9234 104.092 85.5535 102.788 87.1835C100.669 89.6286 98.5499 92.2367 96.2678 94.6817C95.4528 95.6598 94.6378 96.4748 93.8228 97.2898C93.3338 97.7788 92.0297 98.5939 92.5187 98.7569C91.5407 98.4309 91.0517 100.061 92.0297 100.387C93.0077 100.713 94.3118 99.0829 94.9638 98.4308C97.5719 95.8228 99.8539 93.0517 102.136 90.2806C106.7 84.9015 111.753 79.5223 115.339 73.3282C115.991 72.6761 114.85 71.8611 114.198 72.5131ZM103.766 82.4564C103.766 82.2934 103.766 82.1304 103.603 81.9674C105.885 79.1963 108.167 76.2622 110.449 73.4912C108.656 76.7512 106.374 79.6853 103.766 82.4564ZM101.81 81.6414C101.321 82.2934 100.832 82.9454 100.343 83.4344C100.18 83.5974 100.18 83.9234 100.18 84.0865C97.7349 86.5315 95.6158 89.3026 93.4968 92.0737C91.7037 93.8667 89.7476 95.8228 87.7916 97.6158C91.2147 92.5627 94.9638 87.8355 98.8759 83.1084C100.506 81.8044 101.973 80.5004 103.603 79.1963C103.114 80.0113 102.462 80.8264 101.81 81.6414Z" fill="#F99C34"/>
<path d="M99.0392 61.9179C97.5722 63.2219 96.1051 64.363 94.6381 65.667C95.4531 64.363 96.2681 63.0589 97.0832 61.7549C97.4092 61.1029 96.5941 60.1248 95.9421 60.6139C83.8798 69.7421 77.5226 83.9235 67.2533 95.0078C71.4915 88.1616 77.0336 81.9674 80.7827 74.7952C81.1087 74.1432 80.4567 73.1652 79.6417 73.6542C70.5134 79.6854 68.8834 92.2367 60.4071 98.7569C63.1782 91.5847 68.8834 86.2056 72.1435 79.1964C72.4695 78.3813 71.4915 77.4033 70.8394 78.2183C65.4603 84.5755 62.0372 92.2367 56.821 98.5939C59.9181 91.9107 64.3193 85.7166 66.6013 78.5444C66.7643 77.8923 65.9493 77.2403 65.4603 77.5663C63.3412 78.8704 61.7112 80.3374 60.4071 82.1304C60.4071 81.9674 60.5702 81.8044 60.5702 81.6414C60.8962 80.6634 59.5921 80.3374 59.1031 80.9894C58.6141 81.6414 58.1251 82.4565 57.6361 83.1085C57.7991 82.4565 57.7991 81.6414 57.7991 80.9894C57.7991 80.1744 56.9841 80.0114 56.332 80.3374C55.354 81.1524 54.376 82.1304 53.561 82.9455C53.887 82.2934 54.213 81.6414 54.376 81.1524C54.702 80.3374 53.561 79.8484 53.0719 80.3374C50.1379 83.4345 48.0188 87.1836 44.4327 89.4657C44.7587 88.4876 45.2477 87.5096 45.7367 86.6946C46.2258 85.8796 44.9217 85.0645 44.2697 85.8796C43.2917 87.5096 42.6397 89.1396 42.1506 90.9327C41.9876 91.7477 42.6397 92.0737 43.2917 91.9107C46.0627 90.6067 48.1818 88.4876 50.1379 86.2056C48.5078 89.4656 46.7148 92.5627 45.0847 95.6598C44.5957 96.6379 45.8997 97.2899 46.5518 96.4748C49.4858 91.9107 51.9309 86.8576 55.843 82.9455C55.517 84.7385 55.028 86.5316 54.213 88.1616C52.4199 90.9327 50.7899 93.8668 48.9968 96.6379C48.8338 96.9639 48.6708 97.2899 48.3448 97.6159C47.8558 98.5939 49.1598 99.2459 49.8119 98.4309C49.8119 98.5939 49.6488 98.7569 49.6488 98.9199C49.3228 99.7349 50.3009 100.713 50.9529 99.8979C56.169 94.0298 58.2881 85.3905 64.1562 80.3374C61.2222 87.8356 56.332 94.3558 53.724 101.854C53.3979 102.669 54.539 103.158 55.028 102.669C56.332 101.365 57.4731 100.061 58.6141 98.7569C58.4511 99.2459 58.2881 99.7349 58.1251 100.224C57.9621 100.876 58.7771 101.528 59.2661 101.202C61.0592 100.224 62.3632 98.9199 63.6672 97.6159C63.5042 98.1049 63.1782 98.4309 63.0152 98.9199C62.6892 99.7349 63.5042 100.55 64.3193 99.8979C67.0903 97.4529 69.3724 94.8448 71.6545 92.0737C71.4915 92.3997 71.3284 92.5627 71.1654 92.8887C70.6764 93.8668 71.9805 94.5188 72.6325 93.7038C73.9365 91.5847 75.2406 89.6287 76.7076 87.8356C77.0336 87.9986 77.3596 88.1616 77.6856 87.8356C82.2498 82.9455 87.7919 79.1964 92.03 73.9802C92.356 73.6542 92.193 73.3282 92.03 73.0022C94.9641 69.7421 97.7352 66.482 100.18 62.8959C100.995 62.0809 99.6912 61.4289 99.0392 61.9179ZM93.9861 68.6011C90.889 72.1872 87.6289 75.7733 84.2058 79.0334C85.9989 76.9143 87.9549 74.7952 89.748 72.5132C91.052 71.2091 92.519 69.9051 93.9861 68.6011ZM77.0336 77.8923C75.2406 80.8264 73.2845 83.5975 71.1654 86.3686C72.9585 83.2715 74.7515 80.3374 77.0336 77.8923ZM93.1711 65.015C91.704 67.297 90.074 69.4161 88.4439 71.3722C86.1619 73.8172 83.8798 76.0993 81.7607 78.7074C85.1838 73.8172 88.7699 69.0901 93.1711 65.015Z" fill="#E8401C"/>
<path d="M65.46 50.6702C65.949 51.6482 65.949 53.1153 67.0901 53.6043C67.7421 52.6263 66.927 51.3222 66.438 50.3442C65.46 48.2251 64.482 46.1061 63.667 43.987C63.1779 42.846 62.8519 41.868 62.3629 40.7269C62.0369 40.7269 62.0369 40.8899 61.7109 40.8899C61.7109 43.335 63.1779 45.2911 64.156 47.2471C64.482 48.5511 64.971 49.5292 65.46 50.6702Z" fill="#18353F"/>
<path d="M76.0555 44.8023C75.5665 43.6612 74.2624 40.7271 73.2844 42.0312C73.7734 43.1722 74.5884 44.1502 75.0774 45.4543C75.5665 46.5953 75.5664 48.3884 77.0335 48.7144C77.5225 47.7363 76.7075 46.2693 76.0555 44.8023Z" fill="#18353F"/>
<path d="M78.6635 46.4322C79.4785 45.9432 78.6635 44.3132 78.1745 43.6611C76.7074 43.8241 77.6854 46.4322 78.6635 46.4322Z" fill="#18353F"/>
<path d="M94.4748 64.3629C94.6378 65.1779 94.4748 65.9929 95.4529 66.1559C96.1049 64.8519 95.2899 63.3848 94.8008 62.2438C94.3118 60.9398 93.8228 59.6357 93.1708 58.3317C92.6818 57.3537 91.8668 56.0496 91.3777 54.9086C91.0517 54.2566 89.7477 51.6485 89.0957 51.8115C87.9546 51.9745 89.9107 54.4196 90.2367 55.0716C91.5407 58.1687 93.4968 61.7548 94.4748 64.3629Z" fill="#18353F"/>
<path d="M96.7569 65.3409C96.9199 65.8299 97.2459 66.8079 98.0609 66.6449C98.3869 65.3409 97.4089 64.1999 96.9199 63.0588C95.7789 60.6138 94.6378 58.4947 93.4968 56.0496C93.1708 55.3976 92.1928 52.7896 91.5407 52.7896C90.3997 52.9526 92.3558 56.0496 92.6818 56.7017C94.1488 59.6357 95.6159 62.5698 96.7569 65.3409Z" fill="#18353F"/>
<path d="M98.224 62.7325C98.713 63.7106 99.039 65.1776 100.18 65.3406C100.669 64.1996 99.528 63.2216 99.039 62.2435C97.898 60.1245 97.083 58.1684 96.1049 55.8864C95.7789 54.9083 95.1269 52.9523 94.3119 52.9523C94.1489 52.9523 93.9859 53.1153 93.9859 53.2783C94.1489 54.4193 94.8009 55.3973 95.2899 56.5384C96.1049 58.8204 97.083 60.7765 98.224 62.7325Z" fill="#18353F"/>
<path d="M99.691 59.6355C100.18 60.2875 100.343 61.4285 101.321 61.2655C101.647 60.4505 100.995 59.7985 100.669 59.1464C99.854 57.8424 98.8759 56.5384 98.0609 55.0713C97.8979 54.5823 97.2459 52.9523 96.7569 52.9523C95.6158 53.1153 97.0829 55.2343 97.2459 55.7233C98.0609 57.1904 98.8759 58.3314 99.691 59.6355Z" fill="#18353F"/>
<path d="M67.9052 64.1999C68.2312 64.3629 68.5572 64.1999 68.8833 64.3629C69.5353 64.6889 70.0243 65.341 70.6763 65.83C71.3283 66.319 72.3064 66.482 72.9584 66.808C73.9364 67.297 74.0994 68.112 75.0774 68.601C75.7295 68.9271 76.3815 69.0901 77.1965 69.2531C77.5225 69.4161 79.1525 70.0681 78.9895 69.0901C78.9895 68.438 76.2185 67.949 75.4034 67.623C74.5884 67.297 74.0994 66.156 72.9584 65.667C72.3064 65.341 71.4913 65.178 70.8393 64.8519C69.8613 64.1999 69.3723 62.8959 67.9052 63.0589C66.6012 61.9179 63.9931 61.5919 62.0371 60.7768C61.3851 60.4508 60.57 59.6358 60.244 60.7768C61.7111 62.2439 64.4821 62.4069 66.4382 63.3849C67.2532 63.5479 67.5792 64.0369 67.9052 64.1999Z" fill="#18353F"/>
<path d="M67.7421 69.0899C68.3941 69.4159 69.0461 69.5789 69.5351 69.7419C70.1872 70.0679 70.5132 70.7199 71.1652 71.0459C71.6542 71.3719 72.3062 71.535 72.7952 71.861C73.1212 72.187 73.4472 72.513 73.7732 72.839C74.0993 73.002 74.5883 73.165 75.0773 73.328C75.5663 73.654 76.0553 74.306 76.3813 74.469C77.0333 74.632 77.8484 74.469 77.8484 73.817C77.8484 73.002 76.8703 73.165 76.2183 72.839C75.4033 72.513 74.9143 71.861 74.2623 71.698C72.9582 70.8829 71.6542 69.4159 70.1872 68.7639C69.5351 68.4379 68.5571 68.2749 67.7421 67.9489C67.2531 67.6228 66.9271 67.2968 66.438 66.9708C65.134 66.4818 63.667 66.3188 62.3629 65.8298C60.8959 65.3408 59.5919 64.8518 58.2878 64.5258C57.9618 64.5258 57.6358 64.8518 57.6358 65.1778C60.0809 66.6448 63.178 66.6448 66.112 67.9489C66.6011 68.4379 67.0901 68.7639 67.7421 69.0899Z" fill="#18353F"/>
<path d="M81.7605 103.647C83.3905 101.854 84.6946 99.7348 86.3246 97.9418C87.9547 96.1487 89.5847 94.5187 91.3778 92.7256C96.5939 87.5095 101.484 82.2933 106.211 76.7512C107.841 74.9581 109.471 73.1651 111.264 71.535C111.916 70.557 113.872 70.394 113.383 68.764C113.22 68.764 113.22 68.764 113.057 68.764C113.057 68.764 112.894 68.764 112.568 68.601C105.07 75.4471 99.039 83.9234 91.3778 90.7696C87.6287 94.1927 84.3686 98.2678 81.1085 102.18C78.6634 105.114 76.2183 108.211 73.9363 111.145C73.2843 112.123 71.6542 112.938 72.1432 114.405C73.2843 114.079 74.0993 112.775 74.7513 111.96C77.1964 109.189 79.3154 106.418 81.7605 103.647Z" fill="#18353F"/>
<path d="M56.0059 70.394C58.125 71.046 60.5701 71.535 62.0371 72.513C63.3411 73.328 63.8301 74.1431 64.9712 74.6321C65.4602 74.7951 65.9492 74.7951 66.4382 75.1211C67.0902 75.4471 67.4162 76.0991 68.0683 76.5881C69.3723 77.5662 70.8394 77.8922 72.4694 78.3812C73.1214 78.7072 73.4474 79.3592 74.2624 78.8702C74.4254 77.0771 71.9804 77.4031 70.5133 76.7511C69.8613 76.4251 69.5353 75.9361 68.8833 75.7731C68.0683 74.3061 66.2752 73.9801 64.8082 73.165C63.9932 72.676 63.5041 72.024 62.6891 71.535C61.7111 70.883 60.2441 70.394 58.94 69.9049C57.31 69.4159 55.5169 68.6009 54.5389 68.9269C53.7239 69.9049 55.3539 70.0679 56.0059 70.394Z" fill="#18353F"/>
<path d="M51.2789 76.2621C53.398 77.7292 54.539 78.0552 56.8211 78.8702C57.7991 79.1962 58.7772 79.8482 59.7552 80.1742C60.5702 80.3372 61.8742 80.1742 62.5263 80.5002C63.1783 80.8262 63.8303 81.8043 64.6453 82.2933C65.6233 82.9453 66.7644 83.5973 67.9054 83.2713C67.7424 81.9673 65.9493 81.8043 64.9713 81.1522C64.3193 80.6632 63.8303 79.8482 63.1783 79.5222C62.3633 79.1962 61.0592 79.3592 59.9182 79.0332C59.1032 78.8702 58.2881 78.2182 57.3101 77.8922C56.3321 77.5661 55.1911 77.4031 54.376 76.9141C52.583 76.0991 51.2789 74.4691 49.8119 73.98C49.8119 73.98 49.1599 73.654 49.1599 74.4691C48.9969 74.7951 50.6269 75.7731 51.2789 76.2621Z" fill="#18353F"/>
<path d="M59.2659 99.4087C57.7989 93.7036 56.0058 88.1614 54.2128 82.7823C53.8868 81.8042 53.5608 79.5222 52.7457 79.6852C52.5827 79.6852 52.4197 79.8482 52.4197 80.0112C52.5827 81.6412 53.7238 84.5753 54.3758 86.5314C56.3318 92.2365 57.4729 97.7787 59.2659 103.484C59.5919 104.299 59.5919 106.092 60.896 106.255C61.222 105.114 60.407 104.136 60.244 102.995C59.7549 101.691 59.5919 100.55 59.2659 99.4087Z" fill="#18353F"/>
<path d="M61.548 95.9857C60.896 94.0296 59.918 91.5846 59.429 89.3025C59.266 88.4875 59.266 87.0204 58.451 87.1834C58.288 87.1834 58.125 87.3464 58.125 87.5094C57.962 88.9765 58.614 90.4435 59.103 92.0736C60.407 95.8227 61.548 99.4088 62.3631 102.995C62.5261 103.647 62.5261 104.788 63.3411 104.788C63.9931 104.136 63.5041 103.158 63.3411 102.506C63.0151 100.224 62.2001 98.2677 61.548 95.9857Z" fill="#18353F"/>
<path d="M63.6673 91.9104C63.3413 90.9324 63.5043 88.4873 62.3632 88.6503C62.2002 88.6503 62.0372 88.8134 62.0372 88.9764C62.3632 92.5625 63.8303 96.4746 64.8083 99.4086C65.1343 100.387 65.2973 101.854 66.4383 102.017C67.0904 101.039 66.1123 99.8977 65.7863 98.9196C64.9713 96.4746 64.3193 94.5185 63.6673 91.9104Z" fill="#18353F"/>
<path d="M66.7644 92.0735C66.6014 91.0955 66.6014 89.1394 65.7863 89.3024C65.6233 89.3024 65.4603 89.4654 65.4603 89.6284C65.2973 92.2365 66.7644 95.4966 67.2534 97.9417C67.4164 98.7567 67.2534 100.061 68.2314 100.387C69.0464 99.7347 68.5574 98.4307 68.3944 97.6157C67.9054 95.4966 67.2534 94.1926 66.7644 92.0735Z" fill="#18353F"/>
<path d="M69.6981 92.7256C69.5351 91.9106 69.6981 90.7696 68.7201 90.9326C68.2311 92.2366 69.3721 94.3557 69.6981 95.9857C69.8611 96.6377 69.5351 97.2898 70.3501 97.4528C71.0021 97.2898 70.8391 96.3117 70.8391 95.6597C70.5131 95.0077 70.0241 93.7036 69.6981 92.7256Z" fill="#18353F"/>
<path d="M53.5609 95.4964C52.5829 95.6594 53.7239 98.1045 54.0499 98.9195C54.3759 100.061 54.5389 101.528 55.3539 101.691C56.0059 100.876 55.3539 99.5715 54.8649 98.4305C54.8649 97.7785 54.3759 95.3334 53.5609 95.4964Z" fill="#18353F"/>
<path d="M110.123 117.339C108.493 121.251 110.123 125.652 111.59 128.424C113.22 131.195 115.503 133.803 118.437 136.574C121.371 139.182 123.979 141.627 128.054 141.953C129.684 142.116 130.825 141.79 132.129 141.953C133.759 141.138 135.389 140.16 136.53 138.693C137.345 137.552 138.323 135.759 138.486 134.292C138.812 131.684 137.834 130.38 137.019 128.261C136.53 126.794 135.878 125.489 135.226 124.348C134.411 123.044 133.27 121.251 132.292 120.273C130.499 118.317 127.565 116.85 125.283 115.546C124.142 114.894 123.164 113.916 122.186 113.427C121.208 112.938 119.741 112.775 119.089 112.123C118.437 112.123 118.111 112.286 117.785 112.286C115.014 109.841 115.503 104.299 116.97 101.202C119.252 96.3117 124.631 92.8886 128.543 88.9765C131.151 86.3684 133.596 82.2933 133.107 76.7511C132.781 73.328 131.314 72.024 129.195 70.394C128.38 69.7419 127.565 69.0899 126.913 68.7639C125.609 68.1119 124.468 68.2749 122.838 68.1119C121.86 68.1119 120.882 67.7859 119.904 67.9489C119.089 67.9489 117.133 68.7639 116.644 68.2749C116.155 67.7859 116.481 67.1339 116.318 66.1558C116.155 65.6668 115.829 65.1778 115.829 64.8518C115.829 64.6888 115.829 63.5478 115.992 63.2218C116.155 62.4067 116.807 62.4067 116.97 61.5917C116.97 61.1027 116.644 60.7767 116.807 60.1247C114.036 58.0056 110.775 56.7016 107.678 55.2345C104.092 53.4415 100.017 51.1594 96.757 49.2034C94.475 47.8993 92.0299 47.0843 89.5848 46.1063C83.5537 43.4982 78.3375 40.5641 71.8173 38.4451C69.6983 37.793 66.1122 36.326 63.8301 36C63.5041 36.163 63.1781 36.489 63.1781 36.815C52.4198 45.6173 41.0095 53.7675 30.9032 62.8957C29.2731 64.3628 27.4801 65.9928 25.687 67.2969C22.427 69.7419 18.8409 71.698 15.9068 74.3061C14.6027 75.4471 13.2987 76.4251 11.9947 77.5662C9.3866 79.8482 6.61552 81.6413 3.84445 83.7603C3.51844 83.9233 3.51843 84.4123 3.35543 84.7383C2.70341 84.5753 2.2144 84.9014 1.88839 85.2274C0.258345 86.6944 -0.230669 89.7915 0.0953396 92.7256C0.584353 96.9637 3.68144 100.387 6.61552 101.528C6.45252 102.017 6.45252 102.669 6.77853 103.158C9.71261 104.299 12.6467 105.114 15.5808 105.929C18.5149 106.907 21.2859 107.885 24.22 109.026C28.4581 110.656 33.0223 112.123 37.4234 113.427C39.0534 113.916 40.3575 114.568 41.8245 115.057C43.1285 115.546 44.4326 115.709 45.7366 116.198C51.7678 118.317 58.288 120.599 64.3191 122.881C65.4602 123.37 66.6012 123.859 67.9052 124.348C70.0243 125.326 72.1433 126.957 75.0774 126.957C76.0555 125.163 77.6855 123.859 78.9895 122.229C79.9676 121.088 80.9456 119.947 81.7606 118.806C83.5537 116.524 85.6727 114.568 87.6288 112.286C93.3339 105.603 98.3871 98.2677 104.581 92.0736C106.7 89.9545 108.493 87.6724 110.449 85.7164C112.405 83.5973 114.199 81.4783 116.644 79.5222C117.622 78.7072 118.763 77.8922 119.904 76.5881C120.719 75.7731 122.838 74.1431 122.675 73.165C122.512 71.046 119.089 71.861 117.459 71.861C117.459 71.372 117.296 71.209 117.296 70.557C119.904 70.0679 122.838 69.4159 125.772 70.0679C127.402 70.394 129.684 72.35 130.499 73.328C132.292 75.6101 131.966 80.1742 130.825 83.1083C130.173 84.5753 128.869 85.8794 127.728 87.1834C126.587 88.3245 125.283 89.4655 124.142 90.7695C121.697 93.2146 118.763 95.3337 117.133 97.9417C115.992 99.7348 114.851 102.18 114.525 104.299C114.036 107.722 115.014 110.493 115.992 112.449C112.405 113.101 110.938 115.22 110.123 117.339ZM75.0774 115.546C76.8705 113.59 78.5005 111.634 80.4566 109.678C81.4346 108.7 82.4126 107.885 83.3907 106.907C86.9768 103.158 89.9108 98.5937 93.4969 94.6816C95.29 92.7256 96.757 90.4435 98.5501 88.6505C102.136 84.9014 105.559 80.8262 109.145 76.9141C110.938 74.9581 112.568 72.839 114.525 71.209C114.525 71.698 114.525 72.024 114.688 72.35C113.22 74.6321 111.101 76.4251 109.145 78.5442C106.374 81.6413 103.603 84.9014 100.669 87.9984C100.18 88.4875 99.6911 88.9765 99.2021 89.6285C97.8981 91.0955 96.431 92.7256 94.801 94.3556C93.8229 95.3336 92.6819 96.3117 91.8669 97.2897C91.7039 97.4527 91.5409 98.1047 91.2149 98.4307C90.8889 98.9197 90.3998 99.2458 89.9108 99.7348C87.4658 102.995 85.0207 106.255 82.2496 109.515C80.7826 111.308 79.4785 112.775 77.6855 114.894C77.0335 115.709 76.3815 116.524 75.4034 117.665C74.7514 118.317 73.2844 120.11 72.9584 120.11C72.6324 120.11 71.8173 119.132 71.1653 118.806C70.3503 118.48 69.8613 118.643 69.3723 118.317C69.3723 117.665 69.6983 117.339 69.5353 116.687C69.0463 116.035 67.9052 116.687 67.4162 116.524C66.6012 116.198 67.2532 114.079 66.1122 114.079C71.1653 107.559 76.8705 101.039 83.2277 95.6597C84.3687 94.6816 85.3467 93.7036 86.1617 92.7256C87.1398 91.7475 87.7918 90.4435 88.7698 89.4655C89.9108 88.3245 91.2149 87.3464 92.3559 86.2054C93.4969 85.0644 94.638 83.7603 95.779 82.6193C97.8981 80.6632 100.017 78.3812 102.136 76.7511C95.942 82.7823 90.8889 90.1175 84.3687 96.3117C81.2716 99.2458 78.1745 102.506 75.0774 105.766C72.9584 108.048 70.8393 110.819 68.7202 113.427C68.2312 114.079 66.6012 115.057 67.5792 116.198C68.2312 116.198 68.3942 115.383 68.7202 115.057C71.0023 112.286 73.2844 109.352 75.7294 106.744C77.1965 105.114 78.9895 103.647 80.6196 102.017C82.2496 100.387 83.7167 98.7567 85.3467 97.1267C90.3998 92.5626 94.312 86.8574 98.8761 81.6413C100.343 79.8482 102.136 78.5442 103.603 76.7511C104.418 75.9361 105.07 74.9581 105.885 74.1431C107.352 72.513 108.982 70.883 110.612 69.2529C111.427 68.4379 112.405 67.7859 113.057 66.9709C113.383 66.6449 113.71 66.3188 113.547 65.6668C114.851 65.9928 114.036 68.2749 114.688 69.2529C111.264 73.491 107.352 77.0771 103.929 81.3153C101.321 84.4123 98.5501 87.1834 95.942 90.4435C93.4969 93.5406 90.5629 96.4747 88.1178 99.7348C86.4877 101.854 84.8577 104.136 83.0647 106.092C80.2936 109.026 77.1965 111.634 74.5884 114.731C73.7734 115.709 72.6324 116.687 72.1433 117.991C73.2844 118.154 74.2624 116.524 75.0774 115.546ZM68.0682 117.502C68.0682 117.991 67.7422 117.828 67.5792 117.665C67.7422 117.502 67.9052 117.502 68.0682 117.502ZM65.4602 112.775C65.1341 112.449 64.9711 112.286 64.3191 112.286C65.9492 109.841 68.0682 107.559 70.3503 105.603C72.6324 103.647 74.7514 101.528 77.0335 99.5718C73.1214 103.484 69.0463 108.211 65.4602 112.775ZM78.3375 98.5937C79.6416 96.6377 82.2496 95.0076 83.8797 93.0516C82.5756 95.0076 79.9676 96.6377 78.3375 98.5937ZM12.9727 78.8702C15.2548 76.7511 17.6998 74.7951 20.4709 73.165C22.101 72.187 23.568 70.883 25.198 69.9049C29.9252 66.9709 33.6743 62.4067 38.0754 58.9836C44.1066 54.2565 49.9747 49.3664 56.0059 45.1283C58.614 43.3352 60.733 40.8901 63.3411 39.0971C63.5041 40.5641 64.3191 41.8682 64.9711 43.1722C66.1122 45.7803 67.2532 48.3883 68.2312 50.9964C68.7202 51.9744 69.0463 53.9305 70.5133 54.2565C70.8393 53.6045 70.1873 52.7895 70.0243 52.3005C69.2093 50.5074 68.2312 48.3883 67.4162 46.4323C66.2752 43.8242 65.4602 40.8901 63.8301 38.7711C64.4821 38.1191 65.4602 38.7711 66.2752 38.9341C68.2312 41.8682 69.0462 46.2693 70.6763 49.6924C71.1653 50.6704 71.8173 52.1375 73.1214 52.1375C73.2844 50.9964 72.3064 50.6704 71.8173 49.8554C70.1873 46.7583 69.5353 42.8462 67.7422 39.7491C68.2312 39.5861 69.2093 40.0751 69.8613 40.2381C71.6543 43.6612 73.6104 47.4103 75.7294 50.6704C75.8924 50.9964 76.0555 51.9744 76.8705 51.6484C77.3595 50.8334 76.5445 50.1814 76.2185 49.5294C75.8924 48.8774 75.5664 48.0623 75.2404 47.4103C74.0994 45.1283 72.4693 43.0092 71.3283 40.7271C75.8924 42.0312 79.6416 44.1502 83.8797 45.9433C85.1837 46.5953 86.6507 47.2473 87.9548 47.7363C89.4218 48.3883 90.8889 48.7144 92.1929 49.3664C93.8229 50.1814 95.29 51.1594 96.92 52.1375C97.7351 52.4635 98.5501 52.7895 99.3651 53.1155C101.321 54.2565 103.603 55.5605 105.722 56.7016C108.656 58.1686 111.753 59.4727 114.362 61.4287C112.731 63.8738 110.286 65.6668 108.167 67.7859C106.048 69.9049 104.092 72.187 101.973 74.1431C99.8541 76.0991 97.246 77.7292 95.127 79.8482C93.0079 81.9673 90.8889 83.7603 88.7698 85.8794C86.6507 87.9984 84.5317 89.9545 82.4126 92.0736C80.1306 94.0296 78.1745 96.1487 76.0555 98.1047C71.6543 102.017 67.2532 105.929 63.1781 110.167C61.385 109.352 59.592 108.537 57.6359 107.722C55.8429 106.907 53.8868 106.092 52.0938 105.277C50.4637 104.462 49.1597 103.321 47.5297 102.669C44.2696 101.202 40.8465 100.224 37.5864 98.9198C34.9783 97.9417 32.3702 96.4747 29.7622 95.1706C22.101 91.5845 14.4397 87.5094 5.8005 85.0644C8.08256 82.6193 10.6906 80.9893 12.9727 78.8702ZM63.3411 112.775C62.2001 112.286 61.059 111.797 60.081 111.145C61.222 110.982 61.8741 112.123 63.3411 112.123C63.1781 112.449 63.3411 112.449 63.3411 112.775ZM52.0938 108.048C51.4418 108.211 50.6267 107.559 49.9747 107.396C50.3007 107.233 51.4418 107.885 52.0938 108.048ZM5.8005 90.9325C9.3866 91.9106 12.8097 93.2146 16.2328 94.5186C20.3079 95.9857 24.546 97.4527 28.9471 98.7567C32.0442 99.7348 35.3043 100.387 38.2384 101.528C41.9875 102.995 45.0846 105.277 48.6707 106.581C43.4545 104.951 38.0754 102.832 32.3702 100.876C29.5992 99.8978 26.8281 98.9198 24.057 98.1047C21.1229 97.2897 18.1888 96.8007 14.9288 96.1487C13.6247 95.8227 12.3207 95.1706 10.8536 94.8446C9.3866 94.5186 7.59355 93.5406 6.45252 93.7036C6.12651 93.7036 5.8005 93.7036 5.63749 94.1926C5.63749 93.3776 6.77853 92.0736 5.8005 90.9325ZM45.7366 104.136C46.3886 103.973 46.8776 104.625 47.5297 104.788C47.0406 104.788 46.3886 104.299 45.7366 104.136ZM5.14848 86.6944C8.40857 87.6724 11.9947 88.6505 14.6027 89.9545C14.9288 90.1175 15.5808 90.2805 15.2548 90.4435C13.4617 89.7915 11.8317 88.9765 9.87561 88.4875C8.73458 88.1614 7.43054 87.5094 6.12651 87.8354C6.12651 88.6505 7.10453 88.9765 7.59355 89.1395C8.73458 89.4655 10.3646 89.6285 11.5057 89.9545C12.1577 90.2805 12.8097 90.6065 13.4617 90.9325C16.7218 92.2366 20.6339 93.0516 24.057 94.5186C25.361 95.0076 26.5021 95.8227 27.8061 96.3117C28.1321 96.4747 28.6211 96.4747 29.1101 96.6377C30.0882 97.1267 30.9032 98.1047 32.0442 98.2677C22.427 96.1487 13.7877 92.0736 4.65947 89.3025C4.33346 87.9984 4.98548 87.6724 5.14848 86.6944ZM2.70341 87.1834C2.3774 88.8135 2.70341 91.4215 4.00745 92.2366C2.2144 95.1707 5.47449 96.6377 5.8005 99.2458C2.3774 97.2897 0.258345 91.4215 2.70341 87.1834ZM7.75655 97.6157C7.43054 97.4527 7.10454 96.9637 7.10454 96.3117C6.77853 95.6597 6.28951 95.1707 5.8005 94.6816C5.8005 94.5186 5.8005 94.5186 5.9635 94.5186C11.3427 95.8227 16.5588 97.4527 22.101 98.5937C26.0131 99.4088 29.4362 101.039 33.0223 102.18C37.0974 103.484 40.8465 104.788 44.5956 106.255C46.3886 107.07 48.1817 107.559 49.8117 108.374C54.3759 110.656 59.592 111.96 64.1561 114.242C64.4821 114.731 64.8081 115.22 65.4602 115.22C65.2971 116.524 66.4382 117.013 66.7642 117.665C60.244 116.524 55.0279 114.079 48.9967 112.449C51.7678 112.775 54.3758 113.916 57.3099 114.731C59.103 115.22 61.385 115.872 63.5041 116.524C63.6671 116.524 65.2972 117.339 65.2972 116.361C65.2972 115.546 62.2001 115.057 61.222 114.568C60.407 114.242 58.614 112.938 57.4729 112.449C56.8209 112.123 56.1689 112.123 55.6799 111.797C54.5389 111.308 54.0498 111.145 52.7458 110.656C51.4418 110.167 50.1377 109.352 48.5077 108.863C46.8776 108.374 45.2476 108.048 43.7806 107.559C43.2915 107.396 42.8025 107.07 42.4765 106.907C40.1945 106.092 37.2604 105.44 34.4893 104.299C27.9691 101.691 21.1229 100.713 13.9507 98.4307C12.4837 97.9417 10.6906 97.4527 9.5496 97.4527C8.40857 97.6157 8.24557 97.9417 7.75655 97.6157ZM35.1413 106.744C33.5113 106.255 32.0442 105.603 30.4142 105.114C28.7841 104.625 27.1541 104.299 25.524 103.484C24.057 102.832 22.427 102.017 20.9599 101.691C18.6779 101.039 16.2328 100.876 13.9507 100.224C12.4837 99.7348 11.3427 98.9197 9.71261 98.5937C11.5057 98.5937 13.2987 99.4088 15.0918 99.8978C25.035 101.854 34.1633 104.951 43.1285 108.211C46.0626 109.352 49.3227 109.678 52.0938 111.471C52.5828 111.471 53.0718 111.797 53.5608 111.797C53.7238 112.123 55.1909 112.449 54.8649 112.612C51.7678 111.634 48.5077 110.819 45.2476 109.678C41.9875 108.863 38.5644 107.722 35.1413 106.744ZM44.7586 110.982C39.0534 110.33 33.8373 108.374 29.2731 106.092C28.9471 106.092 29.1101 105.929 29.2731 105.929C34.1633 108.048 39.8684 109.026 44.7586 110.982ZM8.24557 99.2458C11.8317 100.713 15.4178 101.691 19.4929 102.506C22.101 103.158 24.546 104.136 26.6651 105.277C27.6431 105.766 25.361 104.951 25.035 104.788C22.916 104.299 21.6119 104.136 19.4929 103.647C15.7438 102.669 12.6467 101.691 8.40857 100.876C8.40857 100.387 8.57158 99.5718 8.24557 99.2458ZM118.437 73.654C119.089 73.8171 118.274 73.8171 118.111 74.3061C117.459 75.1211 116.644 75.9361 115.666 76.4251C109.797 81.9673 104.581 87.9984 99.0391 94.0296C97.246 95.9857 95.616 98.1047 93.8229 100.061C90.2368 104.136 87.4658 108.7 83.5537 112.612C79.8046 116.524 76.8705 121.088 72.9584 124.674C71.8173 124.511 71.0023 123.696 70.0243 123.207C65.4602 121.088 60.733 119.784 56.0059 117.828C53.7238 116.85 51.2788 116.198 48.9967 115.383C47.8557 115.057 46.7146 114.405 45.5736 114.079C41.6615 112.775 37.9124 111.634 33.8373 110.33C31.0662 109.515 28.6211 108.374 25.8501 107.559C23.242 106.744 20.7969 105.603 18.0258 104.625C15.2548 103.647 12.4837 102.995 9.71261 102.18C11.6687 102.017 13.2987 102.995 14.9288 103.484C18.5149 104.299 22.264 105.114 25.8501 106.255C30.4142 107.559 34.6523 109.841 39.2164 110.982C41.6615 111.634 44.1066 112.123 46.5516 112.775C48.8337 113.427 51.1158 114.405 53.3978 114.894C56.8209 115.709 60.244 117.339 63.6671 118.154C65.9492 118.643 67.9052 118.643 69.6983 119.784C70.5133 120.11 71.4913 121.577 72.4694 121.577C73.2844 121.577 74.5884 119.784 75.4034 118.806C76.3815 117.828 77.3595 116.687 78.0115 115.872C79.8046 113.59 81.5976 111.797 83.2277 109.841C85.0207 107.722 86.4877 105.603 88.2808 103.484C89.9108 101.365 91.3779 99.0828 93.1709 97.2897C96.105 94.3556 98.5501 91.4215 101.321 88.6505C104.907 84.9014 108.004 80.8262 111.916 76.9141C112.242 76.5881 112.894 76.0991 113.383 75.6101C113.873 75.1211 114.362 74.1431 114.688 73.9801C115.014 73.9801 115.503 74.4691 116.155 74.4691C117.133 74.3061 117.459 73.328 118.437 73.654ZM127.728 119.295C130.662 120.925 133.596 125 135.063 129.076C135.552 130.543 136.367 132.336 136.367 133.477C136.367 135.27 135.063 136.411 134.411 137.715C135.226 136.574 133.596 134.455 133.433 137.063C132.944 138.041 132.292 138.53 132.129 139.834C131.64 139.997 131.477 140.16 130.825 140.16C130.988 139.182 131.314 138.856 131.803 137.715C131.966 137.063 132.781 135.433 131.803 135.433C130.825 135.433 130.825 138.856 130.01 139.182C129.847 139.508 129.847 139.834 129.847 140.16C128.869 140.16 128.054 140.16 127.402 139.834C127.565 138.856 128.706 137.552 129.032 136.574C129.195 136.085 129.358 134.781 128.543 134.781C127.728 134.781 128.054 135.759 127.891 136.248C127.565 137.389 126.587 138.693 126.098 139.834C125.609 139.671 125.12 139.508 124.631 139.182C125.772 137.389 126.587 135.27 127.402 132.988C127.402 132.825 127.239 132.662 127.076 132.662C125.935 132.988 125.772 134.455 125.283 135.433C124.794 136.411 124.305 137.552 123.979 138.693C123.327 138.204 122.838 137.878 122.186 137.552C123.001 136.574 124.468 134.129 124.794 132.825C124.957 132.336 124.957 131.358 124.305 131.358C123.653 131.358 123.816 132.01 123.653 132.662C123.327 133.966 122.023 135.759 121.534 137.063C121.045 136.737 120.719 136.248 120.23 135.759C120.882 134.944 121.697 133.803 122.349 132.662C122.512 132.173 123.816 130.054 122.838 129.891C122.186 129.891 121.371 132.01 121.208 132.336C120.556 133.477 120.23 134.129 119.741 135.107C119.252 134.781 118.926 134.292 118.437 133.966C118.763 133.314 119.089 132.336 119.578 131.521C119.904 130.869 121.045 130.054 120.23 129.239C118.763 129.891 118.6 131.684 117.785 132.988C117.296 132.825 116.97 132.336 116.644 132.01C117.133 131.358 118.763 129.239 117.459 129.076C116.644 129.076 116.644 130.706 115.829 131.032C114.851 129.728 113.709 128.424 113.057 126.631C115.829 126.957 117.459 125.979 119.578 125.326C120.882 125 121.86 124.674 122.838 124.022C124.631 122.881 127.239 121.251 127.728 119.295ZM118.763 115.057C122.186 114.242 123.327 117.339 125.772 117.991C125.609 120.436 123.327 120.762 121.86 121.903C121.045 118.806 119.252 116.524 117.459 114.405C118.111 113.916 118.274 114.894 118.763 115.057ZM114.525 114.731C117.459 116.361 118.926 119.458 120.067 122.881C118.6 123.044 117.296 124.022 115.992 124.348C114.688 124.674 113.22 124.185 111.916 124.511C110.775 120.762 111.916 116.361 114.525 114.731Z" fill="#18353F"/>
<defs>
<filter id="filter0_f_0_1" x="21" y="0" width="196" height="190" filterUnits="userSpaceOnUse" color-interpolation-filters="sRGB">
<feFlood flood-opacity="0" result="BackgroundImageFix"/>
<feBlend mode="normal" in="SourceGraphic" in2="BackgroundImageFix" result="shape"/>
<feGaussianBlur stdDeviation="30" result="effect1_foregroundBlur_0_1"/>
</filter>
</defs>
</svg>
