<svg width="139" height="139" viewBox="0 0 139 139" fill="none" xmlns="http://www.w3.org/2000/svg">
<path d="M3.63015 105.011C5.67942 105.011 7.26029 103.372 7.26029 101.383V18.662C7.26029 14.6839 10.5391 11.4663 14.5206 11.4663H25.9379C27.9872 11.4663 29.5681 9.82823 29.5681 7.83917V7.3712H48.4214V50.4869L41.4539 44.2273C40.0486 42.9987 37.9408 42.9987 36.5942 44.2273L29.6266 50.4869V20.8266C29.6266 18.779 27.9872 17.1994 25.9965 17.1994C23.9472 17.1994 22.3664 18.8375 22.3664 20.8266V58.6772C22.3664 60.1397 23.1861 61.4268 24.5327 62.0118C25.8208 62.5968 27.4017 62.3628 28.4556 61.4268L39.1118 51.9495L49.7681 61.5438C50.4707 62.1873 51.3489 62.4798 52.2272 62.4798C52.7541 62.4798 53.2226 62.3628 53.691 62.1873C55.0376 61.6022 55.8573 60.3152 55.8573 58.8527V3.8611C55.8573 1.81354 54.2179 0.23395 52.2272 0.23395H26.055C24.0058 0.23395 22.4249 1.87204 22.4249 3.8611V4.32907H14.6377C6.61622 4.32907 0.0585542 10.8228 0.0585542 18.8375V101.559C3.57278e-06 103.372 1.63943 105.011 3.63015 105.011ZM95.8474 4.15361H64.6399C62.5906 4.15361 61.0098 5.79162 61.0098 7.78068C61.0098 9.76974 62.6492 11.4078 64.6399 11.4078H92.2173V108.989H14.5791C6.73333 108.989 0.351304 115.073 0 122.854C0 122.912 0 122.912 0 122.971C0 123.146 0 123.322 0 123.497V124.375C0 132.389 6.55768 138.883 14.5791 138.883H95.1448C97.1941 138.883 98.775 137.245 98.775 135.256C98.775 133.267 97.1355 131.629 95.1448 131.629H14.5791C10.5977 131.629 7.31883 128.411 7.31883 124.433V123.38C7.31883 123.322 7.31883 123.322 7.31883 123.263C7.49448 119.402 10.6562 116.36 14.5791 116.36H95.8474C97.8967 116.36 99.4776 114.722 99.4776 112.733V7.83917C99.5361 5.79161 97.8967 4.15361 95.8474 4.15361ZM130.627 0.701992C129.338 0.233978 127.933 0 126.587 0C119.736 0 114.174 5.61611 114.174 12.5193V119.928C114.174 120.572 114.349 121.157 114.642 121.742L123.366 137.128C124.01 138.298 125.24 139 126.528 139C127.816 139 129.046 138.298 129.69 137.186L138.531 121.8C138.824 121.274 138.999 120.63 138.999 119.987V12.5779C139.058 7.19571 135.662 2.45704 130.627 0.701992ZM126.528 127.943L122.312 120.513H130.744L126.528 127.943ZM131.739 113.201H121.493V28.8413H131.739V113.201ZM131.739 21.5286H121.493V12.5193C121.493 9.65272 123.776 7.31271 126.645 7.31271C127.231 7.31271 127.758 7.42971 128.284 7.60522C130.392 8.30724 131.739 10.2962 131.739 12.5193V21.5286Z" fill="#02C5BD" fill-opacity="0.2"/>
</svg>
