<svg width="1272" height="244" viewBox="0 0 1272 244" fill="none" xmlns="http://www.w3.org/2000/svg">
<path d="M29.8182 31.3434C40.1762 63.7278 68.1453 128.01 103.813 145.857C104.907 146.404 106.038 146.797 107.217 147.127C150.603 159.279 216.457 196.662 145.348 253.415C93.1639 295.064 -75.7032 271.208 -99.9013 115.302C-102.077 76.4764 -87.839 0.182032 -14.8381 -5.42248C-13.7431 -5.50654 -12.6822 -5.41021 -11.5943 -5.34497L-9.75479 -5.30102C-7.98361 -4.9667 -5.83863 -4.88446 -3.6543 -4.24127C8.90582 -0.542896 26.5309 8.58735 28.92 26.8968C29.116 28.3996 29.3518 29.8852 29.8182 31.3434Z" fill="white" fill-opacity="0.15"/>
<path d="M1263.83 -78.4566C1274.19 -46.0722 1302.16 18.2096 1337.83 36.0565C1338.92 36.6039 1340.05 36.9966 1341.23 37.3269C1384.62 49.4791 1450.47 86.8615 1379.36 143.615C1327.18 185.264 1158.31 161.408 1134.12 5.50176C1131.94 -33.3236 1146.18 -109.618 1219.18 -115.222C1220.27 -115.307 1221.33 -115.21 1222.42 -115.145L1224.26 -115.101C1226.03 -114.767 1228.18 -114.684 1230.36 -114.041C1242.92 -110.343 1260.55 -101.213 1262.94 -82.9032C1263.13 -81.4004 1263.37 -79.9148 1263.83 -78.4566Z" fill="white" fill-opacity="0.15"/>
</svg>
