<svg width="267" height="178" viewBox="0 0 267 178" fill="none" xmlns="http://www.w3.org/2000/svg">
<path d="M69.5412 159.176L47.4518 121.913C47.2408 121.571 46.9036 121.3 46.5244 121.168L5.38273 107.608C4.72541 107.39 4.00107 107.6 3.56347 108.145C3.12588 108.689 3.076 109.442 3.43037 110.037L12.1337 124.719L2.28774 136.968C-4.29304 145.156 6.63282 158.108 11.3541 161.903L15.2533 165.037C16.5812 166.104 20.0668 168.286 24.3185 169.945C25.1824 170.295 26.1508 169.867 26.4955 169.007C26.8401 168.146 26.4054 167.176 25.5415 166.827C21.9092 165.389 18.5796 163.402 17.3782 162.437L13.479 159.303C10.1699 156.643 -0.00477248 145.259 4.94343 139.103L13.9983 127.837L25.5408 147.317C25.6379 147.499 25.7897 147.655 25.9372 147.774C26.0847 147.892 26.2702 148.007 26.4682 148.063L45.9435 154.479L37.848 164.551C35.4756 163.575 32.6328 164.22 30.9497 166.314C29.2667 168.408 29.2482 171.322 30.7118 173.429L29.4158 175.042C28.8268 175.775 28.9625 176.814 29.6791 177.39C30.4168 177.983 31.4571 177.854 32.0294 177.143L33.3253 175.53C35.6978 176.506 38.5406 175.862 40.2236 173.768C41.9067 171.674 41.9251 168.759 40.4615 166.652L49.3481 155.596L67.5888 161.605C68.2461 161.824 68.9705 161.613 69.4081 161.069C69.8457 160.524 69.8955 159.771 69.5412 159.176ZM37.6101 171.667C36.718 172.777 35.088 172.949 33.9709 172.051C32.8538 171.153 32.6713 169.524 33.5633 168.414C34.4553 167.304 36.0853 167.133 37.2024 168.03C38.2984 168.911 38.5021 170.557 37.6101 171.667ZM49.8548 152.246L40.5315 136.652C40.6367 136.564 40.7419 136.477 40.8261 136.372C41.9369 134.99 41.2526 132.82 39.2292 131.194C37.2058 129.567 34.9225 129.386 33.8285 130.748C33.2395 131.48 33.3752 132.52 34.0918 133.096C34.6819 133.57 35.4697 133.583 36.0591 133.195C36.2782 133.268 36.6785 133.417 37.1211 133.773C37.5637 134.129 37.8126 134.467 37.9138 134.686C37.8844 134.766 37.8592 134.883 37.8298 134.963C37.7583 135.009 37.6825 135.017 37.6109 135.063C36.8194 135.53 36.5507 136.555 37.0443 137.365L44.9712 150.595L28.0451 145.022L8.55872 112.16L44.8421 124.124L64.3285 156.986L49.8548 152.246Z" fill="white" fill-opacity="0.15"/>
<path d="M55.442 0.251135L5.3795 9.34891C4.60075 9.49044 4.11193 10.2155 4.24784 10.9634L10.7635 46.8171C10.9034 47.5869 11.6343 48.0676 12.3908 47.9301L31.6371 44.4325L32.6164 49.8216L25.3184 51.1478C24.5397 51.2894 24.0508 52.0145 24.1867 52.7623C24.3226 53.5102 25.0576 54.0129 25.8141 53.8754L34.5138 52.2944C35.2926 52.1529 35.7814 51.4278 35.6455 50.6799L34.1665 42.5414C34.0266 41.7715 33.2956 41.2908 32.5391 41.4283L13.2929 44.9259L7.27692 11.8217L54.5582 3.22936L60.5742 36.3335L41.4391 39.8109C40.6604 39.9524 40.1716 40.6775 40.3075 41.4254L41.7865 49.5639C41.9264 50.3338 42.6573 50.8145 43.4138 50.677L52.1136 49.096C52.8923 48.9545 53.3812 48.2294 53.2453 47.4816C53.1093 46.7337 52.3744 46.231 51.6179 46.3685L44.2977 47.6988L43.3183 42.3097L62.4533 38.8324C63.2321 38.6908 63.7209 37.9658 63.585 37.2179L57.0694 1.36422C56.9557 0.612306 56.2208 0.109614 55.442 0.251135ZM38.0255 35.3187L34.1318 36.0263C33.353 36.1678 32.8642 36.8929 33.0001 37.6408C33.136 38.3886 33.8709 38.8913 34.6274 38.7538L38.5212 38.0462C39.2999 37.9047 39.7887 37.1796 39.6528 36.4318C39.5169 35.6839 38.782 35.1812 38.0255 35.3187ZM35.5394 19.6147C36.2789 19.8894 37.0844 19.5158 37.369 18.8051C37.6495 18.0724 37.2752 17.277 36.5579 16.9983L29.7494 14.441C29.2787 14.2538 28.7447 14.3509 28.3436 14.6737C27.9426 14.9965 27.7596 15.507 27.8475 15.9909L29.3145 24.0635C29.4065 24.5694 29.7836 25.0007 30.2686 25.1398C30.4889 25.2134 30.7193 25.217 30.9418 25.1766C31.2088 25.128 31.4821 24.9875 31.6766 24.7931L33.2955 23.2037L35.1427 25.5265C35.4714 25.944 36.0089 26.119 36.4984 26.03C36.7209 25.9896 36.9354 25.9052 37.1157 25.7588C37.7414 25.2815 37.8343 24.4012 37.3584 23.806L34.5816 20.2887C34.5776 20.2667 34.5514 20.2488 34.5251 20.2308C34.4949 20.1909 34.4646 20.1509 34.4344 20.111C33.8774 19.5759 33 19.5536 32.4347 20.1108L31.6161 20.9185L31.0685 17.905L35.5394 19.6147ZM15.3927 35.8643C15.5326 36.6341 16.2635 37.1148 17.02 36.9773L54.222 30.2167C55.0008 30.0752 55.4896 29.3501 55.3537 28.6022C55.2178 27.8544 54.4828 27.3517 53.7263 27.4892L16.5466 34.2458C15.7678 34.3873 15.2568 35.1164 15.3927 35.8643Z" fill="white" fill-opacity="0.15"/>
<path d="M219.28 112.018C220.002 112.018 220.559 111.441 220.559 110.739V81.5787C220.559 80.1763 221.715 79.0421 223.119 79.0421H227.144C227.866 79.0421 228.423 78.4646 228.423 77.7634V77.5985H235.069V92.7975L232.613 90.5909C232.118 90.1578 231.375 90.1578 230.9 90.5909L228.444 92.7975V82.3417C228.444 81.6199 227.866 81.0631 227.164 81.0631C226.442 81.0631 225.885 81.6406 225.885 82.3417V95.6848C225.885 96.2003 226.174 96.654 226.648 96.8603C227.102 97.0665 227.66 96.984 228.031 96.654L231.788 93.3131L235.544 96.6953C235.792 96.9221 236.101 97.0252 236.411 97.0252C236.597 97.0252 236.762 96.984 236.927 96.9221C237.402 96.7159 237.691 96.2622 237.691 95.7466V76.3611C237.691 75.6393 237.113 75.0825 236.411 75.0825H227.185C226.462 75.0825 225.905 75.6599 225.905 76.3611V76.5261H223.16C220.332 76.5261 218.021 78.8152 218.021 81.6406V110.801C218 111.441 218.578 112.018 219.28 112.018ZM251.788 76.4642H240.787C240.064 76.4642 239.507 77.0417 239.507 77.7428C239.507 78.444 240.085 79.0215 240.787 79.0215H250.508V113.42H223.139C220.374 113.42 218.124 115.565 218 118.308C218 118.329 218 118.329 218 118.349C218 118.411 218 118.473 218 118.535V118.844C218 121.67 220.312 123.959 223.139 123.959H251.54C252.263 123.959 252.82 123.381 252.82 122.68C252.82 121.979 252.242 121.402 251.54 121.402H223.139C221.736 121.402 220.58 120.267 220.58 118.865V118.494C220.58 118.473 220.58 118.473 220.58 118.452C220.642 117.091 221.757 116.019 223.139 116.019H251.788C252.51 116.019 253.068 115.441 253.068 114.74V77.7634C253.088 77.0416 252.51 76.4642 251.788 76.4642ZM264.048 75.2475C263.594 75.0825 263.099 75 262.624 75C260.209 75 258.248 76.9798 258.248 79.4133V117.277C258.248 117.504 258.31 117.71 258.413 117.916L261.489 123.34C261.716 123.753 262.149 124 262.603 124C263.057 124 263.491 123.753 263.718 123.361L266.835 117.937C266.938 117.751 267 117.524 267 117.298V79.4339C267.02 77.5366 265.823 75.8662 264.048 75.2475ZM262.603 120.102L261.117 117.483H264.089L262.603 120.102ZM264.44 114.905H260.828V85.1671H264.44V114.905ZM264.44 82.5892H260.828V79.4133C260.828 78.4028 261.633 77.5779 262.645 77.5779C262.851 77.5779 263.037 77.6191 263.223 77.681C263.966 77.9285 264.44 78.6296 264.44 79.4133V82.5892Z" fill="white" fill-opacity="0.15"/>
</svg>
