<svg width="752" height="152" viewBox="0 0 752 152" fill="none" xmlns="http://www.w3.org/2000/svg">
<path d="M160.235 147.327C159.922 147.379 159.595 147.309 159.329 147.128L158.019 146.224L164.721 142.202L164.904 143.783C164.961 144.264 164.723 144.737 164.308 144.986L160.671 147.17C160.532 147.25 160.383 147.302 160.235 147.327ZM159.915 146.281C159.985 146.326 160.069 146.324 160.136 146.284L163.773 144.1C163.84 144.061 163.883 143.98 163.876 143.903L159.915 146.281Z" fill="white" fill-opacity="0.15"/>
<path d="M158.358 146.982C157.908 147.057 157.441 147.022 156.994 146.876L154.408 146.02C153.758 145.806 153.206 145.362 152.856 144.778L149.527 139.229L162.541 131.42L165.871 136.969C166.221 137.553 166.352 138.247 166.238 138.919L165.776 141.603C165.635 142.421 165.145 143.138 164.433 143.566L159.361 146.614C159.049 146.8 158.709 146.924 158.358 146.982ZM150.937 139.581L153.737 144.249C153.963 144.623 154.313 144.903 154.73 145.042L157.317 145.899C157.823 146.068 158.376 146.005 158.832 145.732L163.904 142.685C164.361 142.412 164.674 141.955 164.766 141.427L165.229 138.742C165.304 138.313 165.22 137.871 164.995 137.497L162.194 132.829L150.937 139.581Z" fill="white" fill-opacity="0.15"/>
<path d="M150.089 139.948C149.426 140.058 148.728 139.79 148.319 139.221L148.297 139.191C145.955 135.929 144.282 135.349 141.76 134.477C140.517 134.046 139.107 133.558 137.328 132.676L137.23 132.63C137.138 132.583 137.046 132.537 136.947 132.485L136.867 132.442C136.78 132.395 136.694 132.353 136.613 132.304L136.507 132.243C136.419 132.19 136.327 132.143 136.24 132.09L136.183 132.054C136.077 131.993 135.977 131.931 135.87 131.864L135.769 131.802C135.688 131.753 135.612 131.704 135.536 131.649L135.447 131.59C135.346 131.522 135.244 131.455 135.143 131.387L135.073 131.337C134.991 131.283 134.913 131.222 134.83 131.163L134.734 131.094C134.645 131.03 134.555 130.966 134.47 130.896L134.432 130.868C134.334 130.789 134.232 130.715 134.135 130.636L134.05 130.565C133.972 130.505 133.9 130.444 133.821 130.378L133.749 130.317C133.652 130.237 133.559 130.151 133.466 130.07L133.407 130.018C133.329 129.952 133.255 129.88 133.181 129.808L133.1 129.731C133.014 129.65 132.927 129.568 132.846 129.486L132.825 129.461C132.737 129.374 132.643 129.283 132.555 129.191L132.48 129.113C132.412 129.04 132.338 128.967 132.268 128.889L132.206 128.82C132.123 128.727 132.034 128.629 131.951 128.536L131.896 128.477C131.827 128.399 131.756 128.314 131.693 128.235L131.622 128.151C131.545 128.057 131.461 127.958 131.382 127.858C131.296 127.743 131.212 127.644 131.138 127.538L131.073 127.453C131.008 127.368 130.949 127.282 130.884 127.197L130.833 127.127C130.759 127.021 130.685 126.909 130.61 126.797L130.564 126.726C130.504 126.635 130.445 126.549 130.39 126.456L130.33 126.365C130.261 126.253 130.185 126.136 130.116 126.023C130.038 125.895 129.967 125.772 129.895 125.643C129.879 125.617 129.864 125.592 129.854 125.565L129.821 125.503C129.774 125.421 129.732 125.338 129.684 125.255C129.668 125.224 129.651 125.188 129.634 125.157L129.586 125.069C129.552 125.001 129.519 124.939 129.486 124.871C129.468 124.835 129.45 124.793 129.427 124.757L129.386 124.679C129.352 124.612 129.32 124.55 129.291 124.481C129.274 124.444 129.256 124.402 129.238 124.36L129.195 124.272C129.167 124.209 129.141 124.151 129.114 124.088C129.095 124.04 129.07 123.994 129.051 123.946L129.025 123.894C128.997 123.826 128.97 123.763 128.941 123.694C128.922 123.646 128.902 123.593 128.883 123.546L128.872 123.514C128.843 123.44 128.815 123.371 128.786 123.297C128.767 123.25 128.747 123.202 128.733 123.148L128.712 123.09C128.69 123.026 128.662 122.957 128.64 122.893C128.618 122.829 128.597 122.771 128.575 122.707C128.553 122.637 128.523 122.563 128.501 122.494C128.479 122.43 128.463 122.371 128.442 122.307C128.418 122.232 128.395 122.162 128.372 122.093C128.35 122.029 128.334 121.964 128.319 121.905C128.296 121.835 128.278 121.759 128.255 121.69C128.239 121.625 128.222 121.56 128.201 121.502C128.184 121.431 128.166 121.355 128.143 121.286C128.127 121.221 128.11 121.156 128.094 121.091C128.077 121.021 128.058 120.945 128.041 120.875C128.025 120.81 128.014 120.744 127.998 120.685C127.981 120.614 127.968 120.537 127.951 120.467C127.94 120.401 127.924 120.336 127.913 120.271C127.901 120.199 127.889 120.128 127.871 120.052C127.86 119.986 127.849 119.921 127.84 119.86C127.828 119.789 127.815 119.712 127.803 119.641C127.792 119.575 127.781 119.509 127.777 119.448C127.765 119.377 127.758 119.299 127.746 119.228C127.735 119.162 127.731 119.101 127.725 119.034C127.719 118.962 127.712 118.885 127.7 118.813L127.695 118.786C127.692 118.73 127.683 118.675 127.679 118.62C127.673 118.547 127.666 118.47 127.659 118.398L127.657 118.347C127.655 118.302 127.647 118.253 127.645 118.208C127.638 118.131 127.637 118.058 127.631 117.985L127.629 117.941C127.626 117.89 127.624 117.846 127.622 117.795C127.622 117.728 127.616 117.661 127.616 117.588L127.615 117.515C127.613 117.47 127.611 117.425 127.609 117.381C127.609 117.313 127.61 117.251 127.611 117.183L127.612 117.087C127.611 117.048 127.61 117.009 127.608 116.964C127.608 116.896 127.609 116.834 127.609 116.767L127.608 116.66C127.608 116.621 127.608 116.587 127.612 116.547C127.615 116.462 127.618 116.377 127.621 116.292L127.621 116.224C127.622 116.196 127.623 116.167 127.623 116.134C127.628 115.998 127.639 115.861 127.651 115.723L127.657 115.627C127.668 115.523 127.674 115.421 127.685 115.318C127.69 115.283 127.69 115.249 127.696 115.215L127.707 115.111C127.713 115.043 127.724 114.979 127.73 114.91C127.735 114.87 127.739 114.83 127.748 114.784L127.76 114.714C127.771 114.645 127.781 114.57 127.786 114.501C127.79 114.456 127.8 114.415 127.805 114.374L127.82 114.265C127.828 114.207 127.836 114.155 127.849 114.097C127.858 114.05 127.866 113.998 127.875 113.951L127.887 113.887C127.899 113.824 127.911 113.76 127.923 113.696C127.932 113.644 127.944 113.585 127.958 113.532L127.97 113.468C127.983 113.41 127.996 113.351 128.009 113.293C128.017 113.241 128.032 113.193 128.045 113.14L128.056 113.099C128.072 113.029 128.089 112.959 128.105 112.888C128.119 112.835 128.132 112.777 128.145 112.724L128.153 112.7C128.169 112.63 128.187 112.565 128.209 112.494C128.223 112.441 128.242 112.387 128.255 112.328L128.261 112.299C128.278 112.229 128.301 112.163 128.323 112.092C128.34 112.027 128.358 111.968 128.381 111.902C128.403 111.831 128.426 111.765 128.444 111.7C128.462 111.641 128.485 111.575 128.502 111.51C128.525 111.444 128.548 111.379 128.57 111.307C128.593 111.242 128.617 111.181 128.635 111.122C128.658 111.056 128.681 110.991 128.709 110.924C128.733 110.864 128.756 110.798 128.78 110.738C128.803 110.672 128.831 110.605 128.86 110.539C128.883 110.478 128.907 110.418 128.936 110.351C128.964 110.285 128.992 110.218 129.016 110.158C129.04 110.097 129.069 110.036 129.093 109.976C129.122 109.909 129.151 109.848 129.179 109.782C129.209 109.72 129.232 109.66 129.262 109.599C129.291 109.538 129.325 109.47 129.354 109.409C129.384 109.348 129.413 109.287 129.443 109.231C129.472 109.17 129.503 109.114 129.532 109.053L129.549 109.022C129.574 108.967 129.605 108.917 129.63 108.862C129.66 108.806 129.686 108.757 129.716 108.701L129.751 108.639C129.776 108.59 129.803 108.546 129.829 108.502C129.86 108.447 129.891 108.396 129.922 108.346L129.966 108.271C129.987 108.228 130.014 108.19 130.035 108.147C130.067 108.097 130.098 108.047 130.129 107.997L130.177 107.915C130.205 107.877 130.226 107.834 130.253 107.796C130.284 107.746 130.315 107.695 130.347 107.645L130.401 107.563C130.428 107.525 130.45 107.487 130.477 107.449C130.509 107.399 130.541 107.354 130.577 107.303L130.637 107.22C130.664 107.181 130.686 107.144 130.714 107.106C130.745 107.055 130.782 107.01 130.814 106.965L130.883 106.869C130.906 106.837 130.928 106.8 130.956 106.767C130.997 106.709 131.038 106.652 131.08 106.6L131.141 106.522C131.165 106.496 131.182 106.465 131.206 106.438C131.289 106.329 131.372 106.219 131.462 106.114C131.486 106.088 131.509 106.056 131.532 106.029L131.603 105.945C131.645 105.893 131.687 105.841 131.729 105.788C131.757 105.756 131.781 105.729 131.81 105.696L131.89 105.604C131.928 105.558 131.965 105.513 132.009 105.472C132.043 105.438 132.071 105.405 132.104 105.366L132.175 105.287C132.213 105.241 132.257 105.2 132.294 105.154C132.328 105.12 132.361 105.081 132.395 105.047L132.462 104.974C132.506 104.933 132.543 104.888 132.587 104.847C132.621 104.813 132.659 104.773 132.693 104.739L132.756 104.678C132.8 104.637 132.843 104.59 132.887 104.549C132.926 104.509 132.965 104.474 133.009 104.433L133.063 104.385C133.107 104.344 133.15 104.303 133.2 104.261C133.244 104.22 133.288 104.179 133.332 104.138L133.366 104.109C133.415 104.062 133.464 104.02 133.519 103.977C133.568 103.935 133.617 103.888 133.672 103.845C133.736 103.789 133.79 103.741 133.845 103.698C133.899 103.655 133.953 103.607 134.008 103.564C134.063 103.521 134.123 103.472 134.177 103.429C134.232 103.386 134.287 103.343 134.347 103.299C134.408 103.255 134.463 103.213 134.523 103.169C134.578 103.126 134.638 103.082 134.693 103.039C134.753 102.995 134.808 102.953 134.869 102.909C134.929 102.865 134.985 102.828 135.045 102.784L135.212 102.666C135.287 102.614 135.369 102.561 135.445 102.509C135.5 102.472 135.551 102.435 135.607 102.404C135.684 102.357 135.76 102.305 135.837 102.259L135.867 102.237C135.913 102.207 135.958 102.176 136.005 102.152L136.066 102.114C136.107 102.09 136.149 102.066 136.19 102.042L136.298 101.98C136.333 101.957 136.37 101.939 136.406 101.917C136.513 101.854 136.622 101.796 136.731 101.739L136.803 101.699C144.593 97.5143 154.276 99.8321 159.335 107.083L159.386 107.154C159.452 107.25 159.52 107.351 159.587 107.447C159.617 107.493 159.647 107.539 159.676 107.579C159.729 107.66 159.782 107.742 159.829 107.824C159.867 107.88 159.898 107.936 159.936 107.992L159.997 108.089C160.012 108.115 160.028 108.14 160.044 108.171L160.075 108.223C160.108 108.285 160.146 108.341 160.178 108.403C160.225 108.479 160.267 108.563 160.313 108.639L160.322 108.66C160.347 108.707 160.378 108.758 160.404 108.81C160.452 108.898 160.501 108.991 160.544 109.08L160.669 109.324C160.72 109.428 160.771 109.533 160.821 109.631L160.846 109.678C160.898 109.793 160.95 109.903 161.003 110.018L161.042 110.113C161.089 110.229 161.141 110.339 161.187 110.449L161.216 110.523C161.256 110.624 161.295 110.724 161.334 110.825L161.364 110.904C161.405 111.016 161.447 111.133 161.488 111.244L161.521 111.34C161.563 111.457 161.598 111.57 161.64 111.687L161.654 111.735C161.688 111.842 161.723 111.949 161.752 112.057L161.779 112.154C161.815 112.266 161.846 112.385 161.876 112.498L161.902 112.59C161.93 112.692 161.958 112.794 161.981 112.898L161.998 112.968C162.029 113.087 162.054 113.201 162.078 113.315L162.1 113.413C162.126 113.533 162.15 113.647 162.169 113.762L162.181 113.833C162.197 113.932 162.22 114.035 162.236 114.134L162.253 114.233C162.272 114.348 162.29 114.457 162.304 114.574L162.321 114.678C162.333 114.783 162.35 114.887 162.362 114.992L162.368 115.064C162.381 115.175 162.393 115.285 162.4 115.397L162.413 115.507C162.421 115.624 162.434 115.735 162.442 115.852L162.446 115.947C162.451 116.042 162.456 116.142 162.461 116.237L162.465 116.332C162.468 116.45 162.475 116.562 162.477 116.674L162.478 116.786C162.48 116.899 162.482 117.011 162.483 117.123L162.484 117.23C162.481 117.282 162.485 117.337 162.482 117.388L162.479 117.575C162.428 119.577 162.184 121.065 161.973 122.379C161.544 125.029 161.26 126.783 163.045 130.386C163.452 131.214 163.164 132.23 162.389 132.719C158.84 135.576 154.9 137.941 150.671 139.75C150.495 139.847 150.292 139.914 150.089 139.948ZM149.155 138.627C149.389 138.948 149.844 139.042 150.187 138.833L150.249 138.8C154.409 137.019 158.288 134.693 161.777 131.88L161.833 131.842C162.175 131.633 162.31 131.189 162.132 130.829C160.203 126.93 160.522 124.945 160.969 122.201C161.179 120.916 161.412 119.464 161.464 117.534L161.468 117.353C161.471 117.302 161.469 117.258 161.472 117.206L161.472 117.105C161.471 116.998 161.471 116.897 161.471 116.79L161.47 116.683C161.469 116.576 161.463 116.47 161.462 116.363L161.458 116.274C161.455 116.184 161.451 116.095 161.441 116L161.438 115.911C161.431 115.799 161.424 115.693 161.413 115.588L161.401 115.483C161.389 115.378 161.377 115.273 161.367 115.174L161.361 115.107C161.35 115.007 161.334 114.909 161.323 114.809L161.307 114.71C161.289 114.606 161.277 114.496 161.259 114.386L161.243 114.293C161.228 114.2 161.212 114.101 161.191 114.009L161.179 113.937C161.155 113.829 161.137 113.719 161.113 113.61L161.092 113.518C161.069 113.409 161.045 113.3 161.015 113.187L160.999 113.122C160.977 113.024 160.95 112.928 160.922 112.831L160.897 112.745C160.868 112.637 160.839 112.529 160.804 112.422L160.779 112.336C160.75 112.234 160.717 112.132 160.683 112.031L160.67 111.988C160.636 111.881 160.601 111.774 160.56 111.663L160.528 111.572C160.488 111.466 160.454 111.359 160.413 111.248L160.383 111.174C160.345 111.079 160.307 110.984 160.269 110.889L160.24 110.82C160.195 110.715 160.149 110.61 160.103 110.499L160.066 110.41C160.02 110.305 159.968 110.195 159.922 110.09L159.898 110.043C159.854 109.949 159.804 109.85 159.759 109.751L159.643 109.522C159.601 109.439 159.552 109.351 159.51 109.268C159.486 109.221 159.461 109.175 159.438 109.134L159.423 109.113C159.382 109.036 159.342 108.964 159.295 108.887C159.263 108.83 159.231 108.773 159.194 108.718L159.069 108.507C159.037 108.451 159.001 108.4 158.97 108.349C158.923 108.272 158.871 108.197 158.825 108.12C158.796 108.08 158.771 108.033 158.742 107.993C158.682 107.901 158.615 107.805 158.555 107.714L158.51 107.648C153.754 100.825 144.64 98.6445 137.31 102.584L137.243 102.623C137.146 102.678 137.042 102.735 136.939 102.792C136.908 102.808 136.878 102.83 136.841 102.847L136.728 102.911C136.692 102.934 136.656 102.951 136.62 102.974L136.564 103.011C136.523 103.035 136.477 103.065 136.436 103.089L136.406 103.111C136.335 103.156 136.263 103.202 136.192 103.247C136.141 103.278 136.091 103.315 136.039 103.346C135.963 103.392 135.892 103.444 135.822 103.495L135.66 103.606C135.604 103.643 135.549 103.686 135.494 103.724C135.438 103.761 135.383 103.804 135.328 103.847C135.273 103.89 135.217 103.927 135.168 103.969C135.113 104.012 135.058 104.055 135.008 104.091C134.953 104.134 134.904 104.176 134.848 104.213C134.793 104.256 134.744 104.298 134.689 104.341C134.64 104.383 134.585 104.426 134.535 104.468C134.48 104.511 134.432 104.558 134.383 104.6C134.329 104.649 134.279 104.691 134.23 104.733C134.18 104.774 134.137 104.816 134.087 104.858L134.052 104.886C134.008 104.921 133.969 104.962 133.93 104.996C133.886 105.037 133.847 105.072 133.803 105.113L133.75 105.167C133.71 105.201 133.677 105.235 133.638 105.275C133.6 105.316 133.556 105.357 133.517 105.397L133.454 105.458C133.42 105.492 133.387 105.525 133.357 105.553C133.319 105.593 133.281 105.633 133.242 105.673L133.17 105.747C133.141 105.78 133.107 105.808 133.078 105.841C133.04 105.881 133.007 105.921 132.969 105.961L132.897 106.04C132.869 106.073 132.84 106.1 132.811 106.133C132.773 106.173 132.74 106.213 132.702 106.258L132.622 106.35C132.598 106.377 132.574 106.403 132.551 106.43C132.513 106.475 132.47 106.522 132.433 106.573L132.358 106.664C132.34 106.69 132.321 106.71 132.303 106.736C132.224 106.839 132.139 106.937 132.06 107.04C132.042 107.066 132.023 107.086 132.004 107.112L131.939 107.196C131.897 107.248 131.861 107.299 131.824 107.35C131.801 107.382 131.783 107.407 131.76 107.439L131.687 107.542C131.655 107.586 131.623 107.631 131.595 107.669C131.573 107.701 131.551 107.739 131.528 107.771L131.469 107.859C131.437 107.904 131.411 107.948 131.379 107.993C131.356 108.024 131.334 108.062 131.311 108.094L131.258 108.181C131.226 108.226 131.2 108.276 131.168 108.32C131.146 108.358 131.124 108.395 131.102 108.433L131.054 108.514C131.027 108.558 130.996 108.608 130.969 108.652C130.947 108.689 130.925 108.727 130.903 108.764L130.86 108.839C130.834 108.888 130.803 108.938 130.777 108.988C130.756 109.031 130.73 109.074 130.708 109.117L130.674 109.179C130.648 109.229 130.617 109.279 130.591 109.328C130.566 109.377 130.54 109.427 130.514 109.476L130.506 109.494C130.472 109.562 130.442 109.618 130.417 109.672C130.387 109.728 130.362 109.783 130.333 109.844C130.304 109.905 130.275 109.966 130.244 110.022C130.22 110.077 130.19 110.138 130.166 110.193C130.136 110.254 130.112 110.314 130.083 110.375C130.058 110.43 130.035 110.491 130.01 110.545C129.981 110.606 129.957 110.667 129.933 110.727C129.909 110.787 129.884 110.842 129.86 110.902C129.837 110.963 129.813 111.023 129.79 111.089C129.766 111.149 129.748 111.208 129.723 111.263C129.699 111.323 129.676 111.389 129.652 111.449C129.629 111.51 129.61 111.569 129.592 111.628C129.568 111.689 129.551 111.753 129.528 111.819C129.509 111.879 129.491 111.938 129.467 111.998C129.444 112.064 129.427 112.129 129.409 112.188C129.39 112.248 129.372 112.307 129.354 112.366C129.336 112.431 129.319 112.496 129.301 112.561L129.295 112.59C129.281 112.643 129.266 112.69 129.253 112.743C129.235 112.808 129.218 112.873 129.2 112.938L129.194 112.967C129.18 113.02 129.166 113.068 129.157 113.12C129.14 113.185 129.128 113.248 129.111 113.319L129.101 113.36C129.092 113.406 129.077 113.454 129.068 113.501C129.054 113.554 129.046 113.606 129.033 113.664L129.021 113.728C129.013 113.78 128.998 113.828 128.99 113.88C128.977 113.938 128.965 114.002 128.958 114.06L128.947 114.129C128.938 114.176 128.933 114.216 128.924 114.262C128.916 114.314 128.907 114.366 128.899 114.418L128.883 114.528C128.879 114.568 128.873 114.603 128.863 114.644C128.851 114.708 128.846 114.777 128.834 114.84L128.824 114.915C128.818 114.95 128.813 114.99 128.808 115.025C128.801 115.088 128.795 115.151 128.788 115.209L128.777 115.317C128.777 115.346 128.77 115.375 128.769 115.403C128.757 115.501 128.751 115.598 128.744 115.695L128.737 115.786C128.724 115.912 128.717 116.043 128.711 116.173L128.707 116.32C128.703 116.4 128.699 116.479 128.696 116.559C128.696 116.593 128.695 116.621 128.695 116.655L128.691 116.768C128.69 116.83 128.688 116.887 128.687 116.949C128.687 116.983 128.688 117.022 128.688 117.056L128.688 117.157C128.687 117.219 128.691 117.28 128.689 117.337C128.69 117.376 128.691 117.416 128.693 117.46L128.694 117.534C128.693 117.596 128.698 117.662 128.697 117.724C128.699 117.769 128.7 117.809 128.701 117.853L128.703 117.898C128.71 117.97 128.709 118.038 128.716 118.11C128.718 118.155 128.724 118.193 128.726 118.238L128.728 118.288C128.735 118.36 128.74 118.427 128.746 118.499C128.749 118.549 128.757 118.599 128.761 118.655L128.765 118.682C128.772 118.754 128.777 118.821 128.789 118.892C128.793 118.953 128.803 119.014 128.813 119.074C128.82 119.146 128.831 119.212 128.842 119.283C128.852 119.344 128.857 119.405 128.867 119.465C128.879 119.536 128.889 119.602 128.901 119.673C128.911 119.734 128.921 119.794 128.931 119.854C128.942 119.92 128.954 119.991 128.966 120.063C128.976 120.123 128.991 120.182 129.001 120.243C129.012 120.308 129.029 120.379 129.041 120.45C129.051 120.51 129.067 120.57 129.082 120.629C129.099 120.7 129.11 120.765 129.127 120.836C129.143 120.895 129.158 120.954 129.174 121.014C129.19 121.079 129.207 121.149 129.225 121.219C129.24 121.279 129.256 121.338 129.271 121.398C129.288 121.468 129.31 121.532 129.328 121.602C129.343 121.662 129.364 121.72 129.379 121.78C129.402 121.849 129.419 121.914 129.441 121.983C129.462 122.042 129.478 122.101 129.499 122.16C129.521 122.229 129.543 122.293 129.566 122.363C129.587 122.421 129.608 122.48 129.629 122.538C129.65 122.597 129.672 122.661 129.699 122.724L129.72 122.782C129.739 122.83 129.752 122.873 129.771 122.92C129.799 122.989 129.822 123.058 129.849 123.121L129.861 123.159C129.88 123.206 129.898 123.248 129.918 123.296C129.945 123.359 129.971 123.417 129.993 123.481L130.02 123.538C130.038 123.58 130.057 123.628 130.075 123.67C130.102 123.727 130.128 123.785 130.155 123.842L130.198 123.937C130.216 123.973 130.232 124.004 130.249 124.041C130.277 124.104 130.309 124.161 130.336 124.224L130.378 124.307C130.395 124.343 130.412 124.374 130.428 124.406C130.461 124.468 130.494 124.53 130.521 124.593L130.57 124.686C130.587 124.717 130.602 124.743 130.613 124.775C130.654 124.853 130.701 124.929 130.742 125.007L130.814 125.136C130.884 125.254 130.949 125.378 131.025 125.495C131.088 125.603 131.156 125.71 131.225 125.817L131.279 125.904C131.332 125.991 131.392 126.077 131.445 126.158L131.489 126.224C131.557 126.325 131.631 126.431 131.704 126.532L131.755 126.602C131.813 126.683 131.871 126.763 131.93 126.844L131.988 126.924C132.061 127.025 132.139 127.119 132.212 127.22L132.225 127.234C132.297 127.324 132.368 127.413 132.445 127.508L132.509 127.587C132.572 127.661 132.636 127.741 132.704 127.814L132.754 127.873C132.837 127.967 132.913 128.055 132.995 128.143L133.057 128.206C133.125 128.279 133.187 128.348 133.255 128.416L133.323 128.489C133.405 128.577 133.493 128.664 133.579 128.745L133.599 128.764C133.68 128.841 133.76 128.918 133.84 128.995L133.92 129.066C133.993 129.133 134.059 129.195 134.132 129.262L134.186 129.315C134.273 129.396 134.364 129.471 134.456 129.546L134.528 129.608C134.6 129.669 134.671 129.725 134.743 129.786L134.822 129.852C134.913 129.927 135.003 129.996 135.1 130.07L135.133 130.099C135.217 130.164 135.3 130.223 135.384 130.288L135.473 130.352C135.55 130.407 135.627 130.462 135.702 130.511L135.766 130.557C135.861 130.62 135.957 130.689 136.052 130.752L136.134 130.806C136.21 130.856 136.279 130.9 136.355 130.95L136.449 131.007C136.544 131.071 136.644 131.127 136.743 131.184L136.799 131.214C136.88 131.263 136.967 131.31 137.048 131.359L137.148 131.416C137.228 131.459 137.308 131.502 137.389 131.545L137.462 131.583C137.549 131.631 137.641 131.672 137.727 131.72L137.819 131.766C139.538 132.62 140.918 133.096 142.131 133.52C144.749 134.427 146.643 135.083 149.186 138.638L149.155 138.627Z" fill="white" fill-opacity="0.15"/>
<path d="M154.35 137.469C154.341 137.448 153.199 135.479 146.875 126.607C146.28 125.77 145.703 125.105 145.162 124.592C142.392 125.451 140.917 124.979 140.445 124.1C140.112 123.485 140.349 122.741 141.008 122.334C141.779 121.851 143.39 121.748 145.397 123.427C145.892 123.255 146.431 123.036 147.022 122.764C148.728 121.98 149.99 121.197 150.893 120.456C150.489 119.103 150.318 117.971 150.518 117.24C150.839 116.049 151.629 115.648 152.257 115.668C153.011 115.695 153.63 116.268 153.795 117.097C153.899 117.621 153.941 119.033 152.059 120.798C153.524 125.09 157.25 131.779 158.986 134.679L158.105 135.208C157.452 134.122 153.058 126.699 151.229 121.499C150.314 122.202 149.085 122.941 147.447 123.696C147.022 123.89 146.618 124.064 146.231 124.213C146.706 124.703 147.199 125.297 147.705 126.008C154.095 134.971 155.194 136.884 155.235 136.962L154.35 137.469ZM141.962 123.06C141.803 123.087 141.665 123.138 141.553 123.207C141.405 123.299 141.267 123.457 141.35 123.612C141.521 123.933 142.409 124.226 144.184 123.791C143.262 123.155 142.489 122.973 141.962 123.06ZM152.152 116.699C151.883 116.743 151.646 117.042 151.52 117.508C151.386 117.992 151.478 118.754 151.729 119.692C152.63 118.738 152.919 117.896 152.798 117.302C152.714 116.893 152.457 116.705 152.236 116.696C152.208 116.695 152.18 116.694 152.152 116.699Z" fill="white" fill-opacity="0.15"/>
<path d="M163.864 134.503L150.822 140.268L151.237 141.208L164.28 135.443L163.864 134.503Z" fill="white" fill-opacity="0.15"/>
<path d="M164.613 135.752L151.571 141.517L151.986 142.457L165.029 136.692L164.613 135.752Z" fill="white" fill-opacity="0.15"/>
<path d="M165.361 137L152.318 142.764L152.734 143.704L165.776 137.94L165.361 137Z" fill="white" fill-opacity="0.15"/>
<path d="M165.509 138.521L153.076 144.016L153.492 144.956L165.924 139.461L165.509 138.521Z" fill="white" fill-opacity="0.15"/>
<path d="M69.5407 65.1764L47.4513 27.913C47.2404 27.5712 46.9031 27.3001 46.5239 27.1677L5.38224 13.6081C4.72492 13.3899 4.00058 13.6005 3.56299 14.1449C3.12539 14.6893 3.07551 15.442 3.42989 16.0371L12.1332 30.7187L2.28725 42.9685C-4.29353 51.1559 6.63233 64.1083 11.3536 67.9031L15.2528 71.0372C16.5807 72.1045 20.0663 74.2857 24.318 75.9452C25.1819 76.2949 26.1503 75.8669 26.495 75.0065C26.8396 74.1461 26.4049 73.1762 25.541 72.8266C21.9087 71.3891 18.5791 69.4023 17.3777 68.4367L13.4785 65.3026C10.1694 62.6429 -0.00526076 51.2593 4.94295 45.103L13.9978 33.8375L25.5404 53.3174C25.6374 53.4988 25.7892 53.6552 25.9367 53.7738C26.0843 53.8924 26.2697 54.007 26.4677 54.0628L45.943 60.479L37.8475 70.551C35.4751 69.5748 32.6323 70.2196 30.9492 72.3136C29.2662 74.4076 29.2477 77.3225 30.7113 79.4295L29.4154 81.0418C28.8263 81.7747 28.962 82.8144 29.6786 83.3904C30.4163 83.9834 31.4566 83.8545 32.0289 83.1425L33.3248 81.5302C35.6973 82.5064 38.5401 81.8616 40.2231 79.7676C41.9062 77.6736 41.9246 74.7587 40.461 72.6517L49.3476 61.5955L67.5883 67.6054C68.2456 67.8236 68.97 67.613 69.4076 67.0686C69.8452 66.5241 69.8951 65.7715 69.5407 65.1764ZM37.6096 77.6669C36.7175 78.7767 35.0875 78.9487 33.9704 78.0508C32.8534 77.1529 32.6708 75.5241 33.5628 74.4143C34.4548 73.3045 36.0848 73.1325 37.2019 74.0304C38.2979 74.9113 38.5016 76.5571 37.6096 77.6669ZM49.8543 58.2458L40.531 42.6522C40.6362 42.5644 40.7414 42.4766 40.8256 42.3719C41.9364 40.9899 41.2521 38.8199 39.2287 37.1936C37.2053 35.5672 34.922 35.3865 33.828 36.7475C33.239 37.4804 33.3747 38.5202 34.0913 39.0961C34.6815 39.5705 35.4692 39.5832 36.0586 39.1953C36.2777 39.268 36.678 39.4174 37.1206 39.7731C37.5632 40.1289 37.8121 40.4668 37.9134 40.6861C37.8839 40.7658 37.8588 40.8835 37.8293 40.9632C37.7578 41.0091 37.682 41.0171 37.6104 41.063C36.8189 41.5298 36.5502 42.5546 37.0438 43.365L44.9707 56.5954L28.0447 51.0218L8.55823 18.1599L44.8416 30.1239L64.328 62.9858L49.8543 58.2458Z" fill="white" fill-opacity="0.15"/>
<path d="M404.442 90.2506L354.38 99.3484C353.601 99.4899 353.112 100.215 353.248 100.963L359.763 136.817C359.903 137.586 360.634 138.067 361.391 137.93L380.637 134.432L381.616 139.821L374.318 141.147C373.54 141.289 373.051 142.014 373.187 142.762C373.323 143.51 374.058 144.012 374.814 143.875L383.514 142.294C384.293 142.152 384.781 141.427 384.645 140.679L383.166 132.541C383.027 131.771 382.296 131.29 381.539 131.428L362.293 134.925L356.277 101.821L403.558 93.2289L409.574 126.333L390.439 129.81C389.66 129.952 389.172 130.677 389.307 131.425L390.786 139.563C390.926 140.333 391.657 140.814 392.414 140.677L401.114 139.096C401.892 138.954 402.381 138.229 402.245 137.481C402.109 136.733 401.374 136.231 400.618 136.368L393.298 137.698L392.318 132.309L411.453 128.832C412.232 128.69 412.721 127.965 412.585 127.217L406.069 91.3637C405.956 90.6118 405.221 90.1091 404.442 90.2506ZM387.026 125.318L383.132 126.026C382.353 126.167 381.864 126.892 382 127.64C382.136 128.388 382.871 128.891 383.627 128.753L387.521 128.046C388.3 127.904 388.789 127.179 388.653 126.431C388.517 125.683 387.782 125.181 387.026 125.318ZM384.539 109.614C385.279 109.889 386.084 109.515 386.369 108.805C386.65 108.072 386.275 107.277 385.558 106.998L378.749 104.44C378.279 104.253 377.745 104.35 377.344 104.673C376.943 104.996 376.76 105.507 376.848 105.99L378.315 114.063C378.406 114.569 378.784 115 379.269 115.139C379.489 115.213 379.719 115.217 379.942 115.176C380.209 115.128 380.482 114.987 380.677 114.793L382.296 113.203L384.143 115.526C384.471 115.943 385.009 116.118 385.498 116.03C385.721 115.989 385.935 115.905 386.116 115.758C386.741 115.281 386.834 114.401 386.358 113.805L383.582 110.288C383.578 110.266 383.551 110.248 383.525 110.23C383.495 110.19 383.465 110.15 383.434 110.11C382.877 109.575 382 109.553 381.435 110.11L380.616 110.918L380.068 107.905L384.539 109.614ZM364.393 125.864C364.533 126.634 365.263 127.114 366.02 126.977L403.222 120.216C404.001 120.075 404.49 119.35 404.354 118.602C404.218 117.854 403.483 117.351 402.726 117.489L365.547 124.245C364.768 124.387 364.257 125.116 364.393 125.864Z" fill="white" fill-opacity="0.15"/>
<path d="M704.28 37.0181C705.002 37.0181 705.559 36.4406 705.559 35.7395V6.57868C705.559 5.17633 706.715 4.04208 708.119 4.04208H712.144C712.866 4.04208 713.423 3.46463 713.423 2.76345V2.59848H720.069V17.7975L717.613 15.5909C717.118 15.1578 716.375 15.1578 715.9 15.5909L713.444 17.7975V7.34175C713.444 6.61995 712.866 6.06311 712.164 6.06311C711.442 6.06311 710.885 6.64057 710.885 7.34175V20.6848C710.885 21.2003 711.174 21.654 711.648 21.8603C712.102 22.0665 712.66 21.984 713.031 21.654L716.788 18.3131L720.544 21.6953C720.792 21.9221 721.101 22.0252 721.411 22.0252C721.597 22.0252 721.762 21.984 721.927 21.9221C722.402 21.7159 722.691 21.2622 722.691 20.7466V1.36111C722.691 0.639305 722.113 0.0824715 721.411 0.0824715H712.185C711.462 0.0824715 710.905 0.659928 710.905 1.36111V1.52607H708.16C705.332 1.52607 703.021 3.81523 703.021 6.64056V35.8013C703 36.4407 703.578 37.0181 704.28 37.0181ZM736.788 1.46422H725.787C725.064 1.46422 724.507 2.04165 724.507 2.74283C724.507 3.44401 725.085 4.02146 725.787 4.02146H735.508V38.4204H708.139C705.374 38.4204 703.124 40.5652 703 43.3081C703 43.3287 703 43.3287 703 43.3493C703 43.4112 703 43.4731 703 43.5349V43.8443C703 46.6696 705.312 48.9587 708.139 48.9587H736.54C737.263 48.9587 737.82 48.3813 737.82 47.6801C737.82 46.979 737.242 46.4015 736.54 46.4015H708.139C706.736 46.4015 705.58 45.2673 705.58 43.8649V43.4937C705.58 43.473 705.58 43.4731 705.58 43.4524C705.642 42.0913 706.757 41.0189 708.139 41.0189H736.788C737.51 41.0189 738.068 40.4415 738.068 39.7403V2.76345C738.088 2.04165 737.51 1.46422 736.788 1.46422ZM749.048 0.247465C748.594 0.0824815 748.099 0 747.624 0C745.209 0 743.248 1.97978 743.248 4.41328V42.2769C743.248 42.5038 743.31 42.71 743.413 42.9162L746.489 48.34C746.716 48.7525 747.149 49 747.603 49C748.057 49 748.491 48.7525 748.718 48.3607L751.835 42.9369C751.938 42.7513 752 42.5244 752 42.2976V4.43392C752.02 2.53662 750.823 0.866152 749.048 0.247465ZM747.603 45.1023L746.117 42.4832H749.089L747.603 45.1023ZM749.44 39.9053H745.828V10.1671H749.44V39.9053ZM749.44 7.58921H745.828V4.41328C745.828 3.40276 746.633 2.57786 747.645 2.57786C747.851 2.57786 748.037 2.61911 748.223 2.68098C748.966 2.92845 749.44 3.62961 749.44 4.41328V7.58921Z" fill="white" fill-opacity="0.15"/>
</svg>
