<svg width="253" height="268" viewBox="0 0 253 268" fill="none" xmlns="http://www.w3.org/2000/svg">
<g filter="url(#filter0_f_0_1)">
<ellipse cx="126.5" cy="155.5" rx="52.5" ry="38.5" fill="white"/>
</g>
<path d="M145.44 24.2359C143.466 24.954 141.85 26.2107 139.696 27.1083C139.157 27.2878 138.619 27.2878 138.259 27.4673C136.823 28.0059 135.387 29.2626 133.951 29.4421C133.592 29.4421 133.053 29.2626 132.515 29.2626C132.156 29.2626 131.976 29.4421 131.617 29.4421C130.54 29.2626 129.463 28.724 128.386 28.365C125.693 27.2878 123 26.9288 120.127 25.8516C118.512 25.313 117.075 24.4154 115.639 24.0564C112.049 22.9792 108.458 22.4406 104.868 21.9021C104.868 21.7225 104.688 21.9021 104.688 21.9021C104.688 23.3383 104.509 24.954 104.868 26.2107C105.227 26.0311 105.945 25.6721 106.663 25.4926C108.279 25.1335 111.51 24.2359 111.69 26.2107C109.535 26.3902 106.843 26.5697 105.047 27.6469C105.047 28.1854 105.047 28.724 105.047 29.0831C106.843 28.5445 107.74 28.1854 109.535 27.6469C110.613 27.4673 112.049 26.7492 112.587 28.0059C112.228 28.9035 111.151 28.5445 110.254 28.5445C108.279 28.724 106.124 29.9807 104.688 30.1602C104.509 30.5193 104.868 30.6988 104.868 31.0578C106.124 31.0578 107.022 30.5193 107.92 30.1602C109.356 29.6216 112.228 28.365 112.767 30.1602C112.408 31.0578 111.69 30.5193 111.151 30.5193C109.176 30.6988 107.022 32.3145 105.227 32.135C105.227 32.6736 105.227 33.0326 105.227 33.5712C107.022 33.0326 107.74 32.8531 109.356 32.3145C110.074 32.135 113.844 31.2374 113.664 32.494C113.485 33.3917 111.331 33.0326 110.433 33.2122C108.817 33.3917 107.202 34.1098 105.945 34.4688C105.586 35.0074 104.688 34.1098 105.047 35.0074C105.586 35.3665 106.304 34.8279 106.843 34.6483C108.458 34.2893 110.613 33.5712 112.767 33.3917C116.537 33.0326 120.666 33.7507 124.616 33.2122C132.515 32.135 141.85 32.8531 146.697 36.2641C146.697 32.135 145.44 28.5445 145.44 24.2359Z" fill="#A5D9E7"/>
<path d="M88.7104 97.4821C87.8128 95.8664 87.8128 93.5326 87.0947 91.9169C87.4538 94.6098 87.4538 97.4821 87.6333 100.175C88.3514 99.4569 88.3514 98.2002 88.7104 97.4821Z" fill="#FFECCF"/>
<path d="M125.872 132.49C127.847 131.413 132.515 131.413 134.31 132.669C134.49 133.028 134.31 133.208 134.31 133.567C135.387 133.028 137.542 133.388 138.08 132.31C137.182 131.413 135.387 131.233 133.592 131.054C129.822 130.695 124.436 130.156 123 132.31C123.898 132.669 124.436 133.388 125.513 133.388C125.872 133.208 125.513 132.49 125.872 132.49Z" fill="#FFECCF"/>
<path d="M89.9673 127.463C91.0445 132.669 92.3011 137.516 93.1988 142.722C93.5578 144.338 93.5578 145.954 93.9169 147.39C94.2759 149.006 94.8145 150.981 96.0712 151.519C96.4302 150.622 94.4554 147.211 95.7121 147.031C96.7893 146.852 97.1483 150.442 97.3278 152.237C97.6869 152.237 98.2255 152.237 98.5845 152.237C98.7641 150.442 97.6869 147.57 98.405 146.492C100.38 146.852 99.3027 150.083 99.8412 151.699C100.559 151.878 101.457 151.699 102.355 151.699C102.534 150.981 100.739 146.852 101.995 146.672C103.252 146.492 103.073 151.16 103.611 151.699C104.329 151.699 104.868 151.699 105.406 151.878C105.406 151.16 104.15 145.954 105.586 145.954C106.843 146.133 105.766 151.34 106.663 151.878C107.022 152.058 107.74 152.058 108.458 152.058C108.817 150.801 107.561 146.672 108.997 146.852C110.254 147.031 109.715 150.442 109.895 152.237C110.254 152.417 110.792 152.417 111.151 152.417C111.51 151.16 110.254 146.852 111.69 146.852C112.767 146.852 112.408 150.981 112.587 152.417C113.306 152.237 114.024 152.776 114.383 152.417C114.383 151.16 113.665 147.031 114.921 147.211C116.178 147.39 115.101 151.16 115.46 152.596C116.178 152.776 116.896 152.776 117.614 152.955C117.435 151.699 116.717 146.852 118.153 147.031C119.409 147.211 118.332 151.878 118.871 152.955C119.23 153.135 119.769 153.135 120.307 153.135C120.307 152.237 119.589 147.57 120.846 147.749C122.282 147.929 120.846 152.417 121.743 154.212C122.102 154.212 122.461 154.212 122.82 154.212C123.18 152.417 121.923 148.108 123.359 148.288C124.616 148.467 123.898 152.596 124.257 153.673C124.616 153.853 125.334 153.673 125.872 153.673C126.052 152.417 125.693 151.519 125.693 150.263C125.693 149.365 125.334 147.39 126.411 147.39C127.488 147.39 126.95 149.903 126.95 151.16C127.129 152.237 127.309 152.596 127.129 154.392C127.668 154.392 128.386 154.392 128.924 154.392C129.104 152.596 128.206 148.467 129.642 148.467C130.899 148.647 129.822 152.237 130.181 153.853C130.72 154.033 131.079 154.033 131.617 154.033C131.438 152.955 130.72 147.929 132.156 148.108C133.592 148.288 132.156 153.494 133.053 154.212C133.592 154.212 134.131 154.392 134.849 154.392C135.208 153.314 134.131 148.467 135.567 148.647C136.823 148.826 135.746 152.955 136.105 154.751C136.644 154.751 137.362 154.751 137.901 154.751C138.26 152.955 136.823 148.826 138.439 149.006C139.516 149.185 138.978 152.955 139.337 154.751C139.875 154.751 140.593 154.751 141.132 154.751C141.312 152.955 140.414 149.185 141.85 149.185C143.107 149.365 142.03 152.955 142.389 154.751C142.927 154.751 143.466 154.751 143.825 154.751C144.004 152.955 143.107 149.185 144.543 149.185C145.8 149.365 144.723 152.955 145.082 154.751C145.441 154.751 145.979 154.751 146.338 154.751C146.697 152.955 145.62 149.006 147.056 149.006C148.313 149.185 147.236 152.955 147.595 154.751C148.313 154.751 149.031 154.751 149.749 154.751C150.108 152.955 149.031 147.749 150.467 147.929C151.724 148.108 150.647 152.955 151.006 154.751C151.545 154.751 152.083 154.751 152.442 154.751C152.801 152.955 151.724 147.929 153.16 148.108C154.417 148.288 153.34 152.955 153.699 154.751C154.058 154.751 154.596 154.751 154.955 154.751C154.776 154.751 154.776 153.673 154.776 153.135C154.776 151.699 154.776 149.365 155.674 149.006C156.93 150.083 155.853 152.955 155.853 154.392C157.648 154.392 159.444 154.212 161.059 154.033C161.418 152.955 160.341 148.467 161.777 148.467C163.214 148.647 161.777 152.776 162.675 154.033C164.65 154.033 162.496 148.467 164.111 148.467C165.188 148.467 164.65 153.135 164.291 153.853C164.829 153.853 165.009 153.673 165.547 153.673C166.625 152.955 165.368 147.749 166.804 147.929C168.061 148.108 167.163 152.596 166.984 153.314C167.343 153.494 167.881 153.135 168.42 153.135C168.958 151.699 169.138 149.724 169.677 148.288C169.856 147.929 170.574 148.647 170.574 148.108C171.472 142.902 172.369 136.439 172.908 130.156C172.908 129.258 172.908 128.54 172.908 127.642C173.267 123.513 174.344 119.743 175.062 116.153C175.062 115.614 175.062 115.255 175.242 114.896C175.421 114.178 175.96 113.998 175.78 113.28C175.78 112.383 174.883 111.844 174.524 111.126C169.497 110.767 165.188 109.869 160.341 109.51C154.596 109.151 148.134 109.51 141.671 109.51C128.386 109.51 116.358 110.049 104.688 108.972C98.405 108.433 91.4035 108.613 86.7358 110.228C86.9154 114.537 88.3516 118.666 89.2492 122.795C89.4287 124.052 89.6083 125.847 89.9673 127.463ZM158.366 147.749C158.546 147.57 158.726 147.211 159.264 147.211C159.982 148.826 159.623 152.237 158.726 153.494C157.11 152.955 158.905 149.903 158.366 147.749ZM125.872 129.617C127.847 129.438 130.899 129.617 133.233 129.797C135.387 129.976 139.516 130.515 139.337 132.669C139.337 133.387 138.619 133.567 138.08 134.105C135.208 135.003 130.361 134.823 126.411 135.182C125.154 135.362 124.257 135.541 123.18 135.003C122.641 134.823 123.18 134.285 123 133.926C122.641 133.208 121.743 133.208 121.743 132.13C121.923 130.874 124.077 129.797 125.872 129.617Z" fill="#101336"/>
<path d="M127.129 133.208C128.565 133.387 130.899 133.387 132.335 133.208C130.899 132.849 128.386 132.849 127.129 133.208Z" fill="#FFECCF"/>
<path d="M141.132 38.0592C140.773 37.7002 140.414 37.3411 139.875 37.1616C139.875 37.8797 140.773 38.0592 141.132 38.0592Z" fill="#FFECCF"/>
<path d="M108.817 39.3162C107.74 39.6752 107.022 40.5729 106.304 41.1114C105.945 41.4705 105.047 41.4705 105.047 42.1886C107.74 40.3933 112.049 39.1366 115.819 38.239C113.665 38.7776 110.972 38.5981 108.817 39.3162Z" fill="#FFECCF"/>
<path d="M144.004 39.6751C144.363 39.8546 144.722 40.0342 145.082 40.2137C145.082 39.6751 143.825 39.4956 144.004 39.6751Z" fill="#FFECCF"/>
<path d="M132.515 26.2107C131.438 25.4926 130.002 24.236 128.565 23.6974C127.847 23.3383 126.411 23.6974 126.411 22.4407C127.847 21.7226 129.463 22.7998 130.361 23.3384C132.156 24.4155 133.951 25.8517 136.285 25.6722C135.387 24.9541 133.951 24.4155 132.874 23.8769C131.797 23.3383 130.181 22.9793 129.642 21.7226C130.54 20.825 131.438 21.9021 132.156 22.2612C133.951 23.1588 135.746 24.0565 137.362 25.1336C137.721 24.9541 138.619 25.1336 138.798 24.595C136.823 23.6974 134.131 22.0817 132.515 21.3636C132.156 21.184 131.258 21.184 131.258 20.4659C131.258 19.2093 133.592 20.4659 133.951 20.6455C136.285 21.7226 138.08 22.7998 140.414 23.8769C141.132 23.5179 142.03 23.3383 142.568 22.6202C140.414 22.2612 139.157 20.825 137.542 20.1069C136.644 19.5683 135.208 19.5683 134.849 18.3116C135.387 17.2345 136.285 18.3116 137.003 18.6707C137.362 18.8502 137.901 18.8502 138.26 19.0297C139.516 19.5683 140.594 20.6455 141.85 21.184C142.748 21.5431 143.645 21.3636 143.825 22.4407C144.184 22.0817 145.082 22.0817 145.261 21.5431C143.825 21.0045 142.389 20.2864 141.132 19.5683C139.875 18.8502 137.901 18.4912 137.362 17.055C138.08 16.1573 139.157 17.2345 139.696 17.5935C142.209 18.6707 144.723 19.9274 147.056 21.184C147.236 21.0045 147.775 21.0045 147.954 20.6455C146.697 20.1069 145.441 19.3888 144.364 18.8502C143.286 18.3116 141.85 17.5935 141.312 16.3368C142.03 15.4392 142.748 16.5164 143.286 16.8754C144.004 17.2345 144.723 17.5935 145.441 18.1321C147.595 19.3888 149.749 21.184 151.904 19.5683C150.467 18.8502 148.672 17.5935 147.056 17.055C146.697 16.8754 145.441 17.055 145.62 16.1573C145.62 15.0802 147.595 15.9778 148.313 16.3368C149.031 16.6959 150.467 17.2345 151.185 17.5935C152.622 18.4911 153.878 19.9274 155.315 18.4911C154.417 17.5935 153.34 16.8754 152.083 16.3368C151.006 15.6187 149.39 15.2597 149.031 13.8235C150.467 13.4645 151.724 14.5416 152.981 15.2597C155.135 16.5164 156.392 18.4912 158.905 17.055C157.289 15.9778 155.674 15.2597 154.058 14.3621C152.981 13.8235 151.365 13.4645 151.185 12.0283C151.365 12.0283 151.365 11.8487 151.545 11.8487C154.596 13.2849 157.289 15.0802 160.521 16.3368C161.059 16.1573 161.777 15.9778 162.137 15.6188C160.88 14.9007 159.623 14.1826 158.366 13.4645C157.11 12.9259 155.135 12.7464 154.776 11.1306C156.392 10.7716 157.828 11.8487 159.444 12.5668C161.059 13.2849 163.752 15.7983 165.009 14.1825C162.496 13.2849 159.982 12.2078 158.187 10.592C158.007 10.4125 158.187 9.87394 158.007 9.69442C152.622 7.89916 147.415 6.28343 142.389 4.30865C140.773 3.59055 137.901 2.33387 136.464 2.87244C131.079 4.48817 124.795 7.00154 118.871 8.0787C117.255 8.43775 116.537 8.61727 115.101 8.97632C110.972 10.233 106.663 11.1306 103.073 12.5668C99.8412 13.644 96.6098 15.0802 93.5579 16.1573C96.0712 17.055 98.7641 17.773 101.457 18.4911C105.047 19.5683 108.817 20.1069 112.588 20.825C119.23 22.0817 124.975 25.8517 132.515 26.2107Z" fill="#A5D9E7"/>
<path d="M141.132 36.623C142.209 37.3411 143.645 38.2388 144.902 38.4183C144.004 37.7002 142.748 36.623 141.132 36.623Z" fill="#FFECCF"/>
<path d="M115.101 35.7253C110.972 35.7253 108.458 36.8025 104.868 37.8796C104.868 38.4182 104.868 38.7773 104.868 39.3158C106.663 38.0592 108.458 36.982 110.972 36.623C112.408 36.4434 113.844 36.4434 115.101 35.7253Z" fill="#FFECCF"/>
<path d="M124.256 64.6292C128.206 64.9883 131.078 64.0906 133.771 63.5521C134.489 63.3725 135.028 63.5521 135.566 63.3725C138.618 62.4749 141.132 59.6025 142.209 56.9096C142.568 56.1915 142.388 55.2939 142.747 54.7553C143.286 53.8577 144.722 54.0372 145.62 53.3191C146.517 52.601 146.877 50.8058 146.338 49.5491C145.261 48.831 144.184 49.3696 143.825 48.2924C143.466 47.3948 144.004 47.2153 144.363 46.1381C144.722 45.061 144.722 43.6247 144.902 42.7271C144.543 41.8295 143.645 41.2909 143.106 40.5728C139.516 39.8547 137.003 36.6233 133.233 36.4437C131.976 36.4437 130.899 36.9823 129.642 36.9823C128.206 37.1618 126.77 36.4437 125.154 36.8028C123.897 36.9823 122.461 37.5209 121.204 38.0595C115.819 39.6752 108.638 40.5728 105.406 43.9838C105.227 45.7791 106.483 48.4719 104.868 48.831C103.79 49.0105 103.79 47.9334 102.713 48.1129C100.738 50.8058 102.534 54.5758 105.765 54.2168C106.304 54.2168 106.663 53.8577 107.201 53.6782C108.997 53.6782 109.356 55.1144 108.997 56.1915C109.715 57.0891 110.253 58.1663 111.151 58.8844C112.228 59.9616 113.664 61.2182 114.921 62.1159C117.075 63.193 121.384 64.4497 124.256 64.6292ZM131.258 47.5743C133.233 47.2153 134.489 50.8058 137.182 48.831C137.541 48.4719 137.721 47.5743 138.439 47.3948C139.516 47.0357 140.414 47.3948 140.593 48.1129C141.132 49.7286 138.259 51.3443 137.003 51.5239C135.925 51.7034 134.848 51.3443 133.771 51.5239C132.515 50.4467 129.463 49.3696 131.258 47.5743ZM124.436 50.0877C124.436 49.5491 124.077 49.0105 124.256 48.6515C124.615 47.2153 126.411 47.9334 126.77 49.0105C127.308 50.9853 126.59 54.7553 126.231 56.1915C126.77 56.5506 127.847 56.1915 128.385 56.3711C128.924 56.9096 128.924 57.8073 128.385 58.3458C127.129 58.5254 125.334 58.5254 124.077 58.3458C123 57.2687 123.897 56.1915 124.256 55.1144C124.615 53.4987 124.436 51.5239 124.436 50.0877ZM134.13 57.4482C134.848 57.0892 135.387 56.5506 135.925 56.012C136.644 55.4734 137.721 56.012 137.721 56.5506C138.08 57.9868 136.105 58.8844 135.207 59.423C133.951 60.1411 132.694 60.8592 131.617 61.0387C128.385 61.7568 122.102 61.7568 119.05 60.5001C118.691 60.3206 115.28 58.5254 115.28 57.9868C115.101 57.4482 115.46 57.0892 115.46 56.7301C117.255 55.8325 118.332 57.4482 119.948 58.1663C124.256 59.9616 130.899 59.2435 134.13 57.4482ZM111.331 49.0105C110.971 48.1129 111.51 47.5743 112.408 47.5743C114.023 47.3948 114.023 49.0105 115.46 49.19C116.178 49.19 117.434 48.831 117.973 48.4719C118.511 48.1129 118.871 47.0357 120.127 47.3948C120.486 47.5743 120.845 48.1129 120.845 48.2924C121.025 49.9081 117.255 51.8829 114.562 51.3443C113.305 51.1648 111.51 49.7286 111.331 49.0105Z" fill="#FFECCF"/>
<path d="M91.583 106.279C91.7625 106.279 91.942 106.279 92.1216 106.279C92.1216 105.92 91.9421 105.92 91.7625 105.74C91.7625 105.92 91.583 106.099 91.583 106.279Z" fill="#FFECCF"/>
<path d="M90.3262 106.458C90.5057 105.202 91.5829 104.125 90.5057 103.227C89.9671 104.304 89.7876 105.92 88.7104 106.458C89.0695 106.818 89.7876 106.279 90.3262 106.458Z" fill="#FFECCF"/>
<path d="M122.641 106.638C122.641 106.099 122.641 105.74 122.82 105.381C123.718 103.586 127.488 102.868 127.309 100.534C126.59 101.073 125.513 101.97 124.616 103.047C123.898 103.765 123 105.74 121.743 104.843C122.282 103.586 123.359 102.688 124.257 101.611C125.154 100.714 126.411 99.8159 127.129 98.7388C127.129 98.0207 127.129 97.4821 126.949 96.9435C125.872 97.8411 124.257 99.0978 123.179 100.534C122.641 101.252 122.461 102.688 121.384 102.329C121.025 100.714 122.641 99.4569 123.539 98.5592C124.616 97.4821 125.693 96.2254 126.77 95.1483C126.59 94.6097 126.77 93.7121 126.231 93.353C125.693 94.2506 124.975 95.3278 124.077 96.2254C123.359 97.123 122.641 98.3797 121.384 98.5592C121.025 97.123 122.461 96.0459 123.539 94.9687C124.975 93.5325 126.77 91.5577 125.693 89.2239C124.257 91.3782 122.82 93.5325 121.025 95.5073C120.666 95.6868 120.487 95.3278 120.128 95.5073C118.691 99.0978 115.819 94.9687 113.844 94.0711C112.587 92.6349 111.51 91.0192 110.254 89.4034C107.381 85.4539 103.252 82.2224 100.739 77.9138C100.2 77.0162 99.6617 75.2209 98.9436 75.4005C95.5326 76.6571 91.4035 77.9138 87.9925 79.5295C87.813 90.6601 91.0444 98.5592 94.2759 106.099C104.509 105.381 113.126 107.535 122.641 106.638Z" fill="#FFFCFE"/>
<path d="M89.2493 99.4569C88.8903 101.252 87.2745 103.047 88.3517 105.022C88.8903 103.406 90.6855 101.252 89.2493 99.4569Z" fill="#FFECCF"/>
<path d="M118.332 94.0713C120.307 91.7375 121.743 88.506 123.18 85.8131C123.718 84.9155 124.616 84.1974 124.795 83.2998C123.718 83.4793 123.18 82.7612 122.282 82.7612C117.794 80.7864 114.921 77.914 112.049 74.503C110.792 73.0668 109.536 71.8101 108.997 70.0149H108.817C106.484 71.8101 103.791 72.7078 101.636 74.503C103.791 78.0935 105.945 81.325 109.177 84.5564C112.767 87.7879 114.383 91.7375 118.332 94.0713Z" fill="#FFFCFE"/>
<path d="M168.061 12.7463C165.009 12.2077 162.136 10.951 159.444 10.2329C161.598 11.4896 164.111 12.5667 166.625 13.4644C166.984 13.2848 167.702 13.2848 168.061 12.7463Z" fill="#FFECCF"/>
<path d="M114.383 68.0399C113.485 68.399 112.408 68.5785 111.51 69.2966C112.408 70.3737 112.947 71.81 114.024 72.7076C114.203 71.2714 114.921 69.2966 114.383 68.0399Z" fill="#FFECCF"/>
<path d="M169.677 97.8413C168.599 100.175 165.907 101.073 166.266 104.843C167.702 103.586 168.599 101.97 169.856 100.534C169.856 99.8161 170.215 98.3799 169.677 97.8413Z" fill="#FFECCF"/>
<path d="M171.113 40.0342C171.113 39.6751 171.113 39.4956 170.933 39.4956C170.754 39.8547 170.215 39.6751 169.676 39.6751C169.497 40.3932 170.754 40.0342 171.113 40.0342Z" fill="#FFECCF"/>
<path d="M166.265 100.355C167.702 99.0981 168.42 97.1233 169.856 95.8666C169.856 94.969 170.035 93.8918 169.676 93.3533C168.958 96.0462 166.086 96.5847 166.265 100.355Z" fill="#FFECCF"/>
<path d="M166.983 91.5582C167.702 89.9425 170.215 88.8653 169.317 86.3519C168.599 87.9677 166.624 89.0448 166.983 91.5582Z" fill="#FFECCF"/>
<path d="M169.677 107.715C169.856 107.536 170.215 106.459 169.677 106.459C169.677 106.997 169.138 107.177 168.958 107.715C169.318 107.536 169.318 107.895 169.677 107.715Z" fill="#FFECCF"/>
<path d="M138.26 71.0921C138.619 70.374 139.516 69.4764 139.337 68.5788C139.157 67.5016 137.003 67.5016 136.105 66.963C136.285 68.7583 137.541 69.4764 138.26 71.0921Z" fill="#FFECCF"/>
<path d="M168.959 82.7614C168.42 83.8385 167.702 85.4542 167.881 86.7109C168.24 85.4542 169.856 84.3771 168.959 82.7614Z" fill="#FFECCF"/>
<path d="M169.676 102.868C168.779 104.484 167.163 105.382 166.625 107.356C166.984 107.356 167.343 107.356 167.522 107.536C168.24 106.1 170.574 105.022 169.676 102.868Z" fill="#FFECCF"/>
<path d="M166.625 95.6872C168.061 94.7895 168.24 92.6352 169.856 91.7376C169.676 91.199 170.215 90.3014 169.676 90.3014C168.42 91.9171 166.984 93.3533 166.625 95.6872Z" fill="#FFECCF"/>
<path d="M141.132 93.1736C140.414 94.0712 137.721 97.6617 136.105 97.6617C135.028 97.6617 134.489 95.8664 133.951 94.7893C132.515 91.3783 131.258 89.4035 129.104 87.0697C128.745 86.5311 128.386 85.813 128.027 85.9926C127.847 88.6854 128.745 91.3783 128.924 94.0712C129.283 98.2003 129.283 102.509 130.001 106.638C141.311 106.817 153.34 106.279 163.932 106.997C163.752 98.7388 163.752 90.3012 165.727 83.6587C166.086 82.402 167.163 80.7863 166.624 79.8887C166.265 79.3501 163.932 78.4525 163.034 78.0934C161.598 77.5549 160.162 77.1958 158.905 76.8367C155.853 75.7596 153.519 74.3234 150.647 73.9644C150.467 73.9644 150.467 74.1439 150.467 74.3234C149.749 79.3501 147.056 83.4792 144.543 87.4288C143.825 89.224 142.748 91.3783 141.132 93.1736ZM130.719 95.5074C130.54 94.4303 130.001 93.8917 130.001 92.635C130.719 91.5578 132.694 91.5578 132.874 93.1736C133.233 94.6098 132.515 96.5846 130.719 95.5074ZM133.592 101.432C130.719 103.047 130.719 97.4822 133.592 99.0979C133.951 99.6365 133.951 100.893 133.592 101.432Z" fill="#FFFCFE"/>
<path d="M128.745 82.7614C131.617 86.352 134.849 89.5834 136.464 94.6101C139.875 92.0968 141.67 87.9677 144.004 84.1977C145.979 80.9662 148.313 78.0938 148.492 73.2466C146.338 71.6309 144.543 69.6561 142.03 68.3994C139.696 75.4009 134.31 79.1709 128.745 82.7614Z" fill="#FFFCFE"/>
<path d="M137.541 71.8101C137.182 71.9897 136.823 71.9896 136.285 71.9896C134.669 70.5534 133.592 68.7582 133.233 66.0653C128.206 67.322 120.486 66.9629 116.537 64.9882C116.537 67.8606 117.614 73.6054 114.741 73.6054C117.793 77.1959 121.025 80.6069 126.949 81.325C130.719 78.4525 135.028 76.1187 137.541 71.8101Z" fill="#FFECCF"/>
<path d="M126.052 87.6086C126.052 87.07 126.052 86.711 125.872 86.3519C125.154 87.6086 124.077 89.4039 123.718 90.481C124.615 89.7629 124.615 87.9677 126.052 87.6086Z" fill="#FFECCF"/>
<path d="M127.308 103.227C126.231 104.484 124.436 105.202 123.718 106.818C125.334 107.177 125.513 106.099 126.231 105.202C126.949 104.484 128.206 104.125 127.308 103.227Z" fill="#FFECCF"/>
<path d="M127.488 105.561C127.308 105.92 126.77 106.1 126.59 106.638C126.949 106.638 127.308 106.638 127.667 106.638C127.667 106.638 127.847 105.741 127.488 105.561Z" fill="#FFECCF"/>
<path d="M168.599 43.2657C168.42 44.702 167.702 47.2153 168.779 48.1129C168.599 46.4972 169.138 44.3429 168.599 43.2657Z" fill="#FFECCF"/>
<path d="M133.592 51.344C134.669 51.1645 135.746 51.5236 136.823 51.344C137.901 51.1645 140.773 49.5488 140.414 47.9331C140.234 47.215 139.337 46.8559 138.26 47.215C137.542 47.3945 137.542 48.2921 137.003 48.6512C134.49 50.6259 133.233 47.0354 131.079 47.3945C129.463 49.3693 132.515 50.4464 133.592 51.344Z" fill="#18353F"/>
<path d="M120.846 48.2925C120.846 48.113 120.487 47.3949 120.128 47.3949C118.871 47.0358 118.512 48.113 117.973 48.4721C117.435 48.8311 116.178 49.1901 115.46 49.1901C114.024 49.0106 114.024 47.3949 112.408 47.5744C111.69 47.754 111.151 48.113 111.331 49.0106C111.51 49.5492 113.485 51.1649 114.562 51.3444C117.435 51.883 121.025 50.0878 120.846 48.2925Z" fill="#18353F"/>
<path d="M123.897 58.346C125.154 58.5255 126.949 58.5255 128.206 58.346C128.745 57.8074 128.745 56.9097 128.206 56.3712C127.667 56.0121 126.59 56.3712 126.052 56.1916C126.411 54.7554 126.949 50.9854 126.59 49.0106C126.411 47.9335 124.436 47.2154 124.077 48.6516C123.897 49.0106 124.256 49.5492 124.256 50.0878C124.436 51.524 124.436 53.4988 124.077 54.935C123.897 56.1916 122.82 57.2688 123.897 58.346Z" fill="#18353F"/>
<path d="M115.819 56.7299C115.64 57.0889 115.46 57.448 115.64 57.9865C115.819 58.5251 119.051 60.3204 119.41 60.4999C122.462 61.7566 128.745 61.7566 131.976 61.0385C133.054 60.859 134.31 60.1409 135.567 59.4228C136.465 58.8842 138.439 57.9866 138.08 56.5504C137.901 56.0118 137.003 55.4732 136.285 56.0118C135.746 56.5504 135.028 57.0889 134.49 57.448C131.079 59.2432 124.436 59.9613 120.487 58.1661C118.512 57.448 117.614 55.8322 115.819 56.7299Z" fill="#18353F"/>
<path d="M132.874 93.1738C132.694 91.7376 130.719 91.558 130.001 92.6352C130.001 93.8919 130.54 94.4305 130.719 95.5076C132.515 96.5848 133.233 94.61 132.874 93.1738Z" fill="#18353F"/>
<path d="M133.592 101.432C133.951 100.893 133.951 99.6365 133.592 99.0979C130.719 97.4822 130.719 103.047 133.592 101.432Z" fill="#18353F"/>
<path d="M123 133.747C123.179 134.106 122.641 134.644 123.179 134.824C124.257 135.362 125.334 135.183 126.411 135.003C130.36 134.644 135.208 135.003 138.08 133.926C138.439 133.387 139.157 133.208 139.337 132.49C139.516 130.336 135.567 129.797 133.233 129.617C130.899 129.438 127.847 129.258 125.872 129.438C124.077 129.617 121.923 130.695 121.743 131.951C121.743 133.028 122.641 133.028 123 133.747ZM127.129 133.208C128.386 132.849 130.899 132.849 132.335 133.208C130.719 133.387 128.565 133.387 127.129 133.208ZM133.592 131.054C135.387 131.233 137.182 131.413 138.08 132.31C137.362 133.387 135.387 133.028 134.31 133.567C134.31 133.208 134.489 133.028 134.31 132.669C132.515 131.413 127.847 131.413 125.872 132.49C125.693 132.669 125.872 133.387 125.693 133.387C124.616 133.387 124.077 132.669 123.179 132.31C124.436 130.156 129.822 130.874 133.592 131.054Z" fill="#18353F"/>
<path d="M158.725 153.494C159.623 152.238 159.982 149.006 159.264 147.211C158.725 147.031 158.546 147.39 158.366 147.749C158.905 149.904 157.11 152.956 158.725 153.494Z" fill="#18353F"/>
<path d="M84.2224 112.921C87.2743 124.411 89.7876 137.157 92.1215 149.365C92.4805 151.34 93.0191 153.315 94.6348 154.392C104.868 154.212 113.485 155.11 122.82 155.828C124.975 156.008 127.129 155.648 129.283 155.828C133.951 156.187 139.157 156.367 144.722 156.367C150.647 156.367 156.392 156.187 161.239 155.828C164.47 155.648 167.522 156.008 169.856 154.751C170.215 154.571 172.01 152.597 172.01 152.417C172.549 151.34 172.728 149.006 172.908 147.211C173.626 141.646 174.524 136.26 175.062 130.515C175.242 128.72 175.062 127.104 175.242 125.309C175.601 122.436 176.319 119.384 177.037 116.692C177.217 115.794 177.755 114.896 177.935 113.999C178.473 109.87 175.601 108.254 172.369 107.895C172.19 101.073 172.549 93.8918 172.19 87.2493C172.01 84.736 171.831 81.325 170.754 79.7093C170.036 78.6321 168.42 77.914 166.984 77.1959C162.495 75.0416 157.289 73.9644 152.981 71.9897C151.365 72.1692 150.826 71.2716 149.57 71.092C148.672 70.1944 147.774 69.4763 146.697 68.7582C145.62 68.0401 144.902 66.963 143.645 66.4244C141.85 65.7063 139.696 66.2449 138.08 64.9882C141.85 63.3725 143.825 59.9615 145.261 56.1914C149.39 56.0119 150.826 48.4719 146.877 47.0356C147.056 44.3428 147.774 42.1885 147.595 39.3161C149.929 37.5208 148.313 31.4169 148.133 28.7241C147.954 26.7493 148.492 24.954 147.954 23.3383C149.57 22.4407 151.544 22.0816 152.981 21.543C158.546 19.5683 163.752 17.5935 168.599 15.6187C168.599 23.1588 168.779 30.3398 169.317 37.1618C168.24 37.7003 167.522 38.598 167.702 40.3932C166.804 41.4704 165.906 45.0609 166.265 47.7537C166.625 49.549 167.702 51.8828 169.138 50.0876C169.317 50.6262 169.856 50.8057 170.574 50.6262C172.19 49.3695 170.574 45.779 171.292 43.4451C171.651 43.9837 172.19 46.138 172.549 47.5742C172.728 48.8309 172.549 50.0876 174.165 49.7285C174.883 49.19 174.883 48.1128 174.703 47.2152C174.524 45.0609 173.806 42.727 172.908 41.6499C173.985 40.7523 173.446 38.0594 172.728 37.1618C172.369 36.8027 171.651 36.9822 171.292 36.8027C170.754 29.6217 170.574 22.2611 170.574 14.5415C171.472 13.8234 172.728 14.362 172.908 13.1053C173.087 11.3101 170.215 11.1306 169.138 10.7715C163.752 9.51485 159.264 7.71959 154.955 6.28339C151.724 5.20624 148.492 4.30859 145.441 3.23144C142.389 2.15428 139.337 0.538576 136.105 0C135.926 0 135.746 -1.6436e-05 135.567 0.179509C133.412 1.07714 131.078 2.15429 128.745 2.87239C124.975 4.12907 120.846 5.02671 116.716 5.74481C114.742 6.10386 112.946 7.00149 110.972 7.54006C108.997 8.25816 106.843 8.43769 104.868 8.97627C100.918 10.0534 97.1482 12.0282 93.3782 13.2849C91.2239 14.003 89.0695 14.5416 87.2743 15.6187C87.0948 17.5935 87.9924 17.4139 89.7877 17.5935C92.1215 17.773 94.8144 19.0297 97.1482 19.7478C99.123 20.2864 101.098 20.2863 102.354 21.184C102.175 29.6217 101.816 38.2389 103.252 45.4199C100.2 45.4199 99.123 48.6514 99.6615 52.0624C100.2 54.9348 103.432 56.5505 106.483 56.1914C107.022 56.9095 107.202 57.8072 107.74 58.3458C109.535 61.0386 113.126 62.1158 114.203 65.3472C112.946 65.5268 112.049 66.4244 110.613 66.6039C110.074 66.6039 109.715 66.2449 109.176 66.4244C107.74 66.6039 105.586 68.3992 103.97 69.4763C103.073 70.0149 102.175 70.5535 101.457 70.9125C100.559 71.4511 99.8411 72.1692 98.9435 72.7078C97.8663 73.4259 95.8915 73.6054 94.2758 74.144C91.0443 75.0416 88.7105 77.0164 85.2995 77.3754C83.5043 86.5312 84.5814 98.5594 86.1971 106.997C84.0428 107.356 83.6838 110.229 84.2224 112.921ZM168.779 48.1128C167.702 47.2152 168.42 44.7018 168.599 43.2656C169.138 44.3428 168.599 46.4971 168.779 48.1128ZM170.933 39.3161C171.113 39.3161 171.113 39.6751 171.113 39.8546C170.754 40.0342 169.497 40.2137 169.676 39.4956C170.215 39.6751 170.754 39.6751 170.933 39.3161ZM169.676 106.459C170.215 106.638 169.856 107.536 169.676 107.715C169.317 107.715 169.317 107.536 168.958 107.536C169.138 107.177 169.676 106.997 169.676 106.459ZM167.522 107.536C167.343 107.356 166.984 107.356 166.624 107.356C167.163 105.381 168.779 104.304 169.676 102.868C170.574 105.022 168.24 106.1 167.522 107.536ZM170.035 100.534C168.779 101.97 167.881 103.766 166.445 104.843C166.086 101.073 168.779 100.175 169.856 97.8413C170.215 98.3799 169.856 99.8161 170.035 100.534ZM170.035 95.8666C168.599 97.1232 167.881 99.098 166.445 100.355C166.086 96.5847 168.958 95.8666 169.856 93.3532C170.036 93.8918 169.856 94.9689 170.035 95.8666ZM169.676 91.7375C168.24 92.6351 167.881 94.7894 166.445 95.687C166.804 93.1737 168.24 91.917 169.317 90.1217C170.035 90.3013 169.676 91.1989 169.676 91.7375ZM166.984 91.558C166.445 89.0446 168.599 87.9674 169.317 86.3517C170.215 88.8651 167.881 89.9422 166.984 91.558ZM168.958 82.7612C170.036 84.3769 168.42 85.4541 167.881 86.7107C167.702 85.4541 168.42 83.8383 168.958 82.7612ZM150.826 74.503C150.826 74.3235 150.826 74.144 151.006 74.144C153.699 74.3235 156.032 75.9392 159.264 77.0164C160.521 77.3754 162.136 77.7345 163.393 78.2731C164.291 78.6321 166.625 79.3502 166.984 80.0683C167.522 80.9659 166.445 82.5817 166.086 83.8384C164.111 90.3013 164.111 98.739 164.291 107.177C153.519 106.459 141.491 106.997 130.36 106.818C129.642 102.689 129.642 98.5594 129.283 94.2508C129.104 91.558 128.027 89.0446 128.386 86.1722C128.745 85.9927 129.104 86.7108 129.463 87.2493C131.617 89.5832 132.694 91.5579 134.31 94.9689C134.849 96.0461 135.387 97.6618 136.464 97.8413C138.08 98.0209 140.773 94.2508 141.491 93.3532C142.927 91.3784 144.184 89.4036 145.261 87.6084C147.415 83.6588 149.929 79.3502 150.826 74.503ZM127.488 105.561C127.847 105.561 127.668 106.459 127.668 106.638C127.308 106.638 126.949 106.638 126.59 106.638C126.77 106.1 127.308 106.099 127.488 105.561ZM126.231 105.022C125.334 105.92 125.154 106.997 123.718 106.638C124.436 105.022 126.231 104.304 127.308 103.048C128.206 104.125 126.949 104.484 126.231 105.022ZM126.949 81.325C121.025 80.6069 117.794 77.1959 114.742 73.6054C117.794 73.6054 116.537 68.0401 116.537 64.9882C120.486 66.963 128.206 67.322 133.233 66.0653C133.592 68.5787 134.669 70.5535 136.285 71.9897C136.823 71.9897 137.182 71.9897 137.541 71.8102C135.028 76.1188 130.719 78.4526 126.949 81.325ZM126.052 87.6084C124.616 87.9674 124.616 89.7627 123.538 90.4808C123.897 89.2241 124.975 87.6084 125.693 86.3517C126.052 86.5312 126.052 87.0698 126.052 87.6084ZM148.492 73.4259C148.313 78.2731 145.979 81.1455 144.004 84.3769C141.85 88.147 139.875 92.276 136.464 94.7894C134.849 89.7627 131.617 86.5312 128.745 82.9407C134.13 79.1707 139.516 75.4007 141.85 68.5787C144.363 69.8354 146.338 71.6306 148.492 73.4259ZM139.157 68.5787C139.337 69.4763 138.439 70.1944 138.08 71.092C137.541 69.4763 136.105 68.7582 135.926 66.963C137.003 67.5015 138.978 67.5015 139.157 68.5787ZM168.061 12.7463C167.702 13.1053 166.984 13.1053 166.624 13.6439C164.111 12.7463 161.777 11.6691 159.443 10.4125C161.957 10.951 165.009 12.2077 168.061 12.7463ZM101.098 18.3116C98.4049 17.414 95.712 16.8754 93.1986 15.9777C96.2506 14.9006 99.482 13.4644 102.713 12.3872C106.304 11.1306 110.613 10.2329 114.742 8.79673C115.998 8.43768 116.896 8.07863 118.512 7.89911C124.257 6.82195 130.719 4.30861 136.105 2.69288C137.541 2.33383 140.414 3.59049 142.03 4.12906C147.056 6.10384 152.262 7.71957 157.648 9.51482C157.828 9.69435 157.648 10.2329 157.828 10.4125C159.623 12.0282 162.136 13.1053 164.65 14.003C163.214 15.6187 160.521 13.1053 159.084 12.3872C157.469 11.6691 156.033 10.592 154.417 10.951C154.776 12.5668 156.751 12.7463 158.007 13.2849C159.444 14.003 160.7 14.7211 161.777 15.4392C161.418 15.7982 160.7 15.9778 160.162 16.1573C156.751 15.0801 154.237 13.1054 151.185 11.6692C151.006 11.6692 151.006 11.8487 150.826 11.8487C150.826 13.2849 152.622 13.6439 153.699 14.1825C155.314 15.0801 156.93 15.7982 158.546 16.8754C156.033 18.3116 154.596 16.3368 152.622 15.0801C151.365 14.362 150.108 13.2849 148.672 13.6439C149.031 15.0801 150.647 15.4392 151.724 16.1573C152.801 16.8754 154.058 17.414 154.955 18.3116C153.34 19.5683 152.262 18.1321 150.826 17.414C150.108 17.0549 148.672 16.5163 147.954 16.1573C147.236 15.7982 145.261 14.9006 145.261 15.9777C145.261 16.6959 146.338 16.6959 146.697 16.8754C148.313 17.414 150.108 18.8501 151.544 19.3887C149.39 21.184 147.415 19.2092 145.081 17.9525C144.363 17.5935 143.645 17.2344 142.927 16.6958C142.389 16.3368 141.67 15.2597 140.952 16.1573C141.491 17.414 142.927 17.9525 144.004 18.6706C145.261 19.3887 146.338 19.9273 147.595 20.4659C147.415 20.8249 146.877 20.8249 146.697 21.0045C144.363 19.9273 141.85 18.6706 139.337 17.414C138.798 17.0549 137.721 16.1573 137.003 16.8754C137.541 18.3116 139.516 18.6706 140.773 19.3887C142.209 20.1068 143.466 20.8249 144.902 21.3635C144.722 21.9021 143.825 21.9021 143.466 22.2611C143.107 21.3635 142.389 21.543 141.491 21.0045C140.234 20.4659 139.157 19.5683 137.9 18.8502C137.541 18.6706 137.182 18.6706 136.644 18.4911C135.926 18.132 135.208 17.0549 134.489 18.132C134.849 19.3887 136.285 19.3887 137.182 19.9273C138.798 20.8249 140.055 22.0816 142.209 22.4407C141.67 22.9793 140.773 23.1588 140.055 23.6973C137.9 22.6202 135.926 21.543 133.592 20.4659C133.233 20.2864 130.899 19.0297 130.899 20.2863C130.899 21.0044 131.797 21.0044 132.156 21.184C133.951 21.9021 136.464 23.5178 138.439 24.4154C138.26 24.7745 137.541 24.7745 137.003 24.954C135.387 23.8769 133.592 22.9792 131.797 22.0816C131.078 21.7226 130.001 20.8249 129.283 21.543C129.822 22.6202 131.438 22.9792 132.515 23.6973C133.592 24.4154 135.028 24.7745 135.926 25.4926C133.771 25.6721 131.976 24.2359 130.001 23.1588C129.104 22.6202 127.308 21.543 126.052 22.2611C126.052 23.5178 127.488 23.3383 128.206 23.5178C129.642 24.0564 131.079 25.3131 132.156 26.0312C124.436 25.4926 118.871 21.9021 111.869 20.4659C108.458 19.9273 104.688 19.3887 101.098 18.3116ZM141.132 36.6232C142.568 36.4436 143.825 37.7003 144.902 38.4184C143.825 38.4184 142.209 37.5208 141.132 36.6232ZM145.081 40.0341C144.722 39.8546 144.363 39.6751 144.004 39.4956C143.825 39.4956 145.081 39.6751 145.081 40.0341ZM124.077 33.2122C120.127 33.7508 115.819 33.2122 112.228 33.3917C110.254 33.5712 108.099 34.1098 106.304 34.6484C105.765 34.8279 105.227 35.3665 104.509 35.0075C104.329 34.1098 105.227 35.0075 105.406 34.4689C106.663 34.1098 108.458 33.5713 109.894 33.2122C110.613 33.0327 112.946 33.3917 113.126 32.4941C113.305 31.2374 109.715 32.135 108.997 32.3146C107.202 32.6736 106.663 33.0327 104.868 33.5712C104.868 33.0327 104.868 32.6736 104.868 32.135C106.663 32.3146 108.817 30.6988 110.792 30.5193C111.331 30.5193 112.228 31.0579 112.408 30.1602C111.69 28.365 108.817 29.6217 107.381 30.1602C106.483 30.5193 105.586 31.0579 104.329 31.0579C104.329 30.6988 104.15 30.5193 104.15 30.1602C105.586 29.9807 107.74 28.7241 109.715 28.5445C110.433 28.365 111.51 28.9036 111.869 28.0059C111.51 26.7493 110.074 27.4674 108.997 27.6469C107.202 28.006 106.304 28.5445 104.509 29.0831C104.509 28.5445 104.509 28.006 104.509 27.6469C106.304 26.5697 108.997 26.3902 111.151 26.2107C110.972 24.2359 107.92 25.1336 106.304 25.4926C105.586 25.6721 104.868 26.0312 104.509 26.2107C104.15 24.954 104.509 23.3383 104.329 21.9021C104.509 21.9021 104.509 21.7226 104.509 21.9021C108.099 22.6202 111.69 22.9792 115.28 24.0564C116.896 24.595 118.332 25.3131 119.768 25.8516C122.641 26.7493 125.334 27.2878 128.027 28.365C129.104 28.724 130.181 29.2626 131.258 29.4422C131.617 29.4422 131.797 29.2626 132.156 29.2626C132.694 29.2626 133.233 29.6217 133.592 29.4422C135.028 29.2626 136.464 28.0059 137.9 27.4674C138.439 27.2878 138.978 27.2878 139.337 27.1083C141.491 26.3902 143.107 24.954 145.081 24.2359C145.081 28.5445 146.338 32.135 145.979 36.4436C141.311 32.8531 132.156 32.3146 124.077 33.2122ZM141.132 38.0594C140.952 38.0594 139.875 37.8799 139.875 37.1618C140.414 37.3413 140.593 37.8799 141.132 38.0594ZM106.304 41.1113C107.202 40.5727 107.74 39.6751 108.817 39.3161C110.972 38.5979 113.665 38.7775 115.819 38.0594C112.049 39.1365 107.74 40.3932 105.047 42.0089C105.047 41.4704 105.945 41.4704 106.304 41.1113ZM104.868 39.3161C104.868 38.7775 104.868 38.4184 104.868 37.8798C108.458 36.8027 110.972 35.9051 115.101 35.7255C113.844 36.4436 112.408 36.2641 110.972 36.6232C108.458 36.9822 106.663 38.0594 104.868 39.3161ZM111.151 58.7048C110.433 57.9867 109.715 56.9095 108.997 56.0119C109.535 54.9348 108.997 53.4985 107.202 53.4985C106.663 53.4985 106.304 53.8576 105.765 54.0371C102.534 54.3962 100.739 50.6262 102.713 47.9333C103.791 47.7537 103.611 48.8309 104.868 48.6514C106.663 48.2923 105.406 45.5994 105.406 43.8042C108.638 40.3932 115.639 39.4956 121.205 37.8798C122.641 37.5208 123.897 36.9822 125.154 36.6232C126.949 36.4436 128.206 36.9822 129.642 36.8027C131.078 36.6232 131.976 36.2641 133.233 36.2641C137.003 36.4437 139.516 39.4956 143.107 40.3932C143.645 41.1113 144.543 41.6499 144.902 42.5475C144.722 43.4451 144.722 44.7018 144.363 45.9585C144.004 46.8561 143.645 47.2152 143.825 48.1128C144.184 49.1899 145.441 48.8309 146.338 49.3695C146.877 50.6262 146.518 52.2419 145.62 53.1395C144.722 53.8576 143.466 53.6781 142.748 54.5757C142.389 55.1143 142.389 56.0119 142.209 56.73C141.132 59.4229 138.619 62.2953 135.567 63.1929C135.028 63.3725 134.31 63.3724 133.771 63.3724C130.899 63.911 128.206 64.8087 124.256 64.4496C121.384 64.2701 117.076 63.0134 114.921 61.7567C113.665 61.2181 112.408 59.782 111.151 58.7048ZM114.383 68.0401C115.101 69.2968 114.383 71.2716 114.203 72.5283C113.126 71.6306 112.408 70.1944 111.69 69.1173C112.228 68.5787 113.485 68.3992 114.383 68.0401ZM108.997 69.8354H109.176C109.715 71.6306 110.972 72.8873 112.228 74.3235C114.921 77.7345 117.973 80.7864 122.461 82.7612C123.538 82.7612 123.897 83.2998 124.975 83.1202C124.795 84.0179 123.897 84.736 123.359 85.6336C121.743 88.3265 120.486 91.5579 118.512 93.8918C114.562 91.5579 112.767 87.4288 109.356 84.0179C106.304 80.9659 103.97 77.7345 101.816 74.144C103.97 72.5282 106.663 71.6306 108.997 69.8354ZM99.3025 75.2211C100.2 74.8621 100.739 76.8368 101.098 77.7345C103.611 82.2226 107.74 85.4541 110.613 89.2241C111.869 90.8399 112.946 92.4556 114.203 93.8918C115.998 94.7894 119.05 98.9185 120.487 95.328C120.666 95.1484 120.846 95.5075 121.384 95.328C123.179 93.5327 124.616 91.1989 126.052 89.0446C127.129 91.3784 125.334 93.1737 123.897 94.7894C123 95.8665 121.564 96.9437 121.743 98.3799C123 98.2004 123.718 96.9437 124.436 96.0461C125.154 95.1485 125.872 94.2508 126.59 93.1737C126.949 93.5327 126.77 94.4304 127.129 94.9689C126.052 96.0461 124.975 97.1232 123.897 98.3799C123 99.4571 121.384 100.534 121.743 102.15C122.82 102.329 123 100.893 123.538 100.355C124.616 98.9185 126.052 97.6618 127.308 96.7642C127.488 97.3027 127.488 97.8413 127.488 98.5594C126.59 99.6366 125.513 100.355 124.616 101.432C123.718 102.329 122.641 103.407 122.102 104.663C123.359 105.561 124.257 103.766 124.975 102.868C125.872 101.97 126.949 100.893 127.668 100.355C127.847 102.689 124.257 103.586 123.179 105.202C123 105.561 123 106.099 123 106.459C113.485 107.356 104.868 105.202 94.9939 105.74C91.7624 98.0209 88.531 90.3013 88.7105 79.1707C91.7624 77.7345 95.712 76.4778 99.3025 75.2211ZM92.1215 106.279C91.9419 106.279 91.7624 106.279 91.5829 106.279C91.5829 106.1 91.7624 106.1 91.7624 105.74C91.942 105.92 92.1215 105.92 92.1215 106.279ZM90.5057 103.227C91.5829 104.304 90.5057 105.202 90.3262 106.459C89.6081 106.279 89.0695 106.818 88.7105 106.459C89.7876 105.74 89.9672 104.304 90.5057 103.227ZM88.531 105.022C87.4538 103.048 88.89 101.252 89.4286 99.4571C90.6853 101.252 88.89 103.407 88.531 105.022ZM88.7105 97.4823C88.3514 98.2004 88.3514 99.4571 87.6333 99.9956C87.2743 97.3028 87.2743 94.4303 87.0948 91.7375C87.8129 93.5327 87.9924 95.8665 88.7105 97.4823ZM104.329 108.433C115.998 109.51 128.206 108.972 141.311 108.972C147.774 108.972 154.417 108.613 159.982 108.972C164.829 109.331 169.138 110.229 174.165 110.588C174.703 111.306 175.421 111.665 175.421 112.742C175.421 113.46 175.062 113.64 174.883 114.358C174.703 114.717 174.883 115.255 174.703 115.614C174.165 119.384 172.908 122.975 172.549 127.104C172.549 128.002 172.549 128.72 172.549 129.617C172.01 135.901 171.113 142.364 170.215 147.57C170.215 148.108 169.497 147.39 169.317 147.749C168.779 149.186 168.599 151.16 168.061 152.597C167.702 152.597 166.984 152.956 166.624 152.776C166.804 152.058 167.702 147.57 166.445 147.39C165.009 147.211 166.265 152.417 165.188 153.135C164.65 152.956 164.47 153.315 163.932 153.315C164.291 152.597 164.829 148.108 163.752 147.929C161.957 147.749 164.111 153.494 162.316 153.494C161.418 152.238 163.034 148.108 161.418 147.929C159.982 147.749 161.059 152.238 160.7 153.494C158.905 153.674 157.289 153.674 155.494 153.853C155.673 152.417 156.571 149.365 155.314 148.288C154.417 148.647 154.417 150.981 154.417 152.597C154.417 153.135 154.417 154.212 154.596 154.212C154.237 154.212 153.699 154.212 153.34 154.212C152.981 152.417 154.058 147.57 152.801 147.57C151.365 147.39 152.442 152.417 152.083 154.212C151.544 154.212 151.006 154.212 150.647 154.212C150.288 152.417 151.365 147.39 150.108 147.39C148.672 147.211 149.749 152.417 149.39 154.212C148.672 154.212 147.954 154.212 147.236 154.212C146.877 152.417 147.954 148.647 146.697 148.467C145.261 148.288 146.338 152.417 145.979 154.212C145.62 154.212 145.081 154.212 144.722 154.212C144.363 152.417 145.441 148.827 144.184 148.647C142.927 148.467 143.825 152.417 143.466 154.212C142.927 154.212 142.389 154.212 142.03 154.212C141.671 152.417 142.748 148.827 141.491 148.647C140.234 148.467 141.132 152.417 140.773 154.212C140.234 154.212 139.516 154.212 138.978 154.212C138.619 152.417 139.337 148.647 138.08 148.467C136.644 148.288 138.08 152.417 137.541 154.212C137.003 154.212 136.285 154.212 135.746 154.212C135.387 152.417 136.464 148.288 135.208 148.108C133.771 147.929 134.849 152.776 134.489 154.033C133.771 154.033 133.412 153.853 132.694 153.853C131.976 153.135 133.233 147.929 131.797 147.749C130.54 147.57 131.258 152.597 131.258 153.674C130.719 153.674 130.181 153.494 129.822 153.494C129.463 151.878 130.54 148.467 129.283 148.467C127.847 148.288 128.924 152.597 128.565 154.392C128.027 154.392 127.308 154.392 126.77 154.392C126.949 152.597 126.59 152.417 126.59 151.16C126.411 149.904 126.949 147.57 126.052 147.57C124.975 147.57 125.334 149.365 125.334 150.263C125.334 151.519 125.693 152.417 125.513 153.674C124.975 153.674 124.257 153.853 123.897 153.494C123.538 152.417 124.077 148.467 123 148.288C121.564 148.108 123 152.417 122.461 154.212C122.102 154.212 121.743 154.212 121.384 154.212C120.487 152.417 121.923 147.929 120.487 147.749C119.23 147.57 119.948 152.597 119.948 153.494C119.409 153.494 118.871 153.315 118.512 153.135C117.973 152.058 119.05 147.211 117.794 147.031C116.537 146.852 117.255 151.699 117.255 152.956C116.537 152.776 115.639 152.776 115.101 152.597C114.742 151.16 115.819 147.39 114.562 147.211C113.305 147.031 114.024 151.16 114.024 152.417C113.485 152.776 112.946 152.238 112.228 152.417C112.049 151.16 112.408 147.031 111.331 146.852C109.894 146.672 111.331 150.981 110.792 152.417C110.254 152.417 109.894 152.417 109.535 152.238C109.356 150.442 109.894 147.031 108.638 146.852C107.381 146.672 108.638 150.801 108.099 152.058C107.561 152.058 106.843 152.058 106.304 151.878C105.406 151.34 106.484 146.134 105.227 145.954C103.791 145.775 105.047 150.981 105.047 151.878C104.509 151.699 103.97 151.699 103.252 151.699C102.713 151.16 102.893 146.493 101.636 146.672C100.38 146.852 102.175 150.981 101.995 151.699C101.098 151.699 100.2 151.699 99.482 151.519C98.7639 149.904 99.8411 146.672 98.0458 146.313C97.3277 147.39 98.4048 150.263 98.2253 152.058C97.8663 152.058 97.3277 152.058 96.9687 152.058C96.7891 150.263 96.4301 146.672 95.353 146.852C94.0963 147.031 96.071 150.442 95.712 151.519C94.2758 150.801 93.7372 148.827 93.5577 147.211C93.1986 145.775 93.1986 143.979 92.8396 142.543C91.9419 137.337 90.6853 132.49 89.6081 127.284C89.2491 125.488 89.0695 123.693 88.7105 122.077C87.8129 118.128 86.3767 113.819 86.1971 109.51C91.2239 108.074 98.0458 107.895 104.329 108.433Z" fill="#18353F"/>
<defs>
<filter id="filter0_f_0_1" x="0" y="43" width="253" height="225" filterUnits="userSpaceOnUse" color-interpolation-filters="sRGB">
<feFlood flood-opacity="0" result="BackgroundImageFix"/>
<feBlend mode="normal" in="SourceGraphic" in2="BackgroundImageFix" result="shape"/>
<feGaussianBlur stdDeviation="37" result="effect1_foregroundBlur_0_1"/>
</filter>
</defs>
</svg>
