<svg width="227" height="373" viewBox="0 0 227 373" fill="none" xmlns="http://www.w3.org/2000/svg">
<path d="M125.747 182.372C124.826 182.372 124.826 183.837 125.747 183.837C126.71 183.837 126.71 182.372 125.747 182.372Z" fill="#02C5BD"/>
<path d="M117.709 100.899C116.788 100.899 116.788 102.365 117.709 102.365C118.63 102.365 118.63 100.899 117.709 100.899Z" fill="#02C5BD"/>
<path fill-rule="evenodd" clip-rule="evenodd" d="M151.831 39.7735C151.705 39.7735 151.621 39.7317 151.538 39.6898L139.312 32.2794L127.087 39.6898C127.004 39.7317 126.878 39.7735 126.794 39.7735C126.669 39.7735 126.543 39.7317 126.459 39.6479C126.25 39.5223 126.166 39.2711 126.25 39.0199L129.558 25.1201L118.714 15.7838C118.547 15.6163 118.463 15.3651 118.547 15.1558C118.63 14.9465 118.84 14.779 119.049 14.7371L133.284 13.5649L138.81 0.376806C138.894 0.167471 139.103 0 139.354 0C139.606 0 139.815 0.125604 139.899 0.376806L145.425 13.5649L159.66 14.7371C159.911 14.7371 160.12 14.9046 160.162 15.1558C160.246 15.3651 160.162 15.6163 159.995 15.7838L149.151 25.1201L152.459 39.0199C152.501 39.2711 152.417 39.4805 152.249 39.6479C152.082 39.7317 151.956 39.7735 151.831 39.7735Z" fill="#FACB01"/>
<path fill-rule="evenodd" clip-rule="evenodd" d="M149.821 234.873C148.105 234.915 143.834 232.486 143.834 232.486C143.834 232.486 143.415 231.733 142.536 228.258C142.411 227.839 140.61 217.791 138.936 208.539C141.866 207.743 143.834 207.157 143.834 207.157C143.834 207.157 131.023 155.786 130.186 150.218C129.348 144.65 124.868 96.9634 124.868 96.9634C125.622 92.7767 133.367 83.1473 135.335 76.8254C136.214 74.0622 140.61 62.172 141.406 52.7101L133.2 50.3237V49.1514L132.614 48.9002C132.739 48.3141 133.116 47.5605 133.409 47.0581C133.786 46.3464 134.833 45.844 135.544 42.5365C135.67 41.9085 136.633 40.3594 137.01 39.3965C137.638 37.8055 137.638 36.8426 137.01 37.01C136.8 37.0519 136.214 38.5591 136.005 38.9359C135.796 39.3127 135.042 40.4431 134.833 40.4431C134.623 40.4431 135 38.1823 135.126 37.7637C135.251 37.345 136.005 35.6284 136.089 35.2516C136.172 34.7911 135.628 34.498 135.335 34.7911C135 35.0842 134.121 36.5914 133.954 37.0519C133.786 37.5124 133.116 39.4802 132.991 39.5639C132.865 39.6477 133.032 37.7218 133.2 36.8426C133.367 36.0052 134.079 33.87 134.079 33.2839C134.079 32.8652 133.493 32.4884 133.158 32.9071C132.823 33.3258 131.944 35.6703 131.818 36.0471C131.693 36.4239 131.4 38.3917 131.065 38.8103C130.688 39.3127 130.562 39.229 130.479 38.8522C130.395 38.5173 130.688 36.1727 130.688 36.0052C130.688 35.7959 131.525 33.7026 131.316 33.2002C131.107 32.6978 130.437 32.7396 130.06 33.87C129.683 34.9586 129.306 35.8796 129.181 36.382C129.055 36.8426 128.678 38.601 128.385 39.3546C128.092 40.1082 127.087 41.5735 126.627 41.7829C126.166 41.9922 125.957 42.2434 125.161 40.7781C125.161 40.7781 125.036 38.266 123.864 38.5173C123.361 38.6429 123.738 40.6106 123.696 41.6573C123.696 42.0759 124.533 43.7087 124.868 44.2949C125.245 45.0485 126.292 45.8858 126.752 46.4301C127.045 46.765 127.213 47.6861 127.255 48.3141L126.794 48.4397L126.543 49.905C126.543 49.905 125.915 50.0725 125.664 50.3656L122.105 71.9689C122.105 71.9689 118.714 79.5886 114.946 86.2455C114.444 87.1665 109.88 87.7945 107.536 89.3436L105.945 88.0876L105.568 88.1713L105.191 87.0409C105.191 87.0409 109.754 85.7012 110.048 84.4871C110.341 83.2729 102.009 68.7451 100.962 66.9448C100.962 66.9448 97.6131 64.9771 92.0448 69.2475C89.9096 70.8803 89.9514 72.5969 90.4957 74.2297C90.8306 75.1926 95.1429 84.3196 97.0269 90.3903L96.1059 90.6415L95.3523 92.9023C95.3523 92.9023 86.2672 96.6284 83.4621 100.229C82.7085 101.192 73.9583 121.623 73.9583 122.628C73.9583 123.674 71.7812 142.682 71.4463 154.028C71.4463 154.028 73.8327 154.488 79.0242 153.735L79.2754 155.158L80.1965 155.242C80.6989 160.099 80.2802 160.392 81.2013 163.322C81.3687 163.909 81.9967 164.662 82.2479 164.997C82.4991 165.374 83.169 166.379 83.5877 166.797C83.9645 167.174 85.3042 168.263 85.681 168.263C86.0578 168.263 86.2672 167.76 86.2672 167.76C86.2672 167.76 87.3557 168.598 87.7744 167.593C87.7744 167.593 88.3605 168.011 88.7373 168.221C89.1141 168.43 89.5746 167.844 88.9885 166.965C88.9885 166.965 89.5328 166.588 88.9885 165.918C88.4442 165.248 87.7744 164.913 87.7744 164.913C87.7744 164.913 87.1882 163.867 86.7696 163.281C86.7696 163.281 86.5602 161.522 86.4765 161.062C86.3928 160.559 86.644 160.015 86.644 160.015C86.644 160.015 88.193 162.443 89.2397 161.773C90.2864 161.062 88.4442 159.219 88.3186 158.884C88.193 158.508 88.193 156.959 87.7744 156.038C87.3557 155.116 85.9322 153.484 85.9322 153.484L86.4765 153.149L86.309 151.767C86.309 151.767 87.272 151.223 87.3976 151.097C87.3976 151.097 86.016 128.95 85.9322 127.526L90.2445 118.315L93.0496 135.313C93.0496 135.313 92.0866 156.121 91.9192 159.471C91.7936 162.82 82.4154 211.804 82.4154 211.804C85.053 213.27 88.9466 213.856 92.924 213.981C93.2589 223.736 93.6357 233.91 93.6357 233.91C93.6357 233.91 91.5005 233.994 91.1237 235.25C90.9144 235.961 91.3749 237.301 91.3749 237.301C91.3749 237.301 92.8403 240.483 95.3104 241.488C95.6035 241.613 96.064 241.362 96.064 241.362C96.064 241.362 96.8176 243.079 97.2363 243.414C97.6968 243.749 100.125 244 102.26 243.832C104.396 243.665 105.568 242.283 105.568 242.283C105.568 242.283 105.861 239.227 105.819 238.348C105.819 238.348 106.614 237.929 106.824 237.72L106.405 213.102C108.582 212.809 109.922 212.558 109.922 212.558L110.341 187.438L115.323 213.395C116.997 213.604 121.1 212.851 125.706 211.762C128.05 222.522 130.855 235.543 130.855 236.799C130.855 237.636 132.991 237.762 132.991 237.762C132.991 237.762 133.032 240.86 133.2 241.697C133.2 241.697 134.288 242.618 136.675 242.576C139.019 242.534 140.652 242.032 140.652 242.032L141.029 240.902C141.029 240.902 142.159 241.027 142.411 240.985C147.435 239.981 150.114 238.557 150.868 238.138C151.663 237.929 152.794 234.789 149.821 234.873Z" fill="black"/>
<path fill-rule="evenodd" clip-rule="evenodd" d="M107.494 89.3854L105.903 88.1294L105.526 88.2131L101.925 90.0134L105.61 89.0086L107.787 90.6414C108.791 89.8878 115.49 87.627 115.783 86.9571C116.076 86.2872 122.063 71.9688 122.063 71.9688C122.063 71.9688 118.672 79.5885 114.904 86.2454C114.36 87.2083 109.838 87.8363 107.494 89.3854Z" fill="#FFF0B5"/>
<path d="M130.478 39.1036C130.143 38.685 130.353 37.0522 130.395 36.0892C130.436 35.6705 130.939 34.5401 131.106 33.7447C131.19 33.326 131.106 33.1167 130.897 32.9492C131.064 32.9492 131.19 33.0748 131.232 33.2423C131.441 33.7447 130.604 35.8799 130.604 36.0473C130.604 36.2567 130.311 38.6012 130.395 38.8943C130.436 38.978 130.436 39.0618 130.478 39.1036ZM123.863 38.5594C124.114 38.685 124.449 38.9362 124.575 39.3548C124.784 40.1084 124.826 40.7364 124.952 41.197C125.036 41.49 125.496 42.118 126.124 41.9506C125.873 41.9506 125.58 41.7412 125.119 40.8202C125.119 40.8202 124.994 38.35 123.863 38.5594ZM132.907 36.8009C132.739 37.5127 132.697 39.1874 132.948 39.5223C132.865 39.2711 133.032 37.5964 133.2 36.8428C133.367 36.0055 134.079 33.8703 134.079 33.2841C134.079 33.0748 133.953 32.9073 133.744 32.7817C133.828 32.9492 133.869 33.1585 133.828 33.4097C133.702 34.1215 133.074 36.0473 132.907 36.8009ZM134.749 38.057C134.665 38.6431 134.456 40.2759 134.832 40.4434C134.623 40.4434 135 38.1826 135.125 37.7639C135.251 37.3452 136.005 35.6287 136.088 35.2519C136.172 34.9588 135.963 34.7495 135.753 34.6657C135.837 34.8332 135.879 35.0844 135.795 35.2938C135.628 35.7543 134.874 37.4289 134.749 38.057ZM135.544 42.5367C135.67 41.9087 136.633 40.3596 137.009 39.3967C137.596 37.8895 137.637 36.9684 137.093 36.9684C137.303 37.1778 137.344 37.429 137.261 37.8058C137.093 38.6012 136.549 40.0666 135.795 41.2388C135.502 41.6575 135.125 43.3322 134.581 44.337C133.869 45.6349 132.655 46.7653 132.404 47.5189C132.153 48.2725 132.027 48.6493 132.027 48.6493L132.655 48.9005C132.781 48.3143 133.158 47.5607 133.451 47.0583C133.786 46.3466 134.832 45.8442 135.544 42.5367Z" fill="#FFF0B5"/>
<path d="M98.2832 69.2897C98.2832 69.2897 106.992 81.0962 109.378 85.3247C109.713 85.0735 109.922 84.8223 110.006 84.613C110.299 83.3988 101.967 68.871 100.921 67.0708C100.921 67.0289 100.083 68.4105 98.2832 69.2897Z" fill="#FFF0B5"/>
<path d="M88.319 158.968C88.1934 158.591 88.1934 157.042 87.7748 156.121C87.3561 155.2 85.9326 153.567 85.9326 153.567C85.9326 153.567 87.5236 156.163 87.8585 158.466C88.026 159.596 89.0308 160.643 89.1982 161.187C89.282 161.438 89.282 161.648 89.2401 161.857C90.2868 161.145 88.4446 159.303 88.319 158.968Z" fill="#FFF0B5"/>
<path d="M105.232 213.437L105.902 238.515C105.902 238.515 106.698 238.097 106.907 237.887L106.488 213.27L105.232 213.437Z" fill="#FFF0B5"/>
<path d="M138.936 208.539L137.68 208.916L142.746 234.58C142.746 234.58 143.248 234.622 143.876 232.487C143.876 232.487 143.457 231.733 142.578 228.258C142.327 227.463 138.936 208.539 138.936 208.539Z" fill="black"/>
<path d="M130.185 150.218C129.348 144.65 124.868 96.9633 124.868 96.9633C125.622 92.7766 133.367 83.1472 135.335 76.8253C136.214 74.0621 140.61 62.1719 141.405 52.71L133.199 50.3236C128.552 48.9839 126.501 49.9887 126.501 49.9887C136.005 50.9516 140.066 53.7986 140.066 53.7986C139.103 60.581 135.167 73.476 133.493 78.207C131.818 82.9379 123.989 94.6606 123.57 96.0841C123.151 97.5076 128.301 147.706 128.594 150.092C128.887 152.479 142.075 206.529 142.075 206.529C140.694 207.366 128.343 211.26 128.343 211.26C130.562 210.716 137.637 208.915 137.637 208.915L138.893 208.538C141.824 207.743 143.792 207.157 143.792 207.157C143.792 207.157 131.022 155.786 130.185 150.218Z" fill="#FFF0B5"/>
<path d="M87.3974 151.181C87.3974 151.181 86.0158 129.034 85.9321 127.61L90.2444 118.399C90.2444 118.399 89.2396 113.71 88.9465 111.408C88.9465 111.408 88.8209 115.887 88.9465 118.399C88.9465 118.399 85.1785 126.396 84.8436 127.108C84.5086 127.82 85.8902 150.553 85.8902 150.553C85.8902 150.553 83.5038 152.605 71.4043 154.112C71.4043 154.112 73.7907 154.572 78.9822 153.819C78.9822 153.819 84.1318 153.023 86.267 151.851C86.3089 151.851 87.2718 151.307 87.3974 151.181Z" fill="#FFF0B5"/>
<path d="M107.033 68.0754C106.572 67.1962 106.656 65.8983 106.53 64.8935C106.405 63.7212 106.321 62.5071 105.944 61.3767C105.861 61.1255 105.442 61.2511 105.526 61.5023C105.944 62.7583 106.028 64.1399 106.154 65.4378C106.237 66.317 106.321 67.2799 106.656 68.2847C106.74 68.5359 107.158 68.3266 107.033 68.0754Z" fill="black"/>
<path d="M108.163 68.4101C107.745 67.5309 107.284 66.5261 106.614 65.8144C106.572 65.7725 106.572 65.7725 106.53 65.7306C106.489 65.6888 106.405 65.6888 106.363 65.7306C106.279 65.7306 106.237 65.8144 106.237 65.8981C106.237 65.8981 106.237 65.8981 106.237 65.94C106.405 68.3264 106.782 70.9221 107.703 73.1411C107.828 73.3923 108.163 73.1829 108.079 72.9317C108.079 72.9317 108.079 72.8899 108.038 72.8899C108.205 73.0155 108.456 72.8899 108.373 72.6805C108.331 72.5968 108.289 72.5131 108.289 72.4293C108.414 72.4712 108.582 72.3874 108.582 72.22V72.1781C108.582 72.22 108.624 72.2619 108.624 72.2619C108.707 72.5131 109.126 72.3875 109.042 72.1363C108.456 70.4197 107.577 68.745 106.991 66.9866C107.326 67.5309 107.577 68.0752 107.828 68.6194C108.414 69.7917 108.917 71.0477 109.126 72.3874C109.168 72.6386 109.587 72.5549 109.545 72.2619C109.294 70.9221 108.749 69.6242 108.163 68.4101Z" fill="black"/>
<path fill-rule="evenodd" clip-rule="evenodd" d="M90.9559 75.5694C90.9559 75.5694 100.125 71.927 102.218 69.3312C102.218 69.3312 101.13 62.2976 93.9703 66.1912C85.8063 70.6291 90.9559 75.5694 90.9559 75.5694Z" fill="black"/>
<path fill-rule="evenodd" clip-rule="evenodd" d="M87.3976 58.4041L71.4463 78.7514L91.7098 81.0122L109.838 56.3945L87.3976 58.4041Z" fill="black"/>
<path d="M87.3975 58.4042L108.122 57.2738L91.7097 81.0123L109.838 56.3946L87.3975 58.4042Z" fill="#FFF0B5"/>
<path d="M102.93 56.8551C99.832 58.6135 96.7339 60.3719 93.8869 62.5489C92.2122 63.8468 90.4957 65.1866 88.9885 66.7356C88.821 66.945 89.1141 67.238 89.2816 67.0287C90.7888 65.4378 92.589 64.0562 94.3474 62.7164C97.1107 60.6231 100.46 58.4879 103.558 56.9807C103.809 56.8551 103.516 56.4783 102.93 56.8551Z" fill="black"/>
<path d="M103.516 56.7295C100.502 58.2367 97.2781 60.2882 94.5986 62.2978C92.8402 63.6375 91.0818 65.0191 89.5328 66.6101C89.4072 66.7357 89.2397 66.6519 89.1978 66.5263C89.1141 66.6101 89.0722 66.6519 88.9885 66.7357C88.821 66.945 89.1141 67.2381 89.2816 67.0287C90.7888 65.4378 92.589 64.0562 94.3474 62.7165C97.1107 60.6231 100.46 58.4879 103.558 56.9807C103.726 56.897 103.684 56.7714 103.516 56.7295Z" fill="black"/>
<g clip-path="url(#clip0_0_1)">
<path d="M138.423 234.083V249.882H53.7524C52.345 247.793 51.4824 245.024 51.4824 241.982C51.4824 241.12 51.5732 240.302 51.664 239.485C51.9818 237.442 52.7082 235.535 53.7524 234.037H138.423V234.083Z" fill="url(#paint0_linear_0_1)"/>
<path d="M97.7457 241.982C97.7457 243.934 98.1543 245.841 98.8807 247.43H97.1101C96.4745 245.796 96.1113 243.934 96.1113 241.982C96.1113 240.03 96.4745 238.169 97.1101 236.534H98.8807C98.1543 238.123 97.7457 240.03 97.7457 241.982Z" fill="#D18C18"/>
<path d="M92.4781 241.982C92.4781 243.934 92.8867 245.841 93.6131 247.43H91.8425C91.2069 245.796 90.8438 243.934 90.8438 241.982C90.8438 240.03 91.2069 238.169 91.8425 236.534H93.6131C92.8867 238.123 92.4781 240.03 92.4781 241.982Z" fill="#D18C18"/>
<path d="M86.0317 241.982C86.0317 243.934 86.4403 245.841 87.1667 247.43H63.9673C63.3317 245.796 62.9685 243.934 62.9685 241.982C62.9685 240.03 63.3317 238.169 63.9673 236.534H87.1667C86.4403 238.123 86.0317 240.03 86.0317 241.982Z" fill="#D18C18"/>
<path d="M59.5641 241.982C59.5641 243.934 59.9727 245.841 60.6991 247.43H58.9285C58.2929 245.796 57.9297 243.934 57.9297 241.982C57.9297 240.03 58.2929 238.169 58.9285 236.534H60.6991C59.9727 238.123 59.5641 240.03 59.5641 241.982Z" fill="#D18C18"/>
<path d="M115.179 234.082V239.53H51.6191C51.9369 237.487 52.6633 235.58 53.7075 234.082H115.179Z" fill="#414042"/>
<path d="M109.685 248.792C108.505 246.885 107.869 244.479 107.869 241.982C107.869 239.485 108.505 237.079 109.685 235.172H180.782V248.792H109.685Z" fill="url(#paint1_linear_0_1)"/>
<path d="M180.781 237.215V248.792H109.685C108.504 247.157 107.869 245.114 107.869 242.98C107.869 240.847 108.504 238.804 109.685 237.215H180.781Z" fill="url(#paint2_linear_0_1)"/>
<path d="M180.782 237.941H112.274V238.532H180.782V237.941Z" fill="#DCE8EF"/>
<path d="M180.782 240.438H110.957V240.983H180.782V240.438Z" fill="#DCE8EF"/>
<path d="M180.782 242.935H110.957V243.48H180.782V242.935Z" fill="#DCE8EF"/>
<path d="M180.782 245.432H112.274V246.023H180.782V245.432Z" fill="#DCE8EF"/>
<path d="M110.003 235.716C109.004 237.487 108.459 239.666 108.459 241.982C108.459 244.297 109.004 246.476 110.003 248.247H182.416V249.881H109.095C107.687 247.793 106.779 245.023 106.779 241.982C106.779 238.94 107.642 236.17 109.095 234.082H182.416V235.716H110.003Z" fill="url(#paint3_linear_0_1)"/>
<path d="M120.853 244.933L118.038 243.117L115.178 244.933V237.896H120.853V244.933Z" fill="url(#paint4_linear_0_1)"/>
<path d="M135.745 350.805V373.187H47.9871C46.8521 371.508 45.9441 369.555 45.3993 367.331C44.9907 365.651 44.7637 363.835 44.7637 361.974C44.7637 360.657 44.8999 359.34 45.1269 358.069C45.6263 355.3 46.6251 352.803 48.0325 350.76H135.745V350.805Z" fill="url(#paint5_linear_0_1)"/>
<path d="M86.7138 362.019C86.7138 364.471 87.1678 366.831 87.985 368.92H85.5334C84.807 366.831 84.3984 364.471 84.3984 362.019C84.3984 359.567 84.807 357.252 85.5334 355.118H87.985C87.1678 357.207 86.7138 359.567 86.7138 362.019Z" fill="#D18C18"/>
<path d="M78.1326 362.019C78.1326 364.471 78.5866 366.831 79.4038 368.92H53.1172C52.3908 366.831 51.9822 364.471 51.9822 362.019C51.9822 359.567 52.3908 357.252 53.1172 355.118H79.4038C78.5412 357.207 78.1326 359.567 78.1326 362.019Z" fill="#D18C18"/>
<path d="M99.2896 350.805V358.114H45.082C45.5814 355.345 46.5802 352.848 47.9876 350.805H99.2896Z" fill="#D1D3D4"/>
<path d="M95.0658 371.643C93.4314 368.919 92.5234 365.56 92.5234 361.973C92.5234 358.432 93.4314 355.027 95.0658 352.303H179.646V371.598H95.0658V371.643Z" fill="url(#paint6_linear_0_1)"/>
<path d="M95.0658 371.644C93.4314 369.328 92.5234 366.423 92.5234 363.336C92.5234 360.294 93.4314 357.388 95.0658 355.027H179.646V371.598H95.0658V371.644Z" fill="url(#paint7_linear_0_1)"/>
<path d="M179.647 356.934H96.293V357.66H179.647V356.934Z" fill="#DCE8EF"/>
<path d="M179.647 360.066H94.6582V360.793H179.647V360.066Z" fill="#DCE8EF"/>
<path d="M179.647 363.199H94.6582V363.926H179.647V363.199Z" fill="#DCE8EF"/>
<path d="M179.647 366.377H96.293V367.103H179.647V366.377Z" fill="#DCE8EF"/>
<path d="M95.5205 353.12C94.0677 355.662 93.2959 358.75 93.2959 362.018C93.2959 365.287 94.0677 368.374 95.5205 370.917H182.007V373.232H94.2493C92.2517 370.281 90.9805 366.331 90.9805 362.018C90.9805 357.705 92.2063 353.756 94.2493 350.805H182.007V353.12H95.5205Z" fill="url(#paint8_linear_0_1)"/>
<path d="M120.31 367.421L116.269 364.788L112.229 367.421V357.388H120.31V367.421Z" fill="url(#paint9_linear_0_1)"/>
<path d="M82.082 249.382V271.765H169.84C170.975 270.085 171.883 268.133 172.428 265.908C172.837 264.228 173.064 262.412 173.064 260.551C173.064 259.234 172.927 257.918 172.7 256.646C172.201 253.877 171.202 251.38 169.795 249.337H82.082V249.382Z" fill="url(#paint10_linear_0_1)"/>
<path d="M131.115 260.596C131.115 263.048 130.661 265.409 129.844 267.497H132.295C133.022 265.409 133.43 263.048 133.43 260.596C133.43 258.145 133.022 255.829 132.295 253.695H129.844C130.661 255.784 131.115 258.145 131.115 260.596Z" fill="#D18C18"/>
<path d="M139.695 260.596C139.695 263.048 139.241 265.409 138.424 267.497H164.71C165.437 265.409 165.845 263.048 165.845 260.596C165.845 258.145 165.437 255.829 164.71 253.695H138.469C139.286 255.784 139.695 258.145 139.695 260.596Z" fill="#D18C18"/>
<path d="M118.539 249.382V256.691H172.747C172.247 253.922 171.248 251.425 169.841 249.382H118.539Z" fill="#D1D3D4"/>
<path d="M122.76 270.266C124.395 267.542 125.303 264.183 125.303 260.596C125.303 257.055 124.395 253.65 122.76 250.926H38.1348V270.266H122.76Z" fill="url(#paint11_linear_0_1)"/>
<path d="M122.76 270.266C124.395 267.95 125.303 265.045 125.303 261.958C125.303 258.916 124.395 256.01 122.76 253.649H38.1348V270.266H122.76Z" fill="url(#paint12_linear_0_1)"/>
<path d="M121.536 255.511H38.1816V256.237H121.536V255.511Z" fill="#DCE8EF"/>
<path d="M123.17 258.688H38.1816V259.415H123.17V258.688Z" fill="#DCE8EF"/>
<path d="M123.17 261.821H38.1816V262.548H123.17V261.821Z" fill="#DCE8EF"/>
<path d="M121.536 264.954H38.1816V265.68H121.536V264.954Z" fill="#DCE8EF"/>
<path d="M122.307 251.697C123.76 254.24 124.532 257.327 124.532 260.596C124.532 263.864 123.76 266.952 122.307 269.494H35.8203V271.809H123.579C125.576 268.858 126.847 264.909 126.847 260.596C126.847 256.283 125.622 252.333 123.579 249.382H35.8203V251.697H122.307Z" fill="url(#paint13_linear_0_1)"/>
<path d="M114.861 264.5L111.365 262.185L107.824 264.5V255.738H114.861V264.5Z" fill="url(#paint14_linear_0_1)"/>
<path d="M128.028 287.836V303.636H43.4028C41.9954 301.547 41.1328 298.778 41.1328 295.736C41.1328 294.873 41.2236 294.056 41.3144 293.239C41.6322 291.196 42.3586 289.289 43.4028 287.791H128.028V287.836Z" fill="url(#paint15_linear_0_1)"/>
<path d="M87.3961 295.736C87.3961 297.688 87.8047 299.595 88.5311 301.184H86.7605C86.1249 299.55 85.7617 297.688 85.7617 295.736C85.7617 293.784 86.1249 291.922 86.7605 290.288H88.5311C87.7593 291.877 87.3961 293.784 87.3961 295.736Z" fill="#D18C18"/>
<path d="M82.1285 295.736C82.1285 297.688 82.5371 299.595 83.2635 301.184H81.4929C80.8573 299.55 80.4941 297.688 80.4941 295.736C80.4941 293.784 80.8573 291.922 81.4929 290.288H83.2635C82.5371 291.877 82.1285 293.784 82.1285 295.736Z" fill="#D18C18"/>
<path d="M75.6821 295.736C75.6821 297.688 76.0907 299.595 76.8171 301.184H53.6177C52.9821 299.55 52.6189 297.688 52.6189 295.736C52.6189 293.784 52.9821 291.922 53.6177 290.288H76.8171C76.0453 291.877 75.6821 293.784 75.6821 295.736Z" fill="#D18C18"/>
<path d="M49.2145 295.736C49.2145 297.688 49.6231 299.595 50.3495 301.184H48.5789C47.9433 299.55 47.5801 297.688 47.5801 295.736C47.5801 293.784 47.9433 291.922 48.5789 290.288H50.3495C49.6231 291.877 49.2145 293.784 49.2145 295.736Z" fill="#D18C18"/>
<path d="M104.829 287.836V293.284H41.3145C41.6323 291.241 42.3587 289.334 43.4029 287.836H104.829Z" fill="#D1D3D4"/>
<path d="M99.3353 302.546C98.1549 300.639 97.5193 298.233 97.5193 295.736C97.5193 293.239 98.1549 290.832 99.3353 288.926H170.432V302.546H99.3353Z" fill="url(#paint16_linear_0_1)"/>
<path d="M170.432 290.969V302.546H99.3353C98.1549 300.911 97.5193 298.868 97.5193 296.734C97.5193 294.601 98.1549 292.558 99.3353 290.969H170.432Z" fill="url(#paint17_linear_0_1)"/>
<path d="M170.433 291.695H101.924V292.286H170.433V291.695Z" fill="#DCE8EF"/>
<path d="M170.433 294.192H100.607V294.737H170.433V294.192Z" fill="#DCE8EF"/>
<path d="M170.433 296.689H100.607V297.234H170.433V296.689Z" fill="#DCE8EF"/>
<path d="M170.433 299.186H101.924V299.777H170.433V299.186Z" fill="#DCE8EF"/>
<path d="M99.6531 289.47C98.6543 291.241 98.1095 293.42 98.1095 295.736C98.1095 298.051 98.6543 300.23 99.6531 302.001H172.066V303.635H98.7451C97.3377 301.547 96.4297 298.777 96.4297 295.736C96.4297 292.694 97.2923 289.924 98.7451 287.836H172.066V289.47H99.6531Z" fill="url(#paint18_linear_0_1)"/>
<path d="M115.771 298.686L112.911 296.87L110.096 298.686V291.649H115.771V298.686Z" fill="url(#paint19_linear_0_1)"/>
<path d="M197.263 316.393C197.263 321.341 195.856 325.881 193.541 329.241H92.6619V303.499H193.541C195.357 306.178 196.628 309.583 197.082 313.351C197.173 314.35 197.263 315.349 197.263 316.393Z" fill="url(#paint20_linear_0_1)"/>
<path d="M184.006 316.392C184.006 318.571 183.734 320.614 183.235 322.567H158.946C157.22 322.567 155.677 321.886 154.587 320.751C153.452 319.616 152.771 318.072 152.771 316.392C152.771 312.987 155.541 310.218 158.946 310.218H183.235C183.734 312.125 184.006 314.213 184.006 316.392Z" fill="#61A3B4"/>
<path d="M189.999 316.392C189.999 318.571 189.727 320.614 189.228 322.567H185.959C186.458 320.614 186.731 318.571 186.731 316.392C186.731 314.213 186.458 312.17 185.959 310.218H189.228C189.727 312.125 189.999 314.213 189.999 316.392Z" fill="#61A3B4"/>
<path d="M148.223 317.576C148.888 314.744 147.131 311.91 144.3 311.245C141.469 310.58 138.634 312.337 137.969 315.168C137.304 318 139.061 320.834 141.892 321.499C144.724 322.164 147.558 320.407 148.223 317.576Z" fill="#61A3B4"/>
<path d="M197.082 313.351H121.4V303.499H193.541C195.357 306.178 196.628 309.583 197.082 313.351Z" fill="url(#paint21_linear_0_1)"/>
<path d="M193.541 303.499H121.4V307.449H195.584C195.039 306.042 194.358 304.68 193.541 303.499Z" fill="#414042"/>
<path d="M127.073 327.471C128.98 324.383 129.979 320.479 129.979 316.393C129.979 312.307 128.935 308.403 127.073 305.315H48.3044V327.471H127.073Z" fill="url(#paint22_linear_0_1)"/>
<path d="M130.024 317.845C130.024 321.386 128.98 324.791 127.119 327.47H48.3044V308.175H127.073C128.98 310.899 130.024 314.258 130.024 317.845Z" fill="url(#paint23_linear_0_1)"/>
<path d="M124.168 309.81H48.3044V310.763H124.168V309.81Z" fill="#DCE8EF"/>
<path d="M125.802 313.896H48.3044V314.804H125.802V313.896Z" fill="#DCE8EF"/>
<path d="M125.802 317.937H48.3044V318.845H125.802V317.937Z" fill="#DCE8EF"/>
<path d="M124.168 322.023H48.3044V322.931H124.168V322.023Z" fill="#DCE8EF"/>
<path d="M126.575 306.178C128.209 309.083 129.117 312.625 129.117 316.393C129.117 320.116 128.209 323.702 126.575 326.608H45.6267V329.286H128.028C130.343 325.881 131.751 321.387 131.751 316.438C131.751 311.49 130.343 306.95 128.028 303.59H45.6267V306.269H126.575V306.178Z" fill="url(#paint24_linear_0_1)"/>
<path d="M109.414 319.071L105.873 316.801L102.377 319.071V310.354H109.414V319.071Z" fill="url(#paint25_linear_0_1)"/>
<path d="M134.294 329.468V351.033H58.4303C52.9823 351.033 48.4877 346.765 48.2153 341.363C48.2153 340.999 48.1699 340.636 48.1699 340.273C48.1699 339.91 48.1699 339.547 48.2153 339.183C48.3061 337.821 48.6239 336.55 49.1687 335.37C50.8031 331.874 54.3443 329.468 58.4303 329.468H134.294Z" fill="url(#paint26_linear_0_1)"/>
<path d="M139.833 348.763V350.987H63.9694C58.5214 350.987 54.0268 346.72 53.7544 341.317C53.7544 340.954 53.709 340.591 53.709 340.228C53.709 339.864 53.709 339.501 53.7544 339.138C54.0268 333.69 58.5214 329.468 63.9694 329.468H139.833V331.692" fill="url(#paint27_linear_0_1)"/>
<path d="M142.421 348.763V350.987H66.5573C61.1093 350.987 56.6147 346.72 56.3423 341.317C56.3423 340.954 56.2969 340.591 56.2969 340.228C56.2969 339.864 56.2969 339.501 56.3423 339.138C56.6147 333.69 61.1093 329.468 66.5573 329.468H142.421V331.692" fill="url(#paint28_linear_0_1)"/>
<path d="M147.096 348.763V350.987H71.2331C65.7851 350.987 61.2905 346.72 61.0181 341.317C61.0181 340.954 60.9727 340.591 60.9727 340.228C60.9727 339.864 60.9727 339.501 61.0181 339.138C61.2905 333.69 65.7851 329.468 71.2331 329.468H147.096V331.692" fill="url(#paint29_linear_0_1)"/>
<path d="M150.319 329.468V351.033H74.4557C69.0077 351.033 64.5131 346.765 64.2407 341.363C64.2407 340.999 64.1953 340.636 64.1953 340.273C64.1953 339.91 64.1953 339.547 64.2407 339.183C64.3315 337.821 64.6493 336.55 65.1941 335.37C66.8285 331.874 70.3697 329.468 74.4557 329.468H150.319Z" fill="url(#paint30_linear_0_1)"/>
<path d="M84.3076 329.468V335.37H49.168C50.8024 331.874 54.3436 329.468 58.4296 329.468H84.3076Z" fill="#D1D3D4"/>
<path d="M82.6284 349.535C77.9976 349.535 74.0932 345.948 73.8208 341.272C73.8208 340.909 73.7754 340.591 73.7754 340.228C73.7754 339.865 73.7754 339.547 73.8208 339.184C74.0478 334.553 77.9522 330.921 82.6284 330.921H193.768V349.489H82.6284V349.535Z" fill="url(#paint31_linear_0_1)"/>
<path d="M193.768 333.554V349.535H82.6286C77.9978 349.535 74.0934 346.447 73.821 342.452C73.821 342.18 73.7756 341.862 73.7756 341.544C73.7756 341.226 73.7756 340.954 73.821 340.636C74.048 336.641 77.9524 333.554 82.6286 333.554H193.768Z" fill="url(#paint32_linear_0_1)"/>
<path d="M193.768 335.188H80.2227V335.915H193.768V335.188Z" fill="#DCE8EF"/>
<path d="M193.723 338.321H78.543V339.047H193.723V338.321Z" fill="#DCE8EF"/>
<path d="M193.723 341.454H78.543V342.181H193.723V341.454Z" fill="#DCE8EF"/>
<path d="M193.768 344.586H80.2227V345.312H193.768V344.586Z" fill="#DCE8EF"/>
<path d="M83.1729 331.692C78.4967 331.692 74.5923 335.461 74.5469 340.137C74.5469 340.182 74.5469 340.182 74.5469 340.228C74.5469 340.273 74.5469 340.273 74.5469 340.318C74.5923 344.995 78.4967 348.763 83.1729 348.763H195.992V350.987H82.5827C77.1347 350.987 72.6401 346.72 72.3677 341.317C72.3677 340.954 72.3223 340.591 72.3223 340.228C72.3223 339.864 72.3223 339.501 72.3677 339.138C72.6401 333.69 77.1347 329.468 82.5827 329.468H196.037V331.692H83.1729Z" fill="url(#paint33_linear_0_1)"/>
<path d="M93.7511 345.539L89.7105 342.951L85.6699 345.539V335.506H93.7511V345.539Z" fill="url(#paint34_linear_0_1)"/>
<path d="M179.921 279.483C179.921 279.755 179.921 280.027 179.921 280.3C179.694 284.477 176.243 287.7 172.112 287.7H102.514V271.22H172.066C175.471 271.22 178.422 273.399 179.467 276.486C179.694 277.167 179.83 277.894 179.875 278.62C179.921 278.938 179.921 279.21 179.921 279.483Z" fill="url(#paint35_linear_0_1)"/>
<path d="M169.841 283.796H145.053V275.17H169.841C172.247 275.17 174.154 277.122 174.154 279.483C174.154 281.889 172.247 283.796 169.841 283.796Z" fill="url(#paint36_linear_0_1)"/>
<path d="M124.987 279.483C124.987 279.755 124.987 280.028 124.987 280.346C124.941 281.617 124.578 282.797 123.942 283.841H121.627C122.626 282.706 123.261 281.208 123.261 279.574V279.438C123.261 277.803 122.626 276.305 121.627 275.17H123.942C124.533 276.214 124.896 277.395 124.987 278.666C124.987 278.938 124.987 279.211 124.987 279.483Z" fill="url(#paint37_linear_0_1)"/>
<path d="M129.162 279.483C129.162 279.755 129.162 280.028 129.162 280.346C129.117 281.617 128.754 282.797 128.118 283.841H125.803C126.802 282.706 127.437 281.208 127.437 279.574V279.438C127.437 277.803 126.802 276.305 125.803 275.17H128.118C128.708 276.214 129.072 277.395 129.162 278.666C129.162 278.938 129.162 279.211 129.162 279.483Z" fill="url(#paint38_linear_0_1)"/>
<path d="M133.567 279.483C133.567 279.755 133.567 280.028 133.567 280.346C133.521 281.617 133.158 282.797 132.522 283.841H130.207C131.206 282.706 131.841 281.208 131.841 279.574V279.438C131.841 277.803 131.206 276.305 130.207 275.17H132.522C133.113 276.214 133.476 277.395 133.567 278.666C133.567 278.938 133.567 279.211 133.567 279.483Z" fill="url(#paint39_linear_0_1)"/>
<path d="M179.465 276.486H103.738V271.22H172.065C175.47 271.22 178.421 273.444 179.465 276.486Z" fill="#D1D3D4"/>
<path d="M107.552 286.61C111.093 286.61 114.09 283.841 114.271 280.3C114.271 280.027 114.271 279.755 114.271 279.483C114.271 279.21 114.271 278.938 114.271 278.665C114.09 275.124 111.093 272.355 107.552 272.355H56.9766V286.61H107.552Z" fill="url(#paint40_linear_0_1)"/>
<path d="M114.271 280.436C114.271 280.663 114.271 280.89 114.271 281.117C114.09 284.204 111.093 286.565 107.552 286.565H56.9766V274.262H107.552C111.093 274.262 114.09 276.668 114.271 279.71C114.271 279.982 114.271 280.209 114.271 280.436Z" fill="url(#paint41_linear_0_1)"/>
<path d="M109.187 275.442H56.9766V276.033H109.187V275.442Z" fill="#DCE8EF"/>
<path d="M110.458 277.939H56.9766V278.484H110.458V277.939Z" fill="#DCE8EF"/>
<path d="M110.458 280.436H56.9766V280.981H110.458V280.436Z" fill="#DCE8EF"/>
<path d="M109.187 282.933H56.9766V283.524H109.187V282.933Z" fill="#DCE8EF"/>
<path d="M107.098 272.945C110.685 272.945 113.681 275.805 113.681 279.392C113.681 279.437 113.681 279.437 113.681 279.483C113.681 279.528 113.681 279.528 113.681 279.573C113.681 283.16 110.685 286.02 107.098 286.02H55.2969V287.745H107.598C111.774 287.745 115.225 284.477 115.406 280.345C115.406 280.073 115.406 279.8 115.406 279.483C115.406 279.21 115.406 278.938 115.406 278.62C115.179 274.443 111.729 271.22 107.598 271.22H55.2969V272.945H107.098Z" fill="url(#paint42_linear_0_1)"/>
<path d="M100.515 282.797L97.6546 280.981L94.8398 282.797V275.76H100.515V282.797Z" fill="url(#paint43_linear_0_1)"/>
</g>
<defs>
<linearGradient id="paint0_linear_0_1" x1="94.9284" y1="234.981" x2="94.9284" y2="248.436" gradientUnits="userSpaceOnUse">
<stop stop-color="#DE9D1E"/>
<stop offset="1" stop-color="#FFC82E"/>
</linearGradient>
<linearGradient id="paint1_linear_0_1" x1="107.894" y1="241.98" x2="180.777" y2="241.98" gradientUnits="userSpaceOnUse">
<stop stop-color="#CEDAE0"/>
<stop offset="1" stop-color="#A5B7C6"/>
</linearGradient>
<linearGradient id="paint2_linear_0_1" x1="144.336" y1="248.702" x2="144.336" y2="237.297" gradientUnits="userSpaceOnUse">
<stop stop-color="#F2F2F2"/>
<stop offset="1" stop-color="#CEDAE0"/>
</linearGradient>
<linearGradient id="paint3_linear_0_1" x1="106.802" y1="241.98" x2="182.415" y2="241.98" gradientUnits="userSpaceOnUse">
<stop stop-color="#FBD266"/>
<stop offset="1" stop-color="#FFC82E"/>
</linearGradient>
<linearGradient id="paint4_linear_0_1" x1="118.03" y1="238.574" x2="118.03" y2="245.514" gradientUnits="userSpaceOnUse">
<stop stop-color="#DE9D1E"/>
<stop offset="1" stop-color="#FFC82E"/>
</linearGradient>
<linearGradient id="paint5_linear_0_1" x1="90.2255" y1="372.011" x2="90.2255" y2="353.376" gradientUnits="userSpaceOnUse">
<stop stop-color="#FF980F"/>
<stop offset="1" stop-color="#A53F00"/>
</linearGradient>
<linearGradient id="paint6_linear_0_1" x1="136.103" y1="359.289" x2="136.103" y2="353.23" gradientUnits="userSpaceOnUse">
<stop stop-color="#CEDAE0"/>
<stop offset="1" stop-color="#A5B7C6"/>
</linearGradient>
<linearGradient id="paint7_linear_0_1" x1="136.103" y1="372.073" x2="136.103" y2="354.843" gradientUnits="userSpaceOnUse">
<stop stop-color="#F2F2F2"/>
<stop offset="1" stop-color="#CEDAE0"/>
</linearGradient>
<linearGradient id="paint8_linear_0_1" x1="138.65" y1="373.177" x2="135.53" y2="350.028" gradientUnits="userSpaceOnUse">
<stop stop-color="#FF980F"/>
<stop offset="1" stop-color="#A53F00"/>
</linearGradient>
<linearGradient id="paint9_linear_0_1" x1="116.282" y1="367.986" x2="116.282" y2="357.371" gradientUnits="userSpaceOnUse">
<stop stop-color="#C8823A"/>
<stop offset="1" stop-color="#D47D1A"/>
</linearGradient>
<linearGradient id="paint10_linear_0_1" x1="127.609" y1="270.605" x2="127.609" y2="251.97" gradientUnits="userSpaceOnUse">
<stop stop-color="#FF980F"/>
<stop offset="1" stop-color="#A53F00"/>
</linearGradient>
<linearGradient id="paint11_linear_0_1" x1="38.1568" y1="260.596" x2="125.302" y2="260.596" gradientUnits="userSpaceOnUse">
<stop stop-color="#CEDAE0"/>
<stop offset="1" stop-color="#A5B7C6"/>
</linearGradient>
<linearGradient id="paint12_linear_0_1" x1="81.7296" y1="267.901" x2="81.7296" y2="254.563" gradientUnits="userSpaceOnUse">
<stop stop-color="#F2F2F2"/>
<stop offset="1" stop-color="#CEDAE0"/>
</linearGradient>
<linearGradient id="paint13_linear_0_1" x1="79.5826" y1="244.206" x2="82.3001" y2="277.42" gradientUnits="userSpaceOnUse">
<stop stop-color="#FF980F"/>
<stop offset="1" stop-color="#A53F00"/>
</linearGradient>
<linearGradient id="paint14_linear_0_1" x1="111.348" y1="252.402" x2="111.348" y2="272.005" gradientUnits="userSpaceOnUse">
<stop stop-color="#FF980F"/>
<stop offset="1" stop-color="#A53F00"/>
</linearGradient>
<linearGradient id="paint15_linear_0_1" x1="84.5723" y1="301.997" x2="84.5723" y2="289.45" gradientUnits="userSpaceOnUse">
<stop stop-color="#FFC82E"/>
<stop offset="1" stop-color="#D47D1A"/>
</linearGradient>
<linearGradient id="paint16_linear_0_1" x1="97.538" y1="295.728" x2="170.421" y2="295.728" gradientUnits="userSpaceOnUse">
<stop stop-color="#CEDAE0"/>
<stop offset="1" stop-color="#A5B7C6"/>
</linearGradient>
<linearGradient id="paint17_linear_0_1" x1="133.98" y1="301.216" x2="133.98" y2="291.411" gradientUnits="userSpaceOnUse">
<stop stop-color="#F2F2F2"/>
<stop offset="1" stop-color="#CEDAE0"/>
</linearGradient>
<linearGradient id="paint18_linear_0_1" x1="136.162" y1="303.046" x2="132.765" y2="284.25" gradientUnits="userSpaceOnUse">
<stop stop-color="#FFC82E"/>
<stop offset="1" stop-color="#D47D1A"/>
</linearGradient>
<linearGradient id="paint19_linear_0_1" x1="112.924" y1="292.328" x2="112.924" y2="299.269" gradientUnits="userSpaceOnUse">
<stop stop-color="#DE9D1E"/>
<stop offset="1" stop-color="#FFC82E"/>
</linearGradient>
<linearGradient id="paint20_linear_0_1" x1="144.956" y1="306.349" x2="144.956" y2="325.978" gradientUnits="userSpaceOnUse">
<stop stop-color="#C7DEE4"/>
<stop offset="1" stop-color="#61A3B4"/>
</linearGradient>
<linearGradient id="paint21_linear_0_1" x1="159.233" y1="316.213" x2="159.233" y2="303.373" gradientUnits="userSpaceOnUse">
<stop stop-color="white"/>
<stop offset="1" stop-color="#BFC1BF"/>
</linearGradient>
<linearGradient id="paint22_linear_0_1" x1="48.3002" y1="316.382" x2="130.004" y2="316.382" gradientUnits="userSpaceOnUse">
<stop stop-color="#CEDAE0"/>
<stop offset="1" stop-color="#A5B7C6"/>
</linearGradient>
<linearGradient id="paint23_linear_0_1" x1="89.1515" y1="324.868" x2="89.1515" y2="309.111" gradientUnits="userSpaceOnUse">
<stop stop-color="#F2F2F2"/>
<stop offset="1" stop-color="#CEDAE0"/>
</linearGradient>
<linearGradient id="paint24_linear_0_1" x1="91.0983" y1="333.008" x2="84.6065" y2="301.757" gradientUnits="userSpaceOnUse">
<stop stop-color="#C7DEE4"/>
<stop offset="1" stop-color="#61A3B4"/>
</linearGradient>
<linearGradient id="paint25_linear_0_1" x1="105.89" y1="311.177" x2="105.89" y2="319.769" gradientUnits="userSpaceOnUse">
<stop stop-color="#61A3B4"/>
<stop offset="0.9976" stop-color="#83C6D6"/>
</linearGradient>
<linearGradient id="paint26_linear_0_1" x1="91.2294" y1="340.771" x2="91.2294" y2="329.808" gradientUnits="userSpaceOnUse">
<stop stop-color="#51626A"/>
<stop offset="0.2419" stop-color="#414F55"/>
<stop offset="0.7394" stop-color="#181D1F"/>
<stop offset="1"/>
</linearGradient>
<linearGradient id="paint27_linear_0_1" x1="96.7586" y1="347.716" x2="96.7586" y2="333.072" gradientUnits="userSpaceOnUse">
<stop stop-color="#FF980F"/>
<stop offset="1" stop-color="#A53F00"/>
</linearGradient>
<linearGradient id="paint28_linear_0_1" x1="99.3481" y1="340.771" x2="99.3481" y2="329.808" gradientUnits="userSpaceOnUse">
<stop stop-color="#51626A"/>
<stop offset="0.2419" stop-color="#414F55"/>
<stop offset="0.7394" stop-color="#181D1F"/>
<stop offset="1"/>
</linearGradient>
<linearGradient id="paint29_linear_0_1" x1="104.037" y1="347.716" x2="104.037" y2="333.072" gradientUnits="userSpaceOnUse">
<stop stop-color="#FF980F"/>
<stop offset="1" stop-color="#A53F00"/>
</linearGradient>
<linearGradient id="paint30_linear_0_1" x1="107.256" y1="340.771" x2="107.256" y2="329.808" gradientUnits="userSpaceOnUse">
<stop stop-color="#51626A"/>
<stop offset="0.2419" stop-color="#414F55"/>
<stop offset="0.7394" stop-color="#181D1F"/>
<stop offset="1"/>
</linearGradient>
<linearGradient id="paint31_linear_0_1" x1="73.8069" y1="340.238" x2="193.763" y2="340.238" gradientUnits="userSpaceOnUse">
<stop stop-color="#CEDAE0"/>
<stop offset="1" stop-color="#A5B7C6"/>
</linearGradient>
<linearGradient id="paint32_linear_0_1" x1="133.785" y1="348.018" x2="133.785" y2="332.927" gradientUnits="userSpaceOnUse">
<stop stop-color="#F2F2F2"/>
<stop offset="1" stop-color="#CEDAE0"/>
</linearGradient>
<linearGradient id="paint33_linear_0_1" x1="136.187" y1="346.068" x2="131.155" y2="320.1" gradientUnits="userSpaceOnUse">
<stop stop-color="#51626A"/>
<stop offset="0.2419" stop-color="#414F55"/>
<stop offset="0.7394" stop-color="#181D1F"/>
<stop offset="1"/>
</linearGradient>
<linearGradient id="paint34_linear_0_1" x1="89.7237" y1="346.126" x2="89.7237" y2="335.51" gradientUnits="userSpaceOnUse">
<stop stop-color="#51626A"/>
<stop offset="0.2419" stop-color="#414F55"/>
<stop offset="0.7394" stop-color="#181D1F"/>
<stop offset="1"/>
</linearGradient>
<linearGradient id="paint35_linear_0_1" x1="141.21" y1="290.548" x2="141.21" y2="269.301" gradientUnits="userSpaceOnUse">
<stop stop-color="#C7DEE4"/>
<stop offset="1" stop-color="#61A3B4"/>
</linearGradient>
<linearGradient id="paint36_linear_0_1" x1="92.8725" y1="279.485" x2="170.775" y2="279.485" gradientUnits="userSpaceOnUse">
<stop stop-color="#71B4C4"/>
<stop offset="0.987" stop-color="#A5D5E1"/>
</linearGradient>
<linearGradient id="paint37_linear_0_1" x1="92.8733" y1="279.485" x2="170.775" y2="279.485" gradientUnits="userSpaceOnUse">
<stop stop-color="#71B4C4"/>
<stop offset="0.987" stop-color="#A5D5E1"/>
</linearGradient>
<linearGradient id="paint38_linear_0_1" x1="92.8723" y1="279.485" x2="170.774" y2="279.485" gradientUnits="userSpaceOnUse">
<stop stop-color="#71B4C4"/>
<stop offset="0.987" stop-color="#A5D5E1"/>
</linearGradient>
<linearGradient id="paint39_linear_0_1" x1="92.872" y1="279.485" x2="170.776" y2="279.485" gradientUnits="userSpaceOnUse">
<stop stop-color="#71B4C4"/>
<stop offset="0.987" stop-color="#A5D5E1"/>
</linearGradient>
<linearGradient id="paint40_linear_0_1" x1="56.9875" y1="279.484" x2="114.286" y2="279.484" gradientUnits="userSpaceOnUse">
<stop stop-color="#CEDAE0"/>
<stop offset="1" stop-color="#A5B7C6"/>
</linearGradient>
<linearGradient id="paint41_linear_0_1" x1="85.6364" y1="285.314" x2="85.6364" y2="276.049" gradientUnits="userSpaceOnUse">
<stop stop-color="#F2F2F2"/>
<stop offset="1" stop-color="#CEDAE0"/>
</linearGradient>
<linearGradient id="paint42_linear_0_1" x1="90.9288" y1="296.539" x2="82.3234" y2="275.1" gradientUnits="userSpaceOnUse">
<stop stop-color="#C7DEE4"/>
<stop offset="1" stop-color="#61A3B4"/>
</linearGradient>
<linearGradient id="paint43_linear_0_1" x1="97.666" y1="276.436" x2="97.666" y2="283.376" gradientUnits="userSpaceOnUse">
<stop stop-color="#61A3B4"/>
<stop offset="0.9976" stop-color="#83C6D6"/>
</linearGradient>
<clipPath id="clip0_0_1">
<rect width="227" height="187" fill="white" transform="translate(0 186)"/>
</clipPath>
</defs>
</svg>
